<svg width="40" height="40" viewBox="0 0 40 40" fill="none" xmlns="http://www.w3.org/2000/svg">
<g clip-path="url(#clip0_182_1968)">
<g filter="url(#filter0_d_182_1968)">
<path d="M11.3721 6.41412C11.1013 5.42233 12.3236 4.71664 13.0472 5.447L20.519 12.9892C20.7042 13.1761 20.9556 13.2826 21.2188 13.2853L30.2272 13.381C30.9876 13.389 31.4611 14.2092 31.0879 14.8717L26.6665 22.7211C26.5373 22.9504 26.5038 23.2213 26.5731 23.4752L29.3689 33.717C29.6397 34.7088 28.4173 35.4145 27.6938 34.6842L20.222 27.142C20.0368 26.955 19.7854 26.8486 19.5222 26.8458L10.5137 26.7502C9.7534 26.7421 9.27989 25.922 9.65308 25.2595L14.0745 17.4101C14.2036 17.1808 14.2372 16.9098 14.1679 16.656L11.3721 6.41412Z" fill="#7C50FF"/>
<path d="M11.3721 6.41412C11.1013 5.42233 12.3236 4.71664 13.0472 5.447L20.519 12.9892C20.7042 13.1761 20.9556 13.2826 21.2188 13.2853L30.2272 13.381C30.9876 13.389 31.4611 14.2092 31.0879 14.8717L26.6665 22.7211C26.5373 22.9504 26.5038 23.2213 26.5731 23.4752L29.3689 33.717C29.6397 34.7088 28.4173 35.4145 27.6938 34.6842L20.222 27.142C20.0368 26.955 19.7854 26.8486 19.5222 26.8458L10.5137 26.7502C9.7534 26.7421 9.27989 25.922 9.65308 25.2595L14.0745 17.4101C14.2036 17.1808 14.2372 16.9098 14.1679 16.656L11.3721 6.41412Z" stroke="#7C50FF"/>
</g>
</g>
<defs>
<filter id="filter0_d_182_1968" x="9.02222" y="4.64331" width="24.6965" height="33.8445" filterUnits="userSpaceOnUse" color-interpolation-filters="sRGB">
<feFlood flood-opacity="0" result="BackgroundImageFix"/>
<feColorMatrix in="SourceAlpha" type="matrix" values="0 0 0 0 0 0 0 0 0 0 0 0 0 0 0 0 0 0 127 0" result="hardAlpha"/>
<feOffset dx="2" dy="3"/>
<feColorMatrix type="matrix" values="0 0 0 0 0.0156863 0 0 0 0 0.0901961 0 0 0 0 0.2 0 0 0 1 0"/>
<feBlend mode="normal" in2="BackgroundImageFix" result="effect1_dropShadow_182_1968"/>
<feBlend mode="normal" in="SourceGraphic" in2="effect1_dropShadow_182_1968" result="shape"/>
</filter>
<clipPath id="clip0_182_1968">
<rect width="40" height="40" fill="white"/>
</clipPath>
</defs>
</svg>
