<svg width="30" height="22" viewBox="0 0 30 22" fill="none" xmlns="http://www.w3.org/2000/svg">
<path d="M24.3533 1.71484H4.17096C2.68477 1.71484 1.47998 2.91964 1.47998 4.40583V17.8607C1.47998 19.3469 2.68477 20.5517 4.17096 20.5517H24.3533C25.8395 20.5517 27.0443 19.3469 27.0443 17.8607V4.40583C27.0443 2.91964 25.8395 1.71484 24.3533 1.71484Z" fill="white"/>
<path d="M26.9636 10.0028C27.4077 8.02498 29.0492 5.96637 28.04 3.90777C27.0309 1.84917 23.2366 2.44119 21.5144 2.36046C17.8445 2.2981 14.1821 2.006 10.5487 1.48589L9.10898 1.14951C7.93306 0.632427 6.6855 0.29672 5.40888 0.153851C4.85688 0.0611919 4.28977 0.136181 3.78083 0.369129C3.31017 0.627347 2.94392 1.04116 2.7448 1.53971C2.39276 1.97975 2.16096 2.50363 2.07206 3.06011C1.68186 5.05144 1.85678 7.17732 1.65495 9.19555C1.547 10.7653 1.26266 12.3179 0.807295 13.824C0.420981 14.719 0.149719 15.6594 0 16.6227C0.00757073 17.09 0.160688 17.5433 0.43803 17.9196C0.715373 18.2958 1.10313 18.5762 1.54732 18.7216L1.69532 18.8158C2.67233 19.5256 3.85146 19.9029 5.05905 19.8922C8.6246 20.3228 12.2574 19.8922 15.823 20.1344C17.7739 20.242 19.7249 20.417 21.6624 20.6053C21.474 20.8341 21.4068 21.0493 21.6624 21.1032H21.9181C21.9181 21.2108 21.9181 21.305 22.0257 21.3319L22.5101 21.4126C22.5101 21.5472 22.5101 21.6683 22.6043 21.6952C24.8378 22.2199 25.9142 21.1839 26.4389 19.0042C26.7849 17.1278 26.8709 15.2126 26.6945 13.3128C26.609 12.4939 26.659 11.6666 26.8426 10.864C26.8291 10.6352 26.8964 10.3258 26.9636 10.0028ZM25.2011 10.8909C25.0127 12.5055 24.7974 14.147 24.7167 15.775C24.6494 16.8783 25.0665 19.0042 23.7345 19.502C23.6085 19.2891 23.4596 19.0905 23.2905 18.91C23.9632 18.91 23.1425 17.8336 22.6984 17.8336C19.8595 17.7663 17.0205 17.6721 14.1815 17.6587C12.3785 17.6587 10.5621 17.6587 8.79951 17.6587H6.37763L6.00089 17.7663H4.96486C4.6164 17.6991 4.28866 17.5509 4.00816 17.3335C3.72766 17.1161 3.50228 16.8357 3.35027 16.515C3.12859 16.4338 2.92006 16.3205 2.73135 16.1787C2.73135 15.1023 3.0139 13.999 3.04081 13.3262C3.04081 11.8058 3.12154 10.1778 3.18881 8.54972C3.26954 7.62133 3.33682 6.69294 3.36373 5.76455V5.65691C3.36373 5.02453 3.49828 4.39215 3.59246 3.77322C4.44069 3.56132 5.31771 3.48861 6.18926 3.55794C9.49917 3.47721 12.7956 3.55794 16.1055 3.74631C18.7965 3.89432 21.649 3.82704 24.3938 4.12305C24.566 4.2596 24.7197 4.41789 24.8512 4.59397C25.0657 4.75862 25.268 4.93848 25.4567 5.13217L25.6854 5.54927V5.95292C25.6854 6.19511 25.5912 6.50457 25.5509 7.01586C25.5105 7.52714 25.4836 8.36135 25.4567 9.11482C25.4298 9.8683 25.2683 10.3392 25.2011 10.8909ZM10.7101 2.15863C9.78172 2.05099 8.88024 1.90299 7.97876 1.71462L7.70967 1.63389L9.17625 1.87608L10.7101 2.15863Z" fill="#041733"/>
<path d="M14.9349 12.2494L24.165 3.73242H5.70483L14.9349 12.2494Z" fill="#44D6B9"/>
<path d="M29.6278 3.30211C25.3626 1.95662 21.2454 2.26609 16.8322 1.70098C12.7957 1.18969 8.65158 0.974415 4.60165 0.355488C3.88854 0.247849 2.98706 1.14933 3.33689 1.82207C4.4671 3.98832 3.79435 3.05993 6.18933 5.07816C8.23447 9.11464 11.7597 12.2631 14.5179 15.8421C15.2848 16.8512 17.2089 15.7075 16.146 14.4966C12.8226 10.8772 9.41851 7.3655 6.08169 3.73267C5.96059 3.22139 5.81259 2.69664 5.65113 2.18536C8.09992 2.18536 10.5622 2.31991 13.011 2.36027C16.2999 2.36946 19.5786 2.72575 22.7927 3.42321C23.8227 3.68223 24.8341 4.01038 25.82 4.40542C23.1829 6.78245 20.5592 9.17294 17.9489 11.5769C16.3882 13.0031 19.429 14.2679 20.4112 13.3395C23.4789 10.5274 26.5466 7.70187 29.6547 4.93016C29.9776 4.64761 30.2467 3.49048 29.6278 3.30211Z" fill="#041733"/>
</svg>
