<svg width="129" height="39" viewBox="0 0 129 39" fill="none" xmlns="http://www.w3.org/2000/svg">
<path d="M0 0.5H53.2V38.5H0V0.5Z" fill="#44D6B9"/>
<path d="M7.59998 8.10001H53.2V38.5H7.59998V8.10001Z" fill="#7C50FF"/>
<path d="M75.3454 28.0761H73.6297L76.8095 18.2276H82.6201L77.9533 31.4586H72.0283L68.2537 21.0579H70.0838L66.3092 31.4586H60.3842L55.7174 18.2276H61.528L64.7078 28.0761H62.9921L66.4465 18.2276H71.8911L75.3454 28.0761Z" fill="white"/>
<path d="M83.626 17.9515L86.5313 18.5498L89.4366 17.9515V31.4586H83.626V17.9515ZM86.5313 17.2612C85.5552 17.2612 84.7698 17.0234 84.175 16.5479C83.5802 16.0723 83.2828 15.4204 83.2828 14.592C83.2828 13.7636 83.5802 13.1117 84.175 12.6361C84.7698 12.1606 85.5552 11.9228 86.5313 11.9228C87.5226 11.9228 88.308 12.1606 88.8876 12.6361C89.4823 13.1117 89.7797 13.7636 89.7797 14.592C89.7797 15.4204 89.4823 16.0723 88.8876 16.5479C88.308 17.0234 87.5226 17.2612 86.5313 17.2612Z" fill="white"/>
<path d="M91.0061 18.2276H96.8167L97.7318 23.8652V31.4586H91.9212V22.9678L91.0061 18.2276ZM102.284 17.8135C103.565 17.8135 104.656 18.0742 105.556 18.5958C106.455 19.102 107.142 19.823 107.614 20.7588C108.102 21.6792 108.346 22.7607 108.346 24.0033V31.4586H102.536V24.8316C102.536 24.0953 102.33 23.5277 101.918 23.1289C101.522 22.73 100.957 22.5306 100.225 22.5306C99.7068 22.5306 99.2569 22.638 98.8756 22.8527C98.5096 23.0522 98.2275 23.3513 98.0292 23.7501C97.8309 24.1336 97.7318 24.6015 97.7318 25.1538L96.0161 24.2794C96.2296 22.8374 96.6414 21.6409 97.2514 20.6898C97.8614 19.7233 98.6011 19.0023 99.4704 18.5268C100.34 18.0512 101.278 17.8135 102.284 17.8135Z" fill="white"/>
<path d="M122.102 31.4586L121.439 26.5344L122.331 24.9007L121.439 22.6917L122.629 13.7406H128.668L127.204 24.3714L128.142 31.4586H122.102ZM123.2 24.8546C123.048 26.2659 122.667 27.5008 122.057 28.5593C121.462 29.6024 120.676 30.4155 119.7 30.9984C118.74 31.5813 117.634 31.8728 116.383 31.8728C115.102 31.8728 113.974 31.5813 112.998 30.9984C112.037 30.4155 111.282 29.5948 110.733 28.5363C110.199 27.4778 109.932 26.2506 109.932 24.8546C109.932 23.4433 110.199 22.2084 110.733 21.15C111.282 20.0915 112.037 19.2708 112.998 18.6879C113.974 18.1049 115.102 17.8135 116.383 17.8135C117.634 17.8135 118.74 18.1049 119.7 18.6879C120.676 19.2554 121.469 20.0685 122.079 21.127C122.69 22.1701 123.063 23.4127 123.2 24.8546ZM115.788 24.8546C115.788 25.3609 115.888 25.8134 116.086 26.2123C116.299 26.5958 116.589 26.9026 116.955 27.1327C117.336 27.3628 117.771 27.4778 118.259 27.4778C118.762 27.4778 119.25 27.3628 119.723 27.1327C120.196 26.9026 120.608 26.5958 120.959 26.2123C121.325 25.8134 121.576 25.3609 121.713 24.8546C121.576 24.3484 121.325 23.8959 120.959 23.497C120.608 23.0982 120.196 22.7837 119.723 22.5536C119.25 22.3235 118.762 22.2084 118.259 22.2084C117.771 22.2084 117.336 22.3235 116.955 22.5536C116.589 22.7837 116.299 23.0982 116.086 23.497C115.888 23.8959 115.788 24.3484 115.788 24.8546Z" fill="white"/>
<path d="M20.5701 14.2008V28.8354L17.9164 26.1662H30.6815V31.4586H14.668V14.2008H20.5701Z" fill="white"/>
<path d="M43.6183 31.4586L42.9549 26.7875L43.6183 24.8546L42.9549 22.9448L43.6183 18.2276H49.6577L48.7426 24.8316L49.6577 31.4586H43.6183ZM44.8308 24.8546C44.6782 26.2659 44.297 27.5008 43.6869 28.5593C43.0921 29.6024 42.3067 30.4155 41.3307 30.9984C40.3698 31.5813 39.2642 31.8728 38.0136 31.8728C36.7325 31.8728 35.6039 31.5813 34.6279 30.9984C33.667 30.4155 32.9121 29.5948 32.3631 28.5363C31.8293 27.4778 31.5624 26.2506 31.5624 24.8546C31.5624 23.4433 31.8293 22.2084 32.3631 21.15C32.9121 20.0915 33.667 19.2708 34.6279 18.6878C35.6039 18.1049 36.7325 17.8135 38.0136 17.8135C39.2642 17.8135 40.3698 18.1049 41.3307 18.6878C42.3067 19.2554 43.0998 20.0685 43.7098 21.1269C44.3198 22.1701 44.6935 23.4126 44.8308 24.8546ZM37.4188 24.8546C37.4188 25.3609 37.5179 25.8134 37.7162 26.2122C37.9297 26.5957 38.2195 26.9026 38.5855 27.1327C38.9668 27.3628 39.4014 27.4778 39.8894 27.4778C40.3927 27.4778 40.8808 27.3628 41.3535 27.1327C41.8263 26.9026 42.2381 26.5957 42.5889 26.2122C42.9549 25.8134 43.2065 25.3609 43.3438 24.8546C43.2065 24.3484 42.9549 23.8959 42.5889 23.497C42.2381 23.0982 41.8263 22.7837 41.3535 22.5536C40.8808 22.3235 40.3927 22.2084 39.8894 22.2084C39.4014 22.2084 38.9668 22.3235 38.5855 22.5536C38.2195 22.7837 37.9297 23.0982 37.7162 23.497C37.5179 23.8959 37.4188 24.3484 37.4188 24.8546Z" fill="white"/>
</svg>
