<svg width="160" height="48" viewBox="0 0 160 48" fill="none" xmlns="http://www.w3.org/2000/svg">
<g clip-path="url(#clip0_237_72)">
<path d="M0 0H66.1547V47.2534H0V0Z" fill="#041733"/>
<path d="M9.45056 9.4502H66.1546V47.2529H9.45056V9.4502Z" fill="#7C50FF"/>
<path d="M93.6928 34.2909H91.5592L95.5134 22.0442H102.739L96.9357 38.4971H89.5679L84.8742 25.5637H87.1499L82.4562 38.4971H75.0884L69.2852 22.0442H76.5107L80.4649 34.2909H78.3313L82.6268 22.0442H89.3973L93.6928 34.2909Z" fill="#7C50FF"/>
<path d="M103.99 21.7009L107.603 22.4448L111.215 21.7009V38.4971H103.99V21.7009ZM107.603 20.8425C106.389 20.8425 105.412 20.5468 104.672 19.9554C103.933 19.3641 103.563 18.5534 103.563 17.5233C103.563 16.4932 103.933 15.6825 104.672 15.0911C105.412 14.4998 106.389 14.2041 107.603 14.2041C108.835 14.2041 109.812 14.4998 110.533 15.0911C111.272 15.6825 111.642 16.4932 111.642 17.5233C111.642 18.5534 111.272 19.3641 110.533 19.9554C109.812 20.5468 108.835 20.8425 107.603 20.8425Z" fill="#7C50FF"/>
<path d="M113.167 22.0442H120.393L121.53 29.0546V38.4971H114.305V27.9387L113.167 22.0442ZM127.191 21.5292C128.784 21.5292 130.14 21.8535 131.259 22.5021C132.378 23.1316 133.232 24.0281 133.82 25.1917C134.427 26.3363 134.73 27.6811 134.73 29.2263V38.4971H127.504V30.2564C127.504 29.3407 127.248 28.6349 126.736 28.1389C126.243 27.643 125.542 27.395 124.631 27.395C123.986 27.395 123.427 27.5285 122.953 27.7956C122.498 28.0436 122.147 28.4155 121.9 28.9115C121.654 29.3884 121.53 29.9702 121.53 30.6569L119.397 29.5696C119.662 27.7765 120.175 26.2886 120.933 25.1059C121.692 23.9041 122.611 23.0076 123.692 22.4162C124.773 21.8249 125.94 21.5292 127.191 21.5292Z" fill="#7C50FF"/>
<path d="M151.836 38.4971L151.011 32.3738L152.12 30.3422L151.011 27.5953L152.49 16.4646H160L158.179 29.6841L159.346 38.4971H151.836ZM153.201 30.285C153.011 32.0399 152.537 33.5755 151.779 34.8918C151.039 36.1889 150.062 37.1999 148.849 37.9248C147.654 38.6497 146.279 39.0121 144.724 39.0121C143.131 39.0121 141.727 38.6497 140.514 37.9248C139.319 37.1999 138.38 36.1794 137.697 34.8632C137.034 33.5469 136.702 32.0209 136.702 30.285C136.702 28.53 137.034 26.9944 137.697 25.6782C138.38 24.3619 139.319 23.3414 140.514 22.6165C141.727 21.8916 143.131 21.5292 144.724 21.5292C146.279 21.5292 147.654 21.8916 148.849 22.6165C150.062 23.3223 151.049 24.3333 151.807 25.6496C152.566 26.9467 153.03 28.4918 153.201 30.285ZM143.984 30.285C143.984 30.9145 144.107 31.4772 144.354 31.9732C144.619 32.4501 144.98 32.8316 145.435 33.1177C145.909 33.4039 146.45 33.5469 147.056 33.5469C147.682 33.5469 148.289 33.4039 148.877 33.1177C149.465 32.8316 149.977 32.4501 150.413 31.9732C150.868 31.4772 151.181 30.9145 151.352 30.285C151.181 29.6555 150.868 29.0927 150.413 28.5968C149.977 28.1008 149.465 27.7097 148.877 27.4236C148.289 27.1375 147.682 26.9944 147.056 26.9944C146.45 26.9944 145.909 27.1375 145.435 27.4236C144.98 27.7097 144.619 28.1008 144.354 28.5968C144.107 29.0927 143.984 29.6555 143.984 30.285Z" fill="#7C50FF"/>
<path d="M25.579 17.0361V35.2344L22.2791 31.9152H38.1526V38.4964H18.2396V17.0361H25.579Z" fill="white"/>
<path d="M54.2397 38.4964L53.4147 32.6878L54.2397 30.2843L53.4147 27.9093L54.2397 22.0435H61.7497L60.6118 30.2556L61.7497 38.4964H54.2397ZM55.7474 30.2843C55.5577 32.0392 55.0836 33.5748 54.325 34.8911C53.5854 36.1882 52.6087 37.1992 51.395 37.9241C50.2002 38.649 48.8252 39.0114 47.2701 39.0114C45.6771 39.0114 44.2737 38.649 43.06 37.9241C41.8652 37.1992 40.9264 36.1787 40.2437 34.8624C39.5799 33.5462 39.248 32.0201 39.248 30.2843C39.248 28.5293 39.5799 26.9937 40.2437 25.6775C40.9264 24.3612 41.8652 23.3407 43.06 22.6158C44.2737 21.8909 45.6771 21.5285 47.2701 21.5285C48.8252 21.5285 50.2002 21.8909 51.395 22.6158C52.6087 23.3216 53.5949 24.3326 54.3535 25.6488C55.112 26.946 55.5767 28.4911 55.7474 30.2843ZM46.5305 30.2843C46.5305 30.9138 46.6538 31.4765 46.9003 31.9725C47.1658 32.4494 47.5261 32.8309 47.9813 33.117C48.4554 33.4031 48.9959 33.5462 49.6028 33.5462C50.2286 33.5462 50.8355 33.4031 51.4234 33.117C52.0113 32.8309 52.5234 32.4494 52.9595 31.9725C53.4147 31.4765 53.7276 30.9138 53.8983 30.2843C53.7276 29.6548 53.4147 29.092 52.9595 28.596C52.5234 28.1001 52.0113 27.709 51.4234 27.4229C50.8355 27.1368 50.2286 26.9937 49.6028 26.9937C48.9959 26.9937 48.4554 27.1368 47.9813 27.4229C47.5261 27.709 47.1658 28.1001 46.9003 28.596C46.6538 29.092 46.5305 29.6548 46.5305 30.2843Z" fill="white"/>
</g>
<defs>
<clipPath id="clip0_237_72">
<rect width="160" height="48" fill="white"/>
</clipPath>
</defs>
</svg>
