<svg width="22" height="25" viewBox="0 0 22 25" fill="none" xmlns="http://www.w3.org/2000/svg">
<path d="M1.08179 3.23178V21.3534C1.08179 21.7166 1.38764 21.9651 1.63614 21.7931L15.7053 12.7323C15.7695 12.6784 15.8212 12.6112 15.8567 12.5352C15.8922 12.4593 15.9105 12.3764 15.9105 12.2926C15.9105 12.2088 15.8922 12.126 15.8567 12.05C15.8212 11.974 15.7695 11.9068 15.7053 11.8529L1.63614 2.73477C1.38764 2.62008 1.08179 2.86858 1.08179 3.23178Z" fill="#7C50FF"/>
<path d="M20.9046 11.757C19.6129 10.8069 18.2143 10.0113 16.7374 9.38667C15.1404 8.52593 13.5899 7.58158 12.0923 6.55756C9.28231 4.64599 6.85462 2.19919 4.21666 0.0200043H3.89169C2.74475 0.593474 2.99326 0.383202 2.45802 1.79776C1.92278 3.21232 3.70054 3.59463 4.36958 3.15497C3.85346 3.46082 5.42094 4.83715 5.53564 5.06654C6.759 6.36364 8.14716 7.49473 9.66462 8.43089C10.8555 9.27722 11.9979 10.1898 13.0863 11.1644L14.2906 12.2731C15.1126 12.751 14.9405 13.076 13.7363 13.248C9.58816 15.1596 6.73992 19.2121 2.72564 21.5442C2.72564 19.3268 2.84033 17.0329 2.84033 14.8346C2.84033 11.3747 2.84033 7.89566 2.84033 4.41661C2.84033 3.21232 0.431758 5.10477 0.431758 5.96497C0.431758 8.96613 0.431758 11.9673 0.431758 14.9684C0.431758 17.3579 0.431758 19.7474 0.431758 22.1368C0.336224 22.7063 0.336224 23.2877 0.431758 23.8572C0.549109 24.2184 0.789282 24.5271 1.11055 24.7297C1.43183 24.9322 1.8139 25.0158 2.1904 24.9659C3.09017 24.7326 3.93479 24.3233 4.67543 23.7617C7.71482 22.1368 10.5248 20.1297 13.5833 18.524L18.8784 15.8669C19.7775 15.5937 20.6334 15.1947 21.4207 14.6817C22.3765 13.6686 21.8795 12.6555 20.9046 11.757Z" fill="white"/>
</svg>
