<svg width="36" height="36" viewBox="0 0 36 36" fill="none" xmlns="http://www.w3.org/2000/svg">
<path d="M25.3489 20.9677C25.3489 21.9718 25.1888 22.6194 24.8687 22.925C24.5558 23.2233 24.0683 23.3543 23.4208 23.3179L20.1975 23.1287L14.4421 23.7617L20.1975 30.4921L23.7409 31.0814C24.8614 31.2706 22.3221 32.5221 22.3221 32.5221C22.3221 32.5221 28.4994 30.9359 29.2198 30.6303C29.8819 30.3465 30.4858 29.9755 31.0388 29.5098C32.9888 27.8581 34.0001 25.035 34.0001 21.1132V5.44793L27.9537 4L19.7536 7.8272V19.9418L25.3416 20.0073V20.9604L25.3489 20.9677Z" fill="#7C50FF" stroke="#041733" stroke-linecap="round" stroke-linejoin="round"/>
<path d="M8.3449 22.4292L2.30579 23.0477L8.3449 28.512L7.76282 30.2801C7.76282 30.2801 12.8051 29.0286 13.6637 28.723C14.3695 28.4683 14.9952 28.0536 15.5336 27.4642C16.7851 26.1036 17.4327 23.8335 17.4327 20.7121V8.21913L11.6555 6.72754L8.03931 9.79075V19.8026L8.33762 22.4292H8.3449Z" fill="#7C50FF" stroke="#041733" stroke-linecap="round" stroke-linejoin="round"/>
<path d="M19.5644 21.2879C19.5644 22.4157 19.4043 23.1578 19.0914 23.4998C18.7785 23.8418 18.2983 23.9873 17.658 23.9509L14.442 23.7617V32.151L17.9782 32.7404C20.9031 33.2278 23.3115 32.6094 25.116 30.8049C26.9932 28.9204 27.9609 25.7699 27.9609 21.4116V4L14.0055 6.33561V20.1383L19.5571 20.2037V21.2806L19.5644 21.2879ZM5.90723 20.0437V20.9459C5.90723 21.8918 5.79809 22.503 5.57981 22.794C5.36153 23.0778 5.02683 23.2087 4.57572 23.1796L2.30559 23.0487V30.121L4.80128 30.5357C6.83857 30.8777 8.50478 30.3102 9.73443 28.7822C11.0077 27.196 11.6626 24.5985 11.6626 21.0187V6.72851L2 8.34379V19.9927L5.91451 20.0437H5.90723Z" fill="#44D6B9" stroke="#041733" stroke-linecap="round" stroke-linejoin="round"/>
</svg>
