<svg width="40" height="40" viewBox="0 0 40 40" fill="none" xmlns="http://www.w3.org/2000/svg">
<path d="M25.4771 5.03803C25.5877 4.95904 25.4771 4.86425 25.256 4.76945C25.3823 4.57987 24.9084 4.39028 24.4186 4.32709H24.1816C24.7346 3.88472 23.7077 3.63194 23.2021 3.77413C23.1762 3.7213 23.1391 3.67466 23.0936 3.63739C23.048 3.60011 22.9949 3.57306 22.938 3.55808C22.8811 3.5431 22.8216 3.54053 22.7636 3.55055C22.7056 3.56056 22.6504 3.58294 22.6018 3.61614C20.7059 5.512 18.6995 7.34465 16.6614 9.19311C12.5064 12.7478 8.35129 16.3025 4.14882 19.8257C3.83285 20.0784 3.86444 20.2048 4.03823 20.2364L3.65906 20.584C3.31149 20.8684 3.65906 20.9948 3.88024 21.0106C3.88024 21.1686 4.08563 21.2476 4.27521 21.2476C4.3795 21.2684 4.48689 21.2684 4.59119 21.2476C4.24361 21.5477 4.59119 21.6741 4.82817 21.6899C5.34953 21.6899 6.29745 20.9948 6.67662 20.6946C13.1857 15.5916 19.442 10.2516 26.0775 5.512C26.2355 5.32241 25.9195 5.16442 25.4771 5.03803Z" fill="#041733"/>
<path d="M35.9199 18.5144L28.2891 14.9913C26.7382 14.2704 25.0425 13.9154 23.3326 13.9535C21.6228 13.9915 19.9446 14.4218 18.4273 15.2109C16.91 16.0001 15.5942 17.1272 14.5813 18.5052C13.5684 19.8833 12.8855 21.4755 12.5852 23.1592L11.1001 31.4378" fill="white"/>
<path d="M35.9042 13.6483C30.9434 11.3733 26.5671 8.52955 21.0376 9.46168C18.0114 10.0354 15.261 11.5968 13.2172 13.9011C8.61976 18.9093 8.47757 26.3821 7.32426 32.8596C7.13468 34.0287 9.29911 35.1189 9.3307 33.7444C9.3307 32.1645 9.64668 30.4582 9.82047 28.8152C9.96266 27.6776 10.0732 26.5243 10.168 25.371C17.109 11.8578 25.219 8.61908 34.4981 15.6548C35.8252 16.2709 37.2629 14.2803 35.9042 13.6483Z" fill="#041733"/>
<path d="M30.0794 13.2573L29.6273 14.6885C29.1385 16.2361 29.9967 17.8869 31.5443 18.3757L32.9755 18.8278C34.523 19.3166 36.1738 18.4584 36.6627 16.9108L37.1148 15.4796C37.6036 13.9321 36.7453 12.2812 35.1978 11.7924L33.7666 11.3403C32.219 10.8515 30.5682 11.7098 30.0794 13.2573Z" fill="#44D6B9"/>
<path d="M37.9579 14.5173C38.083 13.8012 37.9243 13.0645 37.5155 12.4634C36.9754 11.7714 36.3036 11.1932 35.539 10.7621C34.7743 10.3309 33.9319 10.0554 33.0603 9.95142C32.6764 9.98907 32.3049 10.1075 31.9701 10.299C31.1339 10.6076 30.4082 11.1574 29.8847 11.8789C29.4265 12.2854 29.0631 12.7876 28.8202 13.35C28.5772 13.9123 28.4606 14.5211 28.4786 15.1334C28.5132 15.5611 28.6381 15.9765 28.845 16.3523C29.052 16.7282 29.3364 17.0558 29.6793 17.3136C29.874 17.5077 30.0915 17.6775 30.3271 17.8192C30.7093 18.1608 31.1407 18.4431 31.6068 18.6565C31.4488 18.8145 31.433 19.0831 31.7174 19.1463H31.8595C31.8595 19.2569 31.8595 19.3517 32.0807 19.3833H32.4283C32.3335 19.5097 32.3177 19.6361 32.5231 19.6677C33.1296 19.8902 33.7859 19.94 34.4191 19.8117C35.0522 19.6834 35.6374 19.382 36.1094 18.9409C36.7371 18.2696 37.2688 17.5146 37.6893 16.6975C37.8603 16.3033 37.9516 15.8791 37.9579 15.4494C38.0054 15.1405 38.0054 14.8261 37.9579 14.5173ZM32.4915 17.5348C32.8075 17.6454 33.0919 17.1083 32.7127 16.9977C32.1067 16.8693 31.5499 16.5708 31.1078 16.137C30.6656 15.7032 30.3564 15.1523 30.2165 14.5489C30.4375 14.2221 30.7221 13.9432 31.0532 13.7287C31.3844 13.5143 31.7553 13.3688 32.1439 13.3008C34.6243 11.7209 33.945 11.6261 35.4933 13.8379L35.6355 14.2013C35.8534 14.3716 36.0497 14.5679 36.22 14.7858C36.2487 15.3953 36.1268 16.0024 35.865 16.5536C35.6032 17.1047 35.2097 17.5828 34.7191 17.9456C34.2932 18.1424 33.8297 18.2448 33.3604 18.2458H33.0129C33.0305 18.2055 33.0395 18.1621 33.0394 18.1181C33.0393 18.0742 33.03 18.0308 33.0122 17.9907C32.9943 17.9505 32.9683 17.9145 32.9358 17.885C32.9033 17.8555 32.8649 17.8331 32.8233 17.8192C32.6528 17.7605 32.4786 17.713 32.3019 17.677C32.3399 17.6683 32.3753 17.6509 32.4055 17.6263C32.4356 17.6016 32.4596 17.5703 32.4757 17.5348H32.4915Z" fill="#041733"/>
<path d="M6.0867 30.4244L5.63462 31.8556C5.14579 33.4032 6.00406 35.054 7.55161 35.5428L8.98279 35.9949C10.5303 36.4837 12.1812 35.6255 12.67 34.0779L13.1221 32.6467C13.6109 31.0992 12.7526 29.4484 11.2051 28.9595L9.77391 28.5074C8.22635 28.0186 6.57553 28.8769 6.0867 30.4244Z" fill="#44D6B9"/>
<path d="M13.9596 31.6905C14.025 31.3359 14.0195 30.9719 13.9436 30.6194C13.8677 30.2669 13.7228 29.9329 13.5172 29.6367C12.4332 28.2443 10.8435 27.3359 9.09355 27.1089C8.7646 27.1533 8.4447 27.2493 8.14562 27.3933C7.00837 27.7536 6.03841 28.5105 5.41244 29.5261C4.73804 30.3143 4.39794 31.3347 4.46451 32.3699C4.49927 32.7953 4.62434 33.2084 4.83139 33.5816C5.03844 33.9548 5.32271 34.2796 5.66522 34.5343C5.86687 34.7251 6.08348 34.8995 6.31297 35.0557C6.70189 35.3885 7.13198 35.6699 7.59267 35.893C7.55249 35.9246 7.52216 35.967 7.50523 36.0152C7.4883 36.0634 7.48548 36.1154 7.49709 36.1652C7.5087 36.2149 7.53426 36.2604 7.57078 36.2961C7.6073 36.3318 7.65326 36.3564 7.70326 36.367H7.84545C7.84916 36.4244 7.87366 36.4785 7.91436 36.5192C7.95506 36.5599 8.00919 36.5844 8.06663 36.5881H8.4142C8.31941 36.7145 8.30361 36.8409 8.50899 36.8725C9.11549 37.095 9.77183 37.1449 10.405 37.0166C11.0381 36.8883 11.6233 36.5868 12.0953 36.1458C12.7195 35.4716 13.2508 34.7172 13.6752 33.9023C13.8696 33.4986 13.967 33.0549 13.9596 32.6069C14.0055 32.3031 14.0055 31.9942 13.9596 31.6905ZM8.4932 34.7081H8.57219C8.88816 34.8029 9.15674 34.2815 8.79337 34.1551C8.17504 34.0396 7.60374 33.7465 7.14923 33.3116C6.69473 32.8768 6.37669 32.319 6.23397 31.7063C6.6944 31.0574 7.38272 30.606 8.16142 30.4424C10.6418 28.8625 9.97828 28.7678 11.5266 30.9796C11.5599 31.1108 11.6076 31.238 11.6687 31.3588C11.8783 31.5331 12.0689 31.729 12.2375 31.9433C12.2666 32.5512 12.1465 33.157 11.8877 33.7077C11.6288 34.2585 11.239 34.7376 10.7524 35.1031C10.3222 35.3057 9.85344 35.4134 9.37793 35.419H9.03035C9.06225 35.3393 9.06196 35.2502 9.02955 35.1707C8.99713 35.0911 8.93512 35.0272 8.85657 34.9925L8.31941 34.8661C8.36029 34.8587 8.39827 34.84 8.429 34.8121C8.45974 34.7841 8.48199 34.7481 8.4932 34.7081Z" fill="#041733"/>
<path d="M11.8682 12.1373L11.4161 13.5685C10.9273 15.1161 11.7855 16.7669 13.3331 17.2557L14.7643 17.7078C16.3118 18.1966 17.9627 17.3384 18.4515 15.7908L18.9036 14.3596C19.3924 12.8121 18.5341 11.1612 16.9866 10.6724L15.5554 10.2203C14.0078 9.7315 12.357 10.5898 11.8682 12.1373Z" fill="#44D6B9"/>
<path d="M19.7422 13.4114C19.8579 12.7105 19.6995 11.9921 19.2998 11.4049C18.2148 9.99775 16.6205 9.07298 14.8604 8.82971C14.5368 8.87573 14.2224 8.97166 13.9282 9.11409C12.791 9.47446 11.821 10.2314 11.1951 11.2469C10.5229 12.0115 10.182 13.0116 10.2471 14.0275C10.2788 14.4536 10.4026 14.8678 10.6099 15.2415C10.8172 15.6152 11.1031 15.9395 11.4478 16.1919C11.6462 16.3865 11.8632 16.5611 12.0956 16.7133C12.4792 17.0531 12.9103 17.3351 13.3753 17.5506C13.2015 17.6928 13.2015 17.9772 13.4701 18.0246H13.6281C13.6257 18.0542 13.6298 18.0841 13.64 18.112C13.6503 18.1399 13.6665 18.1652 13.6876 18.1863C13.7086 18.2073 13.734 18.2235 13.7619 18.2338C13.7898 18.2441 13.8196 18.2482 13.8493 18.2458H14.181C14.181 18.3722 14.0862 18.4985 14.2758 18.5301C14.885 18.7522 15.5436 18.8018 16.1791 18.6736C16.8147 18.5454 17.4025 18.2443 17.8779 17.8034C18.4972 17.1253 19.0281 16.3715 19.4578 15.56C19.64 15.1471 19.7315 14.6999 19.7264 14.2487C19.7734 13.9719 19.7787 13.6897 19.7422 13.4114ZM14.26 16.4289C14.576 16.5237 14.8446 16.0023 14.4812 15.876C13.874 15.7521 13.3166 15.4524 12.8783 15.0142C12.4401 14.576 12.1404 14.0186 12.0166 13.4114C12.4665 12.7516 13.1596 12.2971 13.944 12.1475C16.4245 10.5676 15.7451 10.4728 17.2934 12.6846L17.4198 13.0954C17.6339 13.2699 17.8298 13.4658 18.0043 13.6799C18.0242 14.2964 17.8901 14.9081 17.6143 15.4598C17.3385 16.0114 16.9295 16.4857 16.4245 16.8397C15.9997 17.042 15.5362 17.1498 15.0658 17.1557H14.7024C14.7204 17.1164 14.7301 17.0739 14.7311 17.0308C14.732 16.9876 14.7241 16.9447 14.7078 16.9048C14.6915 16.8648 14.6672 16.8286 14.6364 16.7984C14.6056 16.7682 14.5689 16.7446 14.5286 16.7291L14.102 16.5711C14.1703 16.5446 14.2265 16.494 14.26 16.4289Z" fill="#041733"/>
<path d="M3.86425 23.0487C4.89385 23.0487 5.72851 22.214 5.72851 21.1844C5.72851 20.1548 4.89385 19.3202 3.86425 19.3202C2.83465 19.3202 2 20.1548 2 21.1844C2 22.214 2.83465 23.0487 3.86425 23.0487Z" fill="white"/>
<path d="M4.35424 18.5145C4.03855 18.5249 3.72858 18.6015 3.44431 18.7392C3.16004 18.8769 2.90781 19.0726 2.70388 19.3138C2.49996 19.555 2.34888 19.8363 2.26039 20.1395C2.1719 20.4427 2.14798 20.7611 2.19016 21.0742C2.23234 21.3872 2.33969 21.6879 2.50528 21.9569C2.67087 22.2258 2.89101 22.4571 3.15151 22.6357C3.41201 22.8143 3.70707 22.9363 4.01764 22.9939C4.32821 23.0514 4.64739 23.0432 4.95459 22.9697H5.12838C5.12923 23.0471 5.14843 23.1233 5.1844 23.1918C5.22036 23.2604 5.27207 23.3194 5.33529 23.3642C5.3985 23.4089 5.47141 23.438 5.54804 23.449C5.62467 23.4601 5.70284 23.4529 5.77612 23.4279C8.99907 22.6695 7.49819 18.0563 4.35424 18.5145ZM5.25477 22.3378C5.09407 22.1255 4.89243 21.9476 4.66176 21.8146C4.4311 21.6816 4.1761 21.5963 3.91187 21.5636H3.78548C3.5959 21.1845 3.94347 20.9001 4.8282 20.6947C4.97945 20.7103 5.12603 20.7561 5.25929 20.8293C5.39254 20.9025 5.50977 21.0017 5.60403 21.121C5.6983 21.2403 5.76769 21.3773 5.8081 21.5239C5.84851 21.6704 5.85913 21.8236 5.83932 21.9744C5.71679 21.9699 5.59571 22.0021 5.49157 22.0668C5.38744 22.1316 5.30499 22.2259 5.25477 22.3378Z" fill="#041733"/>
<path d="M22.728 7.39212C23.8536 7.39212 24.766 6.47966 24.766 5.35408C24.766 4.2285 23.8536 3.31604 22.728 3.31604C21.6024 3.31604 20.6899 4.2285 20.6899 5.35408C20.6899 6.47966 21.6024 7.39212 22.728 7.39212Z" fill="white"/>
<path d="M23.7391 2.03634C19.4102 2.41551 20.137 8.03987 24.0867 7.29733C24.1657 7.29733 24.1973 7.29733 24.2604 7.29733C24.2661 7.40568 24.2959 7.5114 24.3477 7.60672C24.3996 7.70204 24.4721 7.78455 24.56 7.84818C24.6478 7.91182 24.7489 7.95497 24.8556 7.97447C24.9623 7.99397 25.0721 7.98933 25.1768 7.96088C25.4864 7.96071 25.7925 7.89507 26.0749 7.76827C26.3574 7.64147 26.6099 7.45637 26.8157 7.22512C27.0216 6.99388 27.1763 6.72171 27.2696 6.42648C27.3628 6.13125 27.3926 5.81963 27.357 5.51207C27.4111 5.02996 27.3535 4.54187 27.1885 4.08563C27.0236 3.62938 26.7559 3.21724 26.406 2.88114C26.0562 2.54504 25.6336 2.29402 25.1711 2.14752C24.7087 2.00101 24.2186 1.96297 23.7391 2.03634ZM22.9649 5.38568C22.9649 5.38568 22.9649 5.27509 22.9649 5.21189C24.0235 4.62734 24.6396 5.21189 25.0978 6.03343C24.9775 6.03955 24.8608 6.0761 24.7586 6.13966C24.6564 6.20322 24.5719 6.29169 24.5132 6.3968C24.103 5.8904 23.5362 5.53471 22.9018 5.38568H22.9649Z" fill="#041733"/>
</svg>
