<svg width="40" height="40" viewBox="0 0 40 40" fill="none" xmlns="http://www.w3.org/2000/svg">
<path d="M13.3246 10.8364L4.30029 19.8607L13.3246 28.885" fill="white"/>
<path d="M14.8176 28.3271C11.8314 25.3245 8.02482 23.1751 5.20268 19.9756L13.7511 11.4927C14.6207 10.6231 12.7174 10.0981 12.2088 10.6067L3.20093 19.549C3.13769 19.6059 3.08712 19.6755 3.0525 19.7532C3.01789 19.8309 3 19.9151 3 20.0002C3 20.0853 3.01789 20.1694 3.0525 20.2471C3.08712 20.3249 3.13769 20.3945 3.20093 20.4514C6.79423 24.1759 10.7649 27.5067 14.1285 31.4774C14.8012 32.1665 15.4247 28.885 14.8176 28.3271Z" fill="#041733"/>
<path d="M22.3489 28.885L31.3731 19.8607L22.3489 10.8364" fill="white"/>
<path d="M37.5261 19.8771C35.1794 18.3065 32.9326 16.5913 30.7989 14.7415C28.8659 12.8222 27.0366 10.8011 25.3188 8.68702C24.4984 7.76819 24.2522 11.5748 24.3507 11.8865C24.4491 12.1983 24.6788 12.9038 24.8101 13.4289C25.7998 14.3366 26.7418 15.295 27.6322 16.3002C28.2065 16.9729 30.9138 19.5818 30.6185 20.5991C30.6185 21.0585 30.2247 21.3374 29.6504 21.4687L26.5657 24.4713C25.0726 25.9316 23.5795 27.3919 22.07 28.8358C21.2496 29.6233 23.7108 29.6397 23.7108 29.6397C24.6624 29.6397 27.7471 30.1484 28.5347 29.3608C31.5537 26.391 34.5235 23.372 37.5589 20.4022C37.8051 20.2053 37.7887 20.0248 37.5261 19.8771Z" fill="#041733"/>
<path d="M25.0232 2.63242L25.1544 2.33708C25.1544 2.1566 24.9411 2.1566 24.5309 2.25504V2.1566C24.6622 1.84485 23.7762 2.04174 23.0871 2.3699C23.0759 2.32685 23.0759 2.28168 23.0871 2.23864C23.0827 2.29872 23.0827 2.35904 23.0871 2.41912L22.644 2.63242C22.4964 2.3699 21.8729 2.46834 21.7744 2.78009C20.4782 7.53834 19.0507 12.2966 17.574 17.022C15.2879 23.6508 13.0619 30.3397 10.8961 37.0887C10.7648 37.5153 11.0109 37.4005 11.3391 37.0887C11.3461 37.1706 11.3461 37.253 11.3391 37.3348C11.2078 37.7614 11.3391 37.6794 11.7329 37.3348C11.7329 37.3348 11.8806 37.3348 12.0118 37.3348C12.1431 37.3348 11.9298 37.581 11.8806 37.7122C11.536 38.8115 13.5213 36.4324 13.6362 36.0714C15.9333 30.5256 17.5576 24.586 19.4445 18.9417C21.3314 13.2975 23.6285 7.99776 26.0076 2.53398C26.0405 2.33708 25.581 2.38631 25.0232 2.63242Z" fill="#7C50FF"/>
</svg>
