<svg width="40" height="40" viewBox="0 0 40 40" fill="none" xmlns="http://www.w3.org/2000/svg">
<path d="M18.2246 4.03735C15.1522 4.03735 12.1488 4.94843 9.59414 6.65537C7.03952 8.36231 5.04844 10.7885 3.87268 13.627C2.69692 16.4655 2.38928 19.589 2.98868 22.6024C3.58808 25.6157 5.06759 28.3837 7.24011 30.5562C9.41263 32.7287 12.1806 34.2082 15.194 34.8076C18.2074 35.407 21.3308 35.0994 24.1693 33.9237C27.0079 32.7479 29.434 30.7568 31.141 28.2022C32.8479 25.6476 33.759 22.6442 33.759 19.5717H18.2246V4.03735Z" fill="white"/>
<path d="M37.4718 19.4785C33.9145 18.7018 30.559 19.0436 26.9395 18.8882C24.7349 18.7704 22.543 18.4795 20.384 18.0183C20.7258 15.5794 20.7413 13.0318 21.0209 10.6084C21.1559 7.9209 21.4882 5.24696 22.0151 2.60818C22.2792 1.64504 21.5025 2.01787 21.0675 2.42176C20.6326 2.82566 19.1102 4.64318 19.1879 5.52864C19.5141 9.25689 20.4617 14.8493 18.5665 18.1115C18.349 18.4999 19.3277 19.3542 19.6539 19.4319C21.7155 20.0847 23.8806 20.348 26.0385 20.2086C28.4604 19.9859 30.8999 20.0432 33.3086 20.3795C33.155 24.3335 31.4864 28.0769 28.6483 30.8342C26.7586 32.4713 24.4912 33.6124 22.0505 34.1548C19.6099 34.6972 17.0726 34.6237 14.6673 33.941C12.3935 33.3241 10.3022 32.1673 8.57132 30.5689C6.84041 28.9705 5.52103 26.9778 4.72534 24.7602C3.10976 21.6119 3.7881 18.3963 6.76034 15.1134C6.34091 10.7327 7.72348 7.78113 10.877 6.24322C13.4338 4.76151 16.3128 3.92445 19.2655 3.80432C20.2597 3.69558 18.8616 1.95573 18.1937 2.0334C14.5445 2.25653 11.0401 3.54164 8.11183 5.73059C7.08945 6.59713 6.18583 7.59476 5.42439 8.69766C3.67036 11.0712 2.54541 13.85 2.15429 16.7752C1.76316 19.7005 2.11857 22.6772 3.18743 25.4282C4.52781 29.1924 7.09455 32.3969 10.4753 34.5268C13.8561 36.6567 17.8547 37.5884 21.8287 37.1722C25.8208 36.8558 29.5779 35.1584 32.4542 32.3721C33.9926 31.0997 35.2379 29.51 36.1048 27.7118C37.3385 25.3077 37.9878 22.6466 38 19.9446C37.9847 19.8155 37.9224 19.6966 37.8249 19.6106C37.7275 19.5247 37.6018 19.4776 37.4718 19.4785Z" fill="#041733"/>
<path d="M22.885 14.9114H33.0445C32.2942 12.5252 30.9787 10.3554 29.2099 8.58657C27.4411 6.81777 25.2713 5.50228 22.885 4.75195V14.9114Z" fill="#7C50FF"/>
<path d="M32.4075 8.69767C29.4715 5.71507 28.8191 5.77721 25.153 4.30144C24.7335 4.13056 23.7238 5.37331 23.6927 5.7306C23.4131 8.27824 23.6927 11.0278 23.5063 13.6376C23.1801 13.6376 23.2422 13.9949 23.4286 14.3056C23.3746 14.8809 23.2812 15.4518 23.149 16.0144C22.916 16.9464 24.1898 16.4493 24.7025 15.828C25.4326 16.6979 26.5355 17.9562 27.3122 17.9562C30.6832 17.9562 34.0697 17.9562 37.4562 17.9562C37.7203 17.9562 37.8446 17.863 37.798 17.5989C35.9183 13.6531 35.4678 11.8822 32.4075 8.69767ZM32.0658 13.6997H28.6171H24.7025C24.7025 13.4667 24.5937 13.1716 24.5471 12.8143C24.1896 10.8051 24.2798 8.74176 24.8112 6.77141C34.4736 11.701 36.8918 14.0311 32.0658 13.7619V13.6997Z" fill="#041733"/>
</svg>
