<svg width="20" height="15" viewBox="0 0 20 15" fill="none" xmlns="http://www.w3.org/2000/svg">
<path d="M0.433716 3.64765C0.433716 1.87769 1.83759 0.442871 3.56936 0.442871H16.4312C18.163 0.442871 19.5669 1.87769 19.5669 3.64762V11.4171C19.5669 12.833 18.4438 13.9809 17.0584 13.9809H3.56936C1.83759 13.9809 0.433716 12.5461 0.433716 10.7761V3.64765Z" fill="#FF5B5D"/>
<path d="M6.07486 1.69678H19.3209V2.6996H6.07486V1.69678ZM6.07486 4.20383H19.3209V5.20664H6.07486V4.20383ZM0.678345 9.21791H19.3209V10.2207H0.678345V9.21791ZM0.679815 6.71087H19.3223V7.71368H0.679815V6.71087ZM0.679815 11.7249H19.3223V12.7278H0.679815V11.7249Z" fill="white"/>
<path d="M16.8129 0.692814C18.1983 0.692814 19.3214 1.84067 19.3214 3.25663V11.1656C19.3214 12.5816 18.1983 13.7294 16.8129 13.7294H3.18735C1.80192 13.7294 0.678827 12.5816 0.678827 11.1656V3.25663C0.678827 1.84067 1.80193 0.692814 3.18735 0.692814H16.8129ZM19.812 2.75522C19.812 1.33927 18.6889 0.191406 17.3034 0.191406H2.69674C1.31133 0.191406 0.188232 1.33926 0.188232 2.75522V11.667C0.188232 13.083 1.31133 14.2308 2.69674 14.2308H17.3034C18.6889 14.2308 19.812 13.083 19.812 11.667V2.75522Z" fill="#041733"/>
<path fill-rule="evenodd" clip-rule="evenodd" d="M19.1332 11.1665V3.25749C19.1332 1.94775 18.0943 0.885981 16.8128 0.885981H3.18723C1.90574 0.885981 0.866871 1.94775 0.866871 3.25752V11.1665C0.866871 12.4762 1.90574 13.538 3.18723 13.538H16.8128C18.0943 13.538 19.1332 12.4762 19.1332 11.1665ZM2.69665 0H17.3033C18.7927 0 20 1.23395 20 2.7561V11.6679C20 13.1901 18.7927 14.424 17.3033 14.424H2.69665C1.20733 14.424 0 13.1901 0 11.6679V2.7561C0 1.23395 1.20733 0 2.69665 0ZM19.3213 3.25749C19.3213 1.84155 18.1982 0.693695 16.8128 0.693695H3.18723C1.80183 0.693695 0.678733 1.84156 0.678733 3.25752V11.1665C0.678733 12.5824 1.80183 13.7303 3.18723 13.7303H16.8128C18.1982 13.7303 19.3213 12.5824 19.3213 11.1665V3.25749ZM17.3033 0.192286C18.6888 0.192286 19.8119 1.34014 19.8119 2.7561V11.6679C19.8119 13.0839 18.6888 14.2317 17.3033 14.2317H2.69665C1.31124 14.2317 0.188138 13.0839 0.188138 11.6679V2.7561C0.188138 1.34014 1.31124 0.192286 2.69665 0.192286H17.3033Z" fill="#041733"/>
<path d="M0.433716 3.00668C0.433716 1.59073 1.55681 0.442871 2.94223 0.442871H9.75497V7.4626H0.433716V3.00668Z" fill="#016BFF"/>
<path d="M9.50949 0.692814V7.21114H0.678827V3.25663C0.678827 1.84067 1.80193 0.692814 3.18735 0.692814H9.50949ZM10.0001 0.191406H2.69674C1.31133 0.191406 0.188232 1.33926 0.188232 2.75522V7.71253H10.0001V0.191406Z" fill="#041733"/>
<path fill-rule="evenodd" clip-rule="evenodd" d="M10.1881 0V7.9057H0V2.7561C0 1.23395 1.20733 0 2.69665 0H10.1881ZM9.32126 7.01973V0.885981H3.18723C1.90574 0.885981 0.866871 1.94775 0.866871 3.25752V7.01973H9.32126ZM2.69665 0.192286C1.31124 0.192286 0.188138 1.34014 0.188138 2.7561V7.71342H10V0.192286H2.69665ZM9.5094 0.693695H3.18723C1.80183 0.693695 0.678733 1.84156 0.678733 3.25752V7.212H9.5094V0.693695Z" fill="#041733"/>
<path d="M2.57208 2.06419C2.59465 2.01506 2.66303 2.01506 2.68561 2.06419L2.81743 2.35108C2.82632 2.37043 2.84407 2.38397 2.86474 2.38719L3.16384 2.43381C3.2143 2.44168 3.23493 2.50458 3.19928 2.54193L2.97876 2.77301C2.96487 2.78757 2.95856 2.80801 2.96176 2.82808L3.01325 3.15065C3.02168 3.20346 2.96686 3.24294 2.92104 3.2171L2.65916 3.06926C2.64029 3.0586 2.61739 3.0586 2.59852 3.06926L2.33665 3.2171C2.29083 3.24294 2.23601 3.20346 2.24443 3.15065L2.29592 2.82808C2.29913 2.80801 2.29282 2.78757 2.27892 2.77301L2.05841 2.54193C2.02277 2.50458 2.04339 2.44168 2.09385 2.43381L2.39295 2.38719C2.41362 2.38397 2.43136 2.37043 2.44025 2.35108L2.57208 2.06419ZM3.88338 3.40439C3.90595 3.35529 3.97434 3.35529 3.99692 3.40439L4.12874 3.6913C4.13762 3.71065 4.15536 3.72419 4.17606 3.72739L4.47514 3.77402C4.52559 3.78189 4.54622 3.84479 4.51057 3.88214L4.29007 4.11323C4.27618 4.12778 4.26988 4.14823 4.27308 4.1683L4.32456 4.49086C4.333 4.54366 4.27816 4.58317 4.23234 4.5573L3.97045 4.40946C3.95161 4.39883 3.92869 4.39883 3.90984 4.40946L3.64795 4.5573C3.60214 4.58317 3.5473 4.54366 3.55573 4.49086L3.60722 4.1683C3.61042 4.14823 3.60412 4.12778 3.59023 4.11323L3.36973 3.88214C3.33408 3.84479 3.35471 3.78189 3.40516 3.77402L3.70424 3.72739C3.72493 3.72419 3.74268 3.71065 3.75156 3.6913L3.88338 3.40439ZM5.1947 2.06419C5.21728 2.01506 5.28564 2.01506 5.30821 2.06419L5.44004 2.35108C5.44894 2.37043 5.46669 2.38397 5.48735 2.38719L5.78646 2.43381C5.83691 2.44168 5.85751 2.50458 5.82189 2.54193L5.60136 2.77301C5.58747 2.78757 5.58117 2.80801 5.58437 2.82808L5.63586 3.15065C5.64429 3.20346 5.58948 3.24294 5.54364 3.2171L5.28178 3.06926C5.2629 3.0586 5.24001 3.0586 5.22114 3.06926L4.95925 3.2171C4.91344 3.24294 4.85863 3.20346 4.86706 3.15065L4.91855 2.82808C4.92175 2.80801 4.91544 2.78757 4.90152 2.77301L4.68102 2.54193C4.64537 2.50458 4.666 2.44168 4.71646 2.43381L5.01556 2.38719C5.03623 2.38397 5.05398 2.37043 5.06288 2.35108L5.1947 2.06419ZM6.506 3.40439C6.52857 3.35529 6.59696 3.35529 6.61954 3.40439L6.75136 3.6913C6.76023 3.71065 6.77798 3.72419 6.79865 3.72739L7.09775 3.77402C7.14821 3.78189 7.16884 3.84479 7.13319 3.88214L6.91269 4.11323C6.8988 4.12778 6.89246 4.14823 6.89569 4.1683L6.94718 4.49086C6.95558 4.54366 6.90077 4.58317 6.85496 4.5573L6.59307 4.40946C6.57423 4.39883 6.55131 4.39883 6.53243 4.40946L6.27057 4.5573C6.22476 4.58317 6.16992 4.54366 6.17835 4.49086L6.22984 4.1683C6.23304 4.14823 6.22674 4.12778 6.21285 4.11323L5.99232 3.88214C5.95669 3.84479 5.9773 3.78189 6.02778 3.77402L6.32686 3.72739C6.34755 3.72419 6.36527 3.71065 6.37417 3.6913L6.506 3.40439ZM7.81729 2.06419C7.83987 2.01506 7.90825 2.01506 7.93083 2.06419L8.06265 2.35108C8.07156 2.37043 8.08931 2.38397 8.10997 2.38719L8.40905 2.43381C8.45953 2.44168 8.48013 2.50458 8.44451 2.54193L8.22398 2.77301C8.21009 2.78757 8.20379 2.80801 8.20699 2.82808L8.25847 3.15065C8.26691 3.20346 8.21207 3.24294 8.16625 3.2171L7.9044 3.06926C7.88552 3.0586 7.86263 3.0586 7.84375 3.06926L7.58187 3.2171C7.53605 3.24294 7.48124 3.20346 7.48965 3.15065L7.54113 2.82808C7.54436 2.80801 7.53803 2.78757 7.52414 2.77301L7.30364 2.54193C7.26799 2.50458 7.28862 2.44168 7.33907 2.43381L7.63818 2.38719C7.65885 2.38397 7.67659 2.37043 7.68547 2.35108L7.81729 2.06419ZM2.57208 4.74463C2.59465 4.69549 2.66303 4.69549 2.68561 4.74463L2.81743 5.03151C2.82632 5.05085 2.84407 5.0644 2.86474 5.06763L3.16384 5.11422C3.2143 5.12209 3.23493 5.18499 3.19928 5.22234L2.97876 5.45344C2.96487 5.46799 2.95856 5.48843 2.96176 5.5085L3.01325 5.83109C3.02168 5.8839 2.96686 5.92338 2.92104 5.89751L2.65916 5.74969C2.64029 5.73903 2.61739 5.73903 2.59852 5.74969L2.33665 5.89751C2.29083 5.92338 2.23601 5.88387 2.24443 5.83109L2.29592 5.5085C2.29913 5.48843 2.29282 5.46799 2.27892 5.45344L2.05841 5.22234C2.02277 5.18499 2.04339 5.12209 2.09385 5.11422L2.39295 5.06763C2.41362 5.0644 2.43136 5.05085 2.44025 5.03151L2.57208 4.74463ZM5.1947 4.74463C5.21728 4.69549 5.28564 4.69549 5.30821 4.74463L5.44004 5.03151C5.44894 5.05085 5.46669 5.0644 5.48735 5.06763L5.78646 5.11422C5.83691 5.12209 5.85751 5.18499 5.82189 5.22234L5.60136 5.45344C5.58747 5.46799 5.58117 5.48843 5.58437 5.5085L5.63586 5.83109C5.64429 5.88387 5.58948 5.92338 5.54364 5.89751L5.28178 5.74969C5.2629 5.73903 5.24001 5.73903 5.22114 5.74969L4.95925 5.89751C4.91344 5.92338 4.85863 5.88387 4.86706 5.83109L4.91855 5.5085C4.92175 5.48843 4.91544 5.46799 4.90152 5.45344L4.68102 5.22234C4.64537 5.18499 4.666 5.12209 4.71646 5.11422L5.01556 5.06763C5.03623 5.0644 5.05398 5.05085 5.06288 5.03151L5.1947 4.74463ZM7.80152 4.75011C7.82409 4.70095 7.89251 4.70098 7.91506 4.75018L8.0465 5.0368C8.05538 5.05618 8.07313 5.06976 8.09382 5.07299L8.39331 5.11962C8.44376 5.12749 8.46439 5.19039 8.42874 5.22773L8.20824 5.4588C8.19435 5.47335 8.18805 5.49379 8.19125 5.51386L8.24273 5.83646C8.25117 5.88923 8.19636 5.92874 8.15051 5.90287L7.88863 5.75502C7.86978 5.74439 7.84689 5.74439 7.82801 5.75502L7.56578 5.9029C7.51997 5.92874 7.46513 5.8892 7.47362 5.83639L7.52536 5.51389C7.52859 5.49379 7.52229 5.47335 7.5084 5.45877L7.2879 5.2277C7.25225 5.19036 7.27288 5.12746 7.32333 5.11959L7.62244 5.07299C7.6431 5.06976 7.66085 5.05621 7.66976 5.03687L7.80152 4.75011Z" fill="white"/>
</svg>
