<svg width="25" height="25" viewBox="0 0 25 25" fill="none" xmlns="http://www.w3.org/2000/svg">
<path fill-rule="evenodd" clip-rule="evenodd" d="M21.4132 0.505733C21.3856 0.510922 20.7888 0.526325 20.0876 0.541726C17.9715 0.582241 15.0702 0.684028 14.4124 0.734922C14.2771 0.747813 14.2108 0.742623 14.1986 0.7227C14.1857 0.699597 14.1703 0.699597 14.1497 0.720189C14.1323 0.73308 13.8542 0.763382 13.5329 0.783975C13.2117 0.803897 12.8802 0.827167 12.7964 0.834869C12.7121 0.84257 12.1842 0.888274 11.6234 0.939168C10.912 1.00295 10.6037 1.02355 10.5958 1.00295C10.5836 0.964951 10.5397 0.967462 10.4915 1.01065C10.4632 1.03644 10.2519 1.06674 9.82585 1.11043C9.48198 1.14592 9.18396 1.17673 9.16339 1.17673C9.0817 1.17874 8.13579 1.31133 7.76884 1.37244C7.2107 1.46451 7.13402 1.4903 6.98852 1.648C6.77925 1.86748 6.49917 2.21137 6.21339 2.58852C6.06339 2.78741 5.78014 3.15707 5.58123 3.40934C4.88012 4.30683 4.05407 5.43155 3.88097 5.72453C3.76127 5.9286 3.76378 5.9718 3.90675 6.14239C4.02394 6.28268 4.16172 6.38766 4.58729 6.65737C4.76827 6.77457 5.06893 6.98383 5.25494 7.12161C5.59931 7.37658 6.9018 8.41691 6.91217 8.44203C6.91468 8.44973 6.85358 8.50581 6.77255 8.56441C6.69336 8.623 6.49447 8.79427 6.33342 8.94427C6.17304 9.09226 5.90266 9.33183 5.73474 9.47481C5.56599 9.6151 5.15851 9.96146 4.82954 10.2422C3.85803 11.0735 2.74942 11.9787 2.25236 12.3481C1.44122 12.9468 0.536534 13.6814 0.429046 13.8192C0.347852 13.926 0.34015 13.9518 0.35053 14.0536C0.36024 14.1251 0.33764 14.3034 0.291266 14.5377C0.20237 14.9891 0.0466756 15.9631 0.0111806 16.305C-0.0197912 16.5799 0.0136917 16.8174 0.11029 17.0086C0.181777 17.1482 0.375474 17.4007 0.607357 17.6582C0.722538 17.7856 1.05149 18.1604 1.33929 18.4894C1.62958 18.8184 1.97144 19.2034 2.10422 19.3437C2.23681 19.484 2.46349 19.7313 2.61148 19.8917C3.12141 20.4525 3.90172 21.2533 4.25316 21.5797C4.44954 21.7607 4.91879 22.1707 5.29868 22.4919C5.67854 22.8132 6.13758 23.2137 6.3184 23.3842C6.49938 23.553 6.79738 23.815 6.97833 23.9657C7.33559 24.2586 7.39167 24.31 7.46314 24.4118C7.51922 24.4962 7.65433 24.5238 7.76633 24.4781C7.97811 24.3912 8.72245 23.7132 10.527 21.9692C10.948 21.5618 11.4528 21.0821 11.6492 20.8986C12.5924 20.0269 14.3313 18.3647 14.5811 18.0943C15.6621 16.9245 15.8836 16.7024 16.1488 16.5241C16.3046 16.4173 16.3399 16.4017 16.3754 16.4302C16.8119 16.774 17.3115 17.2227 17.9843 17.8807C18.4408 18.3268 18.8997 18.7626 19.0067 18.8522C19.7001 19.4232 20.8395 20.1418 21.2451 20.2589C21.6481 20.3768 22.0789 20.2003 22.1601 19.8894C22.1755 19.8283 22.1961 19.6216 22.2039 19.4329C22.2193 19.0994 22.2239 19.0737 22.3745 18.6173C22.5734 18.0108 22.7976 17.4424 23.3306 16.1824C23.5702 15.6216 23.7974 15.0661 23.8354 14.9462C23.8741 14.8291 23.93 14.7145 23.9551 14.6913C24.1135 14.5639 24.0698 13.7301 23.7845 11.4664C23.5528 9.63536 23.453 8.73602 23.2746 6.89C23.0653 4.73068 22.6983 1.51046 22.6114 1.08745C22.5915 0.985664 22.5811 0.865293 22.5915 0.814399C22.6037 0.737722 22.594 0.72048 22.5175 0.661885C22.4693 0.623212 22.3616 0.577506 22.2779 0.556917C22.135 0.521425 21.5227 0.48543 21.4132 0.506023L21.4132 0.505733ZM22.2418 1.06657C22.2418 1.07427 22.1626 1.16886 22.0686 1.27584C21.8035 1.574 21.7191 1.68399 21.3012 2.26993C20.8525 2.89956 20.5795 3.31022 20.2279 3.88915L19.9782 4.30183L19.8223 4.30953C19.7386 4.31472 19.6671 4.31204 19.6671 4.30434C19.6671 4.29915 19.792 4.12855 19.942 3.92699C20.437 3.27224 21.4337 1.84417 21.742 1.35233L21.9126 1.07928L22.0323 1.0689C22.0986 1.06371 22.1726 1.05852 22.1984 1.05601C22.2215 1.0535 22.2416 1.05852 22.2416 1.06639L22.2418 1.06657ZM18.5965 1.11546C18.5965 1.11998 18.5044 1.24235 18.3924 1.38784C18.01 1.87771 17.0308 3.37405 16.4906 4.294L16.3141 4.59534H16.0521L16.5415 3.78473C16.8118 3.34106 17.1942 2.72635 17.3926 2.42047C17.7396 1.8874 18.1625 1.19147 18.1625 1.1508C18.1625 1.13272 18.2727 1.11732 18.5019 1.10761C18.5528 1.1051 18.5965 1.10761 18.5965 1.11531L18.5965 1.11546ZM18.9223 1.45145C18.5913 1.89761 17.9566 2.84601 17.6861 3.29469C17.5741 3.48337 17.3752 3.84315 17.2476 4.09039L17.0126 4.53907L16.842 4.54879C16.7481 4.55397 16.6662 4.55649 16.661 4.5513C16.6429 4.54159 17.2551 3.56239 18.1012 2.24716C18.2976 1.94582 18.53 1.56345 18.6214 1.40055L18.7875 1.10238H19.1821L18.9219 1.45127L18.9223 1.45145ZM19.6872 1.14827C19.6698 1.17137 19.5501 1.32925 19.4225 1.49984C18.892 2.20348 18.234 3.22586 17.6784 4.20508C17.5483 4.43678 17.5053 4.49286 17.4589 4.49286C17.4286 4.49286 17.3856 4.50056 17.3623 4.50826C17.3392 4.51596 17.3218 4.51345 17.3218 4.49788C17.3218 4.45988 17.8568 3.57009 18.3976 2.70805C18.6578 2.29537 18.9662 1.79063 19.0807 1.58654C19.1979 1.38246 19.3074 1.19127 19.328 1.15846C19.3583 1.11024 19.384 1.10238 19.5424 1.10238C19.7078 1.10238 19.7182 1.10489 19.6872 1.14808L19.6872 1.14827ZM20.067 1.41345C19.7078 1.88223 19.2539 2.54015 19.0196 2.9329C18.9024 3.12408 18.632 3.54967 18.4175 3.87342C18.0609 4.41416 18.0203 4.46756 17.954 4.46756C17.9153 4.46756 17.8825 4.46237 17.8825 4.45467C17.8825 4.44697 17.9739 4.304 18.0841 4.13859C18.5578 3.43229 19.4934 1.9155 19.7585 1.42881L19.9343 1.10235H20.307L20.0669 1.41323L20.067 1.41345ZM20.8603 1.14559C20.2558 1.84405 19.6571 2.69851 18.9662 3.83545C18.6372 4.38073 18.6114 4.41686 18.5399 4.41686C18.4865 4.41686 18.4711 4.40648 18.4865 4.38337C18.4994 4.36797 18.6295 4.16892 18.7775 3.94494C18.925 3.72093 19.1419 3.37638 19.2591 3.18001C19.3763 2.98363 19.6286 2.57095 19.82 2.2619C20.0138 1.95353 20.2306 1.59173 20.3048 1.45917C20.5263 1.0639 20.4831 1.10258 20.7046 1.10258C20.888 1.10258 20.8957 1.10509 20.8604 1.14577L20.8603 1.14559ZM21.4874 1.15848C20.8552 1.87502 20.3781 2.52458 19.4401 3.96032C19.198 4.335 19.1749 4.36011 19.0912 4.37049C19.0448 4.37568 19.0043 4.37568 19.0043 4.373C19.0043 4.36781 19.2136 4.05692 19.4685 3.68226C19.9604 2.96053 20.9138 1.52028 21.0767 1.25761L21.1713 1.10241H21.5357L21.4875 1.1585L21.4874 1.15848ZM17.3066 1.15848C17.2937 1.17656 17.143 1.39805 16.9672 1.65036C16.5004 2.32319 16.2661 2.68817 15.9448 3.24382C15.7871 3.51688 15.5754 3.87864 15.4736 4.04655C15.3738 4.21531 15.2464 4.42893 15.1955 4.52369L15.0989 4.6968H14.851L15.0118 4.44702C15.4123 3.82776 16.5899 1.78815 16.8268 1.30133C16.9035 1.14295 16.9085 1.14044 17.1892 1.13257C17.291 1.12738 17.3193 1.13508 17.3064 1.15835L17.3066 1.15848ZM17.8061 1.41345C17.5794 1.69354 17.1127 2.36957 16.8321 2.8234C16.7536 2.94829 16.6004 3.19556 16.4909 3.37133C16.3807 3.54712 16.1671 3.89669 16.0165 4.14899C15.8633 4.40129 15.7312 4.61507 15.721 4.62279C15.6927 4.65108 15.4101 4.66397 15.4101 4.64087C15.4101 4.62798 15.4429 4.56938 15.4816 4.51079C15.5221 4.45219 15.759 4.06464 16.0089 3.65196C16.2587 3.23861 16.6669 2.57815 16.9167 2.18338C17.1639 1.79063 17.411 1.39287 17.462 1.29875L17.5565 1.12749H18.0357L17.8065 1.41326L17.8061 1.41345ZM16.7097 1.16367C16.7097 1.17137 16.6409 1.27048 16.5597 1.38516C16.2256 1.85193 15.0224 3.83043 14.7165 4.41685L14.5477 4.73561L14.3873 4.75034C14.2978 4.75804 14.2213 4.76072 14.2161 4.75804C14.2109 4.75553 14.2799 4.64085 14.3693 4.50056C14.4588 4.36278 14.6294 4.0904 14.7439 3.89403C14.8611 3.69766 14.9912 3.49107 15.0297 3.43245C15.0908 3.34038 15.3967 2.8408 16.1969 1.51524L16.4164 1.15346H16.5619C16.6431 1.15346 16.7094 1.15865 16.7094 1.16384L16.7097 1.16367ZM15.9475 1.44376C15.7312 1.72702 15.4608 2.12747 15.1369 2.63474C14.9559 2.91734 14.7364 3.29989 14.1043 4.4316L13.9054 4.79154L13.7348 4.80627C13.6402 4.81665 13.5617 4.81917 13.5565 4.81398C13.5488 4.80627 13.9544 4.1309 14.678 2.93795C15.2336 2.02255 15.5065 1.56598 15.6108 1.37479L15.7183 1.17908H16.1491L15.9475 1.44376ZM15.5373 1.21708C15.5373 1.22227 15.4478 1.35234 15.3384 1.50235C14.5961 2.52207 13.7882 3.77434 13.3832 4.52367L13.2068 4.84745L13.0767 4.86285C12.8018 4.89834 12.7993 4.91374 13.1482 4.3909C13.3213 4.13074 13.5667 3.75355 13.6941 3.54946C14.1807 2.76731 14.8208 1.7166 14.9611 1.46416L15.1059 1.204H15.3228C15.44 1.204 15.5373 1.20919 15.5373 1.21689L15.5373 1.21708ZM14.645 1.46937C14.2498 2.00509 13.6658 2.92753 12.937 4.17392C12.8045 4.39859 12.6486 4.65873 12.5875 4.75268C12.4857 4.91356 12.4703 4.92646 12.3886 4.92646C12.3404 4.92646 12.2997 4.91875 12.2997 4.91105C12.2997 4.90067 12.3506 4.81379 12.4117 4.71217C12.4728 4.61239 12.6384 4.33481 12.7787 4.09792C12.9165 3.85785 13.1739 3.4296 13.3497 3.14181C13.7604 2.46581 14.0225 2.01194 14.242 1.59407C14.4384 1.2194 14.4049 1.24702 14.714 1.2348L14.8235 1.22961L14.6452 1.46918L14.645 1.46937ZM14.1326 1.47707C13.6452 2.17051 13.2731 2.76915 12.1767 4.63819L11.9932 4.94657L11.8278 4.96465C11.7357 4.97503 11.6547 4.97754 11.6468 4.96984C11.6391 4.96465 11.7106 4.83976 11.8045 4.69427C11.8991 4.54879 12.1844 4.10781 12.4393 3.71574C12.8578 3.06803 13.5588 1.93109 13.8267 1.46685C13.9285 1.29106 13.9362 1.28337 14.0405 1.27299C14.3185 1.24721 14.3108 1.22728 14.1325 1.47706L14.1326 1.47707ZM13.6504 1.3187C13.6504 1.32389 13.5841 1.42618 13.5029 1.54086C12.9036 2.39969 11.6796 4.30923 11.3584 4.89064C11.3023 4.99042 11.2895 4.99745 11.1672 5.01034C11.0957 5.01804 11.0319 5.01804 11.0275 5.01285C11.0224 5.00766 11.1549 4.80174 11.323 4.55127C11.6495 4.06963 13.0794 1.8621 13.3265 1.46164C13.4185 1.30845 13.4237 1.30644 13.5357 1.30644C13.5995 1.30644 13.6504 1.31096 13.6504 1.31866V1.3187ZM13.0819 1.46418C12.9088 1.67077 12.5719 2.13251 12.1792 2.70805C11.876 3.1542 11.5984 3.58814 10.8362 4.81915C10.7518 4.95693 10.6855 5.03612 10.6475 5.04633C10.614 5.05403 10.5837 5.05671 10.5787 5.04884C10.5735 5.04365 10.609 4.98254 10.6572 4.91106C10.7061 4.84225 10.8638 4.59749 11.0068 4.36513C11.1471 4.13344 11.402 3.72509 11.5726 3.46062C11.9473 2.87415 12.6227 1.75448 12.7199 1.56132C12.8268 1.34435 12.8448 1.33146 13.0308 1.33146H13.1962L13.0816 1.46405L13.0819 1.46418ZM12.4445 1.52796C12.0801 2.0024 11.2257 3.36867 10.5427 4.57187L10.2601 5.07142L10.0483 5.08682C9.93364 5.09453 9.83654 5.0972 9.83135 5.09201C9.82616 5.08682 9.89246 4.98771 9.97683 4.86734C10.1603 4.61053 11.3687 2.7544 11.8709 1.956L12.2257 1.39516L12.3834 1.38227C12.4703 1.37457 12.547 1.37189 12.5521 1.37457C12.5573 1.37708 12.5083 1.44605 12.4447 1.52775L12.4445 1.52796ZM22.265 1.72183L22.2849 2.0431L22.0532 2.27998C21.6863 2.65734 21.1229 3.46077 20.6742 4.24558C20.4779 4.59514 20.4753 4.59782 20.4444 4.52634C20.427 4.48766 20.3883 4.43945 20.3607 4.42405C20.3098 4.39375 20.3195 4.37315 20.6181 3.93469C21.4338 2.73398 21.8111 2.14486 22.0919 1.6324C22.1652 1.4978 22.2315 1.38781 22.2342 1.39284C22.2394 1.39535 22.2523 1.54351 22.2652 1.72181L22.265 1.72183ZM11.9782 1.43856C11.9653 1.45664 11.8965 1.54604 11.8199 1.63494C11.5296 1.97931 10.9732 2.76935 10.7061 3.21803C10.652 3.3101 10.4839 3.57797 10.3359 3.81735C10.1859 4.05424 9.94131 4.44951 9.78797 4.68909L9.51491 5.13005H9.31402L9.36223 5.05856C9.67061 4.62278 11.0419 2.34878 11.3607 1.74744L11.5113 1.46166L11.6819 1.44626C11.8326 1.43337 11.8937 1.42634 11.9756 1.41077C11.9878 1.41077 11.9878 1.42366 11.9781 1.43839L11.9782 1.43856ZM11.2513 1.53315C10.8283 2.11962 9.56395 4.1741 9.2144 4.83725C9.12483 5.00533 9.0515 5.14562 9.0515 5.14813C9.04899 5.15064 8.95173 5.16102 8.83453 5.17124C8.64067 5.18597 8.62008 5.18413 8.63565 5.14545C8.65105 5.10745 8.99291 4.56404 9.46936 3.81737C9.73455 3.40403 10.5201 2.12229 10.7158 1.78547C10.8922 1.4848 10.8612 1.50472 11.1877 1.48999C11.2798 1.4848 11.285 1.48748 11.2515 1.53318L11.2513 1.53315ZM10.6011 1.56596C10.5882 1.58404 10.5122 1.68633 10.428 1.79063C10.2341 2.0379 9.56142 3.05242 9.29107 3.51147C9.17639 3.70784 8.91639 4.13072 8.7175 4.45469C8.51861 4.77596 8.33763 5.07664 8.31453 5.12233C8.29193 5.16619 8.25075 5.20922 8.22832 5.21441C8.15164 5.23751 7.78735 5.26262 7.78735 5.24789C7.78735 5.24019 8.01905 4.89833 8.29912 4.4875C8.83219 3.71306 9.72968 2.3719 10.0509 1.87501C10.2421 1.57634 10.2498 1.57115 10.4514 1.55374C10.5075 1.54855 10.5686 1.54336 10.586 1.54085C10.6066 1.53834 10.6118 1.54855 10.6014 1.56596L10.6011 1.56596ZM9.76735 1.85961C9.39 2.35916 8.54924 3.57543 8.24538 4.05943C7.56484 5.14292 7.49853 5.24539 7.46056 5.27552C7.42189 5.30649 7.17478 5.32374 7.17478 5.29611C7.17478 5.27301 7.62094 4.61038 7.85263 4.28912C8.0927 3.95245 9.03341 2.49928 9.34177 1.98435L9.54836 1.63997L9.66806 1.62959C9.73436 1.6244 9.82577 1.61988 9.87214 1.61737L9.95585 1.61218L9.76717 1.85945L9.76735 1.85961ZM9.05398 2.03791C8.41145 2.88971 7.38655 4.40898 6.98608 5.11014L6.8483 5.34703L6.71052 5.36243C6.32363 5.40814 6.27727 5.41065 6.29533 5.36762C6.31593 5.31154 6.83809 4.60021 7.19282 4.14634C7.5469 3.69247 8.26865 2.68047 8.6227 2.13454C8.77069 1.91054 8.89307 1.72438 8.89307 1.72187C8.90077 1.71416 9.30122 1.67365 9.3116 1.67867C9.31612 1.68118 9.20145 1.84408 9.05412 2.03794L9.05398 2.03791ZM8.50287 1.89762C7.9827 2.55304 7.14967 3.70537 6.52437 4.63316L5.99452 5.42367L5.85155 5.43907C5.77236 5.44878 5.62487 5.46168 5.52258 5.47189L5.3339 5.48729L5.38212 5.42869C5.4079 5.39521 5.68079 5.06373 5.99186 4.69407C6.5803 3.98777 7.36066 2.98862 7.90389 2.24447L8.22515 1.80351L8.40864 1.77772C8.50775 1.76232 8.59463 1.75194 8.59982 1.75713C8.60501 1.75964 8.56115 1.82343 8.50256 1.89742L8.50287 1.89762ZM7.71805 2.14221C7.12121 2.79245 6.40467 3.65445 5.88703 4.34018C5.70103 4.58477 5.42348 4.95176 5.26777 5.15581L4.9825 5.52529L4.77843 5.55359C4.58975 5.5787 4.57686 5.57619 4.60783 5.53551C4.62256 5.5124 4.77072 5.32892 4.93362 5.12735C5.0945 4.92645 5.41577 4.5183 5.64763 4.22532C5.87749 3.92916 6.26256 3.44766 6.50197 3.15404C6.93273 2.62419 7.25901 2.18571 7.33821 2.02735C7.39162 1.92305 7.39932 1.91786 7.62851 1.87935C8.03666 1.81105 8.03147 1.80084 7.71807 2.14202L7.71805 2.14221ZM22.3189 2.53228C22.3189 2.69836 22.3112 2.73385 22.2655 2.77436C22.0589 2.96036 21.1639 4.32209 20.8375 4.94405C20.6386 5.32642 20.6334 5.33161 20.6006 5.08953L20.5825 4.95945L20.8271 4.57958C20.9624 4.37032 21.1536 4.08003 21.2533 3.93187C21.3525 3.78639 21.5185 3.52958 21.6178 3.3583C21.7196 3.19022 21.9011 2.89475 22.0234 2.70356C22.1432 2.51237 22.2501 2.33592 22.2603 2.31348C22.2906 2.23179 22.3189 2.33341 22.3189 2.53246L22.3189 2.53228ZM22.3723 3.1671L22.38 3.33317L22.2094 3.54428C21.9029 3.92163 21.2405 4.94137 20.8581 5.62255C20.7789 5.76485 20.7101 5.85944 20.6997 5.84404C20.6823 5.81374 20.9572 5.29109 21.2611 4.78631C21.6228 4.17926 22.1353 3.30488 22.2319 3.12406C22.293 3.01206 22.3368 2.95346 22.3491 2.97087C22.3568 2.98896 22.3697 3.07835 22.3722 3.16725L22.3723 3.1671ZM22.4515 3.9931C22.4567 4.14896 22.4567 4.15147 22.3035 4.36526C21.9648 4.84741 21.2637 5.99472 21.0089 6.48137C20.81 6.86375 20.8222 6.86375 20.7791 6.51737C20.7636 6.39432 20.7687 6.37959 20.8634 6.2624C21.0211 6.06083 21.5619 5.21169 21.7481 4.86985C21.842 4.69675 22.0004 4.41397 22.1021 4.2377C22.2044 4.06191 22.3139 3.86822 22.3449 3.80445L22.4035 3.68977L22.4234 3.76125C22.4338 3.80177 22.4465 3.90674 22.4517 3.99295L22.4515 3.9931ZM22.5203 4.70711C22.5228 4.79149 22.4669 4.90349 22.1888 5.39537C22.0028 5.71915 21.7832 6.08611 21.697 6.2137C21.6101 6.33859 21.4033 6.69851 21.2354 7.0094C20.9141 7.60556 20.8987 7.61846 20.8935 7.35059C20.891 7.25148 20.9218 7.19021 21.1949 6.75191C21.3603 6.48404 21.605 6.06884 21.735 5.83132C21.8676 5.59175 22.0897 5.19398 22.2293 4.94668C22.4972 4.4779 22.5151 4.46252 22.5203 4.70712L22.5203 4.70711ZM20.0499 4.96978C20.0499 5.44105 20.1311 6.46347 20.2309 7.28947C20.256 7.51666 20.3198 8.11299 20.3687 8.61572C20.4169 9.11797 20.5547 10.2981 20.6719 11.2386C20.8785 12.8578 20.9371 13.2911 21.118 14.5375C21.2024 15.1033 21.268 15.7486 21.3497 16.7303C21.447 17.9181 21.6099 19.3563 21.6658 19.5475C21.7097 19.6898 21.7018 19.7129 21.6124 19.7129C21.5081 19.7129 21.268 19.5777 20.7253 19.2082C19.6237 18.4613 19.3307 18.2161 18.1198 17.0308C17.5841 16.508 17.4927 16.4294 17.1431 16.1971C16.7201 15.917 16.547 15.8249 16.3558 15.7844C16.1922 15.7509 16.0906 15.7921 16.0777 15.8964C16.0725 15.9473 16.0526 15.9704 16.001 15.9808C15.889 16.0084 15.685 16.1185 15.5626 16.2177C15.356 16.3831 15.0553 16.6819 14.4436 17.3263C13.8649 17.9385 12.3859 19.3684 11.3205 20.3503C11.0398 20.6104 10.38 21.2426 9.85966 21.7576C8.87778 22.7239 7.74354 23.8049 7.71324 23.8049C7.70286 23.8049 7.55487 23.6465 7.38427 23.4553C7.01479 23.0401 6.70373 22.7517 5.88741 22.0712C4.62293 21.0153 4.04936 20.4675 2.734 19.0498C2.11205 18.3797 1.07947 17.2091 0.859822 16.9265C0.750333 16.7862 0.745143 16.7733 0.778628 16.7121C0.870036 16.539 1.34967 16.1591 2.95603 14.9835C5.80609 12.8957 6.90968 12.0163 8.10585 10.8715C8.31696 10.6699 8.57712 10.4099 8.6891 10.2979C8.8751 10.1016 8.89569 10.0887 8.99564 10.0887H9.09994L9.10764 9.97917C9.12505 9.7242 9.01556 9.55879 8.42392 8.94389C8.00087 8.50811 7.70035 8.24025 6.91485 7.61062C6.13269 6.981 5.61505 6.5909 5.19131 6.31082C5.03361 6.20586 4.90604 6.11696 4.91123 6.11194C4.92412 6.09905 5.45651 6.05083 6.21874 5.99726C6.6115 5.96629 7.16196 5.92326 7.44521 5.89497C8.38843 5.80607 9.16605 5.74497 10.54 5.65289C11.9242 5.56148 12.1129 5.54608 15.0144 5.2963C16.9137 5.13274 18.0049 5.04652 18.8766 4.99043C19.4219 4.95444 19.937 4.89317 19.9705 4.86035C19.9757 4.85516 19.9956 4.84997 20.0162 4.84997C20.0393 4.84997 20.0497 4.88797 20.0497 4.96967L20.0499 4.96978ZM22.3927 5.7675C22.0586 6.34891 21.373 7.7691 21.0923 8.45483L21.0311 8.60801L21.0131 8.48061C20.9725 8.17407 20.9776 8.15415 21.1791 7.83555C21.6201 7.13709 21.9362 6.53507 22.3927 5.51269C22.459 5.3652 22.5253 5.22239 22.5382 5.19393C22.5556 5.15593 22.5608 5.1792 22.5685 5.29622C22.5762 5.44371 22.571 5.45912 22.3927 5.76749L22.3927 5.7675ZM22.6606 6.20594L22.678 6.4435L22.4945 6.74937C22.181 7.26953 21.597 8.50569 21.2069 9.46952C21.1818 9.53833 21.1509 9.5919 21.1432 9.5919C21.1334 9.5919 21.118 9.50752 21.1103 9.40591L21.0923 9.21991L21.5918 8.20272C22.0991 7.1701 22.4056 6.50246 22.5382 6.14502C22.5762 6.03821 22.6167 5.95384 22.6271 5.96154C22.6375 5.96673 22.6529 6.07622 22.6606 6.20613L22.6606 6.20594ZM22.7495 7.1498L22.7778 7.49618L22.6375 7.70545C22.5608 7.82013 22.4359 8.03693 22.3594 8.18709C22.2216 8.45746 21.592 9.84432 21.3956 10.3059C21.3395 10.4385 21.2861 10.5582 21.2732 10.5686C21.2635 10.5815 21.2456 10.5048 21.2378 10.4025C21.2197 10.2138 21.2197 10.2113 21.3704 9.83146C21.4547 9.62286 21.6124 9.25523 21.7192 9.01831C22.3007 7.73844 22.4996 7.28188 22.589 7.02507C22.645 6.86921 22.6958 6.7547 22.7036 6.7701C22.7113 6.78751 22.7313 6.9561 22.7493 7.14996L22.7495 7.1498ZM22.8312 8.02153C22.8543 8.24821 22.857 8.3351 22.8337 8.37042C22.8183 8.3962 22.714 8.5976 22.602 8.8191C22.3418 9.34193 22.0613 9.9716 21.7072 10.8413C21.5488 11.2257 21.4135 11.5599 21.4058 11.5804C21.3859 11.6287 21.3549 11.4375 21.3524 11.2567C21.3499 11.1447 21.3859 11.0422 21.5893 10.5684C21.7219 10.2625 21.888 9.89241 21.957 9.74489C22.0818 9.47971 22.6169 8.17205 22.7269 7.863C22.7597 7.77678 22.788 7.7078 22.7907 7.71048C22.7952 7.71567 22.8133 7.85345 22.8312 8.02137L22.8312 8.02153ZM22.9201 8.83986L22.9432 9.08194L22.8158 9.34462C22.5789 9.82625 22.1173 10.9688 21.6762 12.167C21.6074 12.3557 21.5409 12.5263 21.5307 12.5444C21.5185 12.567 21.4979 12.4833 21.4798 12.3351L21.447 12.0878L21.6459 11.6107C21.7527 11.3487 21.9337 10.9329 22.0457 10.6881C22.2955 10.1447 22.6701 9.21434 22.7828 8.86029C22.8285 8.71481 22.8742 8.59762 22.8819 8.59762C22.8896 8.59762 22.9077 8.70711 22.9199 8.8397L22.9201 8.83986ZM7.21562 9.00795C7.14682 9.39032 7.05976 10.591 7.08822 10.7926C7.10044 10.8899 7.09525 10.9123 7.04185 10.9639L6.97806 11.0225L6.96266 10.0458L6.94793 9.06908L7.09274 8.92426C7.17193 8.84257 7.23822 8.78129 7.24341 8.78648C7.2486 8.79167 7.23571 8.89078 7.21579 9.00797L7.21562 9.00795ZM7.51111 9.5333C7.48014 9.82427 7.44481 10.1964 7.42941 10.3568C7.41133 10.548 7.3889 10.6627 7.36563 10.6883C7.31741 10.734 7.31741 10.7797 7.35793 9.68649L7.3889 8.82449L7.47779 8.91406L7.56468 9.00295L7.51127 9.53349L7.51111 9.5333ZM7.82468 9.34731C7.76608 9.60998 7.74298 10.125 7.78868 10.2087C7.81446 10.255 7.80408 10.275 7.72306 10.3541L7.62847 10.4462L7.64387 10.1681C7.65157 10.0156 7.65927 9.71163 7.65927 9.49279L7.66179 9.09485L7.748 9.19396C7.8066 9.26025 7.83238 9.31182 7.82468 9.34714L7.82468 9.34731ZM6.81267 9.32923C6.80229 9.41092 6.78689 9.86495 6.77668 10.3387C6.76445 10.9691 6.75156 11.2111 6.72578 11.244C6.7077 11.2671 6.68778 11.2826 6.68259 11.2749C6.67489 11.2672 6.65162 10.9125 6.62918 10.4844C6.60608 10.0563 6.5803 9.63329 6.5731 9.54119L6.5577 9.37578L6.68008 9.28119C6.74889 9.2303 6.81016 9.18727 6.82037 9.18727C6.82807 9.18476 6.82556 9.25106 6.81267 9.32958V9.32923ZM8.30366 9.72449L8.37514 9.78309L8.21476 9.92087L8.05387 10.0586L8.03914 9.93376C8.02876 9.86495 8.01604 9.73219 8.00566 9.63509L7.99277 9.46198L8.11247 9.56427C8.17877 9.62035 8.26565 9.69167 8.30366 9.72465V9.72449ZM6.37672 11.5374C6.34842 11.5625 6.32331 11.5779 6.32063 11.5754C6.31544 11.5702 6.30004 11.3205 6.28464 11.0198C6.25434 10.479 6.22085 10.0225 6.19072 9.79331C6.17783 9.67863 6.17783 9.67361 6.28732 9.59442L6.39681 9.51273L6.4097 10.5023C6.4251 11.4584 6.42259 11.4938 6.37688 11.5376L6.37672 11.5374ZM23.0455 9.87767L23.0887 10.2266L22.9991 10.3746C22.7441 10.7976 22.2342 11.9499 21.7907 13.1126C21.7122 13.3219 21.6432 13.4873 21.6407 13.4848C21.6355 13.4823 21.6201 13.4004 21.6047 13.309L21.5796 13.1377L21.7857 12.5821C21.9009 12.2762 22.1045 11.7613 22.2422 11.44C22.4644 10.9122 22.8744 9.85944 22.9562 9.60966C22.9743 9.55625 22.9891 9.51507 22.9943 9.52009C22.9994 9.52528 23.0225 9.68617 23.0458 9.87735L23.0455 9.87767ZM6.03471 11.8227C5.99152 11.8562 5.98901 11.8458 5.9736 11.6874C5.96322 11.5935 5.95552 11.3333 5.95301 11.1087C5.94782 10.8847 5.93828 10.5229 5.92539 10.3059L5.9048 9.91067L5.9736 9.84957L6.0399 9.78846L6.06049 10.7876C6.08042 11.736 6.0779 11.7925 6.03471 11.8228L6.03471 11.8227ZM5.81322 10.0432C5.80552 10.0837 5.79263 10.5455 5.78493 11.0708L5.77204 12.027L5.67293 12.1113L5.57315 12.195L5.55842 12.0347C5.55071 11.9451 5.53263 11.6265 5.51723 11.3258C5.50183 11.0252 5.47923 10.6704 5.46383 10.5378C5.44842 10.393 5.44575 10.2905 5.46132 10.2751C5.49999 10.2371 5.81087 9.97696 5.81858 9.97445C5.8231 9.97445 5.82059 10.0054 5.81339 10.0433L5.81322 10.0432ZM5.31551 11.9985L5.32321 12.3783L5.23699 12.4523C5.18811 12.491 5.14241 12.5238 5.13203 12.5238C5.12432 12.5238 5.10942 12.3023 5.10172 12.0319C5.09402 11.7641 5.06824 11.3437 5.04564 11.0984C5.02254 10.8564 5.00697 10.6529 5.01216 10.6503C5.01735 10.6451 5.07845 10.5937 5.14742 10.5376L5.27483 10.4333L5.29023 11.025C5.30061 11.3514 5.31015 11.7899 5.31534 11.9985L5.31551 11.9985ZM23.18 10.8873L23.211 11.1011L23.1042 11.2826C22.8003 11.8048 22.2653 13.1283 21.8983 14.2704L21.7908 14.6014L21.758 14.3824C21.7297 14.1861 21.7297 14.1501 21.7709 14.0252C21.8906 13.6582 22.2473 12.7331 22.5686 11.9631C22.7625 11.4939 22.9665 10.9968 23.0199 10.859C23.0785 10.7142 23.1267 10.6247 23.1346 10.6427C23.145 10.6601 23.1656 10.7728 23.1803 10.8873L23.18 10.8873ZM4.87964 12.7125C4.85704 12.7356 4.84415 12.5953 4.80045 11.9244C4.78823 11.6849 4.75726 11.3611 4.73734 11.2009L4.69867 10.9099L4.78304 10.8416L4.86675 10.7701L4.88483 11.7312C4.89253 12.2586 4.89253 12.6996 4.87964 12.7125L4.87964 12.7125ZM4.61697 12.6358C4.60994 13.1231 4.56608 13.0311 4.49978 12.3783C4.46697 12.057 4.42059 11.6649 4.39548 11.5041L4.34978 11.2111L4.46697 11.1036L4.58667 10.9968L4.60475 11.6652C4.61697 12.0321 4.62216 12.4706 4.61697 12.636L4.61697 12.6358ZM4.34459 12.4955C4.37489 12.8245 4.38778 13.1 4.3774 13.1104C4.36702 13.1181 4.30859 13.1638 4.25 13.207L4.1457 13.2887L4.13029 13.2199C4.1251 13.1794 4.1097 13.021 4.102 12.8683C4.09229 12.7125 4.064 12.3636 4.03638 12.0907C4.0106 11.8176 3.98749 11.5679 3.98749 11.5377C3.98749 11.5017 4.03386 11.4457 4.12276 11.3768L4.25536 11.27L4.27344 11.5861C4.28382 11.7567 4.31663 12.1675 4.34492 12.4959L4.34459 12.4955ZM23.2925 11.672L23.3331 11.9656L23.1471 12.3532C22.6932 13.3016 22.4106 13.9949 21.9817 15.2111L21.8928 15.4634L21.8747 15.2903C21.8567 15.1242 21.8618 15.1016 22.015 14.6677C22.0987 14.4205 22.2519 14.013 22.3485 13.7607C22.8101 12.5722 23.0348 11.976 23.1236 11.6902C23.1797 11.5171 23.2286 11.3767 23.2383 11.3767C23.246 11.3767 23.2693 11.5093 23.2924 11.6722L23.2925 11.672ZM3.85986 11.9044C3.85986 12.0698 3.87275 12.4858 3.89083 12.827L3.91846 13.4496L3.83224 13.5204C3.78336 13.5616 3.73765 13.5944 3.72727 13.5944C3.71505 13.5944 3.70735 13.3677 3.70735 13.0896C3.70484 12.8147 3.69446 12.3989 3.68157 12.167L3.65847 11.7485L3.74016 11.677C3.78586 11.639 3.82973 11.6082 3.84245 11.6055C3.85216 11.6055 3.85986 11.7408 3.85986 11.9042L3.85986 11.9044ZM3.51097 12.8096C3.50578 13.6123 3.49808 13.763 3.46527 13.7958C3.44468 13.8164 3.42141 13.8268 3.41371 13.8216C3.40333 13.8087 3.34992 12.3478 3.34992 12.0646C3.34992 11.9931 3.368 11.9655 3.4343 11.9171C3.47749 11.8861 3.516 11.8605 3.516 11.8605C3.516 11.8605 3.51348 12.2867 3.51081 12.8094L3.51097 12.8096ZM3.2252 12.5365C3.21046 12.7838 3.19757 13.2143 3.19757 13.4926V13.9974L3.13379 14.0379C3.1003 14.061 3.06498 14.0791 3.05711 14.0791C3.04941 14.0791 3.04422 13.6632 3.04422 13.1532V12.2306L3.13881 12.1489C3.19221 12.1058 3.23792 12.0723 3.24311 12.0775C3.24829 12.08 3.23792 12.2892 3.22502 12.5365L3.2252 12.5365ZM23.2875 13.013C22.8793 13.8164 22.4891 14.7442 22.1015 15.8354C22.0377 16.0085 21.9818 16.1566 21.9741 16.1643C21.9386 16.1998 21.9664 15.9526 22.0128 15.8379C22.0404 15.7691 22.1196 15.5469 22.1885 15.346C22.2574 15.1471 22.484 14.558 22.6908 14.0403C22.8949 13.5202 23.1266 12.9317 23.2033 12.7276C23.2799 12.5236 23.3487 12.3401 23.3564 12.3195C23.3661 12.2996 23.3867 12.3781 23.4047 12.4978L23.4375 12.7147L23.2875 13.013ZM2.89862 12.6691C2.88388 12.863 2.85542 13.3012 2.84002 13.6451C2.80721 14.3057 2.8124 14.2851 2.67713 14.3616C2.62891 14.3899 2.62891 14.3797 2.64364 13.949C2.65402 13.7037 2.66173 13.2858 2.66173 13.018V12.5313L2.79699 12.427C2.86848 12.3677 2.92959 12.3195 2.92959 12.3195C2.92959 12.3195 2.9167 12.4779 2.89862 12.6691L2.89862 12.6691ZM2.52127 12.72C2.51356 12.7605 2.49866 13.0438 2.48326 13.3521C2.42986 14.5348 2.42718 14.5477 2.38415 14.5838C2.24637 14.6933 2.25407 14.7492 2.26629 13.7449L2.27918 12.8243L2.38599 12.7381C2.51859 12.6331 2.53667 12.6306 2.52126 12.72L2.52127 12.72ZM2.02171 13.801C2.00631 14.2266 1.99911 14.6347 2.00631 14.7062C2.01669 14.813 2.0115 14.8485 1.97601 14.8793C1.93282 14.9173 1.93282 14.8999 1.94253 14.52C1.94772 14.2979 1.94001 13.8929 1.92511 13.62L1.89933 13.123L1.96563 13.0644C2.00162 13.0309 2.03444 13.0103 2.04231 13.0155C2.0475 13.0232 2.0398 13.3754 2.02172 13.801L2.02171 13.801ZM23.5167 13.5306C23.5219 13.6453 23.4986 13.7064 23.2952 14.1171C22.9199 14.8741 22.7518 15.2798 22.204 16.7303C22.1377 16.9061 22.0739 17.0592 22.0637 17.0721C22.0508 17.0818 22.038 17.0232 22.0328 16.9369C22.0257 16.7991 22.0405 16.743 22.1628 16.4321C22.3567 15.9319 22.826 14.7622 22.9818 14.3848C23.0551 14.209 23.1827 13.8949 23.2671 13.6863C23.3515 13.4771 23.4325 13.2757 23.4454 13.2402C23.4737 13.1764 23.4764 13.1764 23.4936 13.2884C23.504 13.3522 23.5142 13.459 23.5167 13.5305L23.5167 13.5306ZM1.71871 13.6329C1.70582 13.8415 1.6956 14.2573 1.6956 14.5555L1.69309 15.0938L1.58628 15.1723C1.4716 15.2567 1.4331 15.2696 1.45101 15.2187C1.4716 15.1575 1.56569 13.8519 1.56569 13.6123C1.56569 13.3728 1.56569 13.3703 1.64488 13.3014C1.68807 13.2655 1.72926 13.2377 1.73177 13.2429C1.73696 13.248 1.72926 13.4212 1.71888 13.6329L1.71871 13.6329ZM1.37684 13.5994C1.33884 13.8415 1.18298 15.2361 1.18298 15.3435C1.18298 15.4426 1.17076 15.4684 1.08906 15.5451C1.03566 15.5933 0.982251 15.634 0.969359 15.634C0.958979 15.634 0.956468 15.5729 0.96417 15.4987C1.02528 15.0094 1.10714 14.1094 1.10714 13.9388C1.10714 13.8268 1.11685 13.7218 1.12706 13.7037C1.14514 13.6761 1.36462 13.4976 1.38454 13.4951C1.38973 13.4926 1.38706 13.5408 1.37684 13.5994L1.37684 13.5994ZM0.979572 13.8415C0.979572 13.8544 0.96417 13.949 0.943578 14.0533C0.922986 14.1576 0.854682 14.6114 0.788385 15.0603L0.670525 15.8759L0.512821 16.0343C0.425935 16.1232 0.347415 16.1947 0.334523 16.1947C0.324143 16.1947 0.319121 16.1843 0.326822 16.1747C0.334523 16.1618 0.385417 15.9198 0.444013 15.6313C0.500097 15.346 0.586983 14.9508 0.635198 14.7544C0.736986 14.334 0.778168 14.0912 0.757579 14.0352C0.747199 14.0101 0.77566 13.9664 0.841958 13.9103C0.941067 13.8266 0.979738 13.806 0.979738 13.8415L0.979572 13.8415ZM23.6009 14.1325C23.6337 14.2902 23.6337 14.2979 23.5674 14.4357C23.5294 14.5123 23.4656 14.6501 23.4278 14.7415C23.3891 14.8336 23.2617 15.1137 23.147 15.366C22.9249 15.8456 22.3977 17.1126 22.2264 17.5717L22.1273 17.8388L22.1092 17.7371C22.0712 17.5181 22.0867 17.464 22.3925 16.7173C22.5606 16.3099 22.7389 15.8861 22.7905 15.7741C22.9251 15.4838 23.366 14.4381 23.4658 14.173C23.5115 14.0506 23.5527 13.954 23.5572 13.9592C23.5624 13.9637 23.583 14.0404 23.6011 14.1323L23.6009 14.1325Z" fill="#041733"/>
<path fill-rule="evenodd" clip-rule="evenodd" d="M16.5569 5.5816C16.1969 5.597 15.7128 5.6427 15.6517 5.66598C15.6157 5.67887 15.5879 5.70917 15.5879 5.73227C15.5879 5.77028 15.613 5.77279 15.8094 5.75738C16.0444 5.73997 16.7069 5.64538 16.7404 5.62546C16.7655 5.60738 16.7655 5.56168 16.7429 5.56888C16.73 5.57139 16.6483 5.57658 16.5569 5.58177L16.5569 5.5816Z" fill="#041733"/>
<path fill-rule="evenodd" clip-rule="evenodd" d="M14.8869 5.78289C14.8154 5.79578 13.3289 5.93875 12.7708 5.98697C12.0979 6.04305 10.8689 6.18585 10.0404 6.30572C9.63996 6.36181 9.56144 6.39462 9.62523 6.47113C9.65553 6.50712 9.69605 6.51231 9.92842 6.49942C10.0764 6.49172 10.4228 6.45556 10.7035 6.41773C10.981 6.38224 11.6056 6.31343 12.0929 6.26454C13.6072 6.11203 14.4409 5.99484 14.8846 5.86995C15.0938 5.81135 15.1576 5.76498 15.0275 5.77017C14.9786 5.77268 14.9149 5.77787 14.8872 5.78306L14.8869 5.78289Z" fill="#041733"/>
<path fill-rule="evenodd" clip-rule="evenodd" d="M12.3371 6.46112C11.9977 6.4946 11.0753 6.60911 11.009 6.62468C10.9246 6.64527 10.9117 6.70906 10.9832 6.73668C11.1056 6.78238 12.7068 6.51971 12.7068 6.45408C12.7068 6.4283 12.6585 6.4283 12.3373 6.46111L12.3371 6.46112Z" fill="#041733"/>
<path fill-rule="evenodd" clip-rule="evenodd" d="M19.6672 6.75961C19.6286 6.83361 19.6337 6.97591 19.7052 7.59333C19.7387 7.90171 19.7844 8.36777 19.807 8.63564C19.8586 9.25489 19.9016 9.60461 20.0136 10.2678C20.1539 11.1112 20.2892 11.7408 20.3272 11.7537C20.3581 11.7641 20.3607 11.6797 20.3478 11.2465C20.3324 10.7159 20.3168 10.5962 20.0645 8.87787C20.0163 8.54957 19.9654 8.13621 19.9498 7.96045C19.9066 7.46857 19.8146 6.77718 19.7869 6.74166C19.7509 6.69595 19.6974 6.70365 19.6672 6.75974L19.6672 6.75961Z" fill="#041733"/>
<path fill-rule="evenodd" clip-rule="evenodd" d="M12.3217 8.09549C12.0005 8.25839 11.8401 8.36068 11.8401 8.39366C11.8401 8.42647 11.9039 8.40136 12.2476 8.22825C12.4059 8.14906 12.5817 8.07507 12.6403 8.06469C12.7677 8.04477 12.7858 7.97847 12.6661 7.96558C12.6075 7.96039 12.5102 7.99588 12.3217 8.09566L12.3217 8.09549Z" fill="#041733"/>
<path fill-rule="evenodd" clip-rule="evenodd" d="M13.8161 8.27124C13.6222 8.35562 13.1917 8.60021 13.1917 8.62532C13.1917 8.65881 13.1865 8.66132 13.4614 8.5314C13.7801 8.38073 13.9661 8.31695 14.0763 8.31695C14.1297 8.31695 14.16 8.30406 14.16 8.28146C14.16 8.19976 13.9946 8.19457 13.8161 8.27108L13.8161 8.27124Z" fill="#041733"/>
<path fill-rule="evenodd" clip-rule="evenodd" d="M17.6657 8.37041C17.5408 8.43922 16.9439 8.75279 16.3401 9.06184C14.8457 9.82861 14.2799 10.1401 13.8414 10.4358C13.5027 10.6625 13.4744 10.7596 13.8059 10.5582C13.9231 10.4867 14.8507 10.0129 15.8679 9.50553C16.8851 8.99826 17.7827 8.53921 17.8644 8.48833C17.9918 8.40396 18.0123 8.38337 18.0046 8.32226C17.9918 8.21545 17.9203 8.22566 17.6653 8.37047L17.6657 8.37041Z" fill="#041733"/>
<path fill-rule="evenodd" clip-rule="evenodd" d="M15.2563 8.38321C15.1366 8.447 14.6421 8.70197 14.1548 8.94658C13.6654 9.19117 13.2676 9.40311 13.2676 9.41584C13.2676 9.44865 13.2554 9.45133 13.5889 9.31405C14.29 9.02308 15.5371 8.43143 15.5751 8.36766C15.5957 8.33484 15.5448 8.26587 15.5011 8.26587C15.4857 8.26587 15.3762 8.31927 15.2565 8.38306L15.2563 8.38321Z" fill="#041733"/>
<path fill-rule="evenodd" clip-rule="evenodd" d="M17.2426 9.47697C17.0128 9.59667 16.3091 9.95342 15.6795 10.2675C14.5838 10.8154 14.3899 10.9197 14.5476 10.8817C14.7259 10.8412 16.6406 9.95591 17.4105 9.55866C17.6886 9.41569 17.7678 9.36479 17.7678 9.32361C17.7678 9.22701 17.6628 9.25731 17.2425 9.47679L17.2426 9.47697Z" fill="#041733"/>
<path fill-rule="evenodd" clip-rule="evenodd" d="M17.5055 10.1805C17.3117 10.2572 16.827 10.5095 16.2508 10.8385C15.634 11.1874 15.6746 11.1616 15.6951 11.1849C15.7028 11.1926 16.0956 11.0066 16.5669 10.767C17.0388 10.5294 17.4927 10.3079 17.577 10.2771C17.727 10.2237 17.7682 10.1728 17.689 10.1425C17.6659 10.1348 17.6478 10.1271 17.6452 10.1296C17.6427 10.1296 17.5789 10.1522 17.5055 10.1805L17.5055 10.1805Z" fill="#041733"/>
<path fill-rule="evenodd" clip-rule="evenodd" d="M17.3468 11.0395C17.0668 11.1798 16.5871 11.4832 16.6233 11.4961C16.6561 11.5064 17.6785 10.9861 17.6862 10.956C17.6991 10.8922 17.569 10.925 17.3468 11.0397V11.0395Z" fill="#041733"/>
<path fill-rule="evenodd" clip-rule="evenodd" d="M17.8749 11.7432C17.7654 11.8199 17.6862 11.8887 17.6991 11.8964C17.7346 11.917 18.1118 11.6872 18.1118 11.6441C18.1118 11.5855 18.0867 11.5959 17.8749 11.7432Z" fill="#041733"/>
<path fill-rule="evenodd" clip-rule="evenodd" d="M7.8597 11.751C7.80111 11.8045 7.56422 11.9956 7.33233 12.1791C7.09996 12.3606 6.8984 12.5314 6.88365 12.5545C6.84766 12.6131 6.89135 12.6864 6.96736 12.6968C7.03885 12.7072 7.14633 12.6253 7.45217 12.3323C7.67617 12.1179 8.01554 11.7207 8.01554 11.6769C8.01554 11.6337 7.95945 11.6595 7.85968 11.7509L7.8597 11.751Z" fill="#041733"/>
<path fill-rule="evenodd" clip-rule="evenodd" d="M20.3045 12.524C20.2762 12.5523 20.2529 12.5851 20.2529 12.5955C20.2529 12.6084 20.2993 12.8885 20.3552 13.22C20.493 14.0331 20.5052 14.0892 20.5541 14.0435C20.5896 14.0055 20.5896 13.2046 20.5516 12.886C20.5052 12.4939 20.4369 12.3916 20.3043 12.5242L20.3045 12.524Z" fill="#041733"/>
<path fill-rule="evenodd" clip-rule="evenodd" d="M6.28175 13.1691C6.20507 13.2302 5.90707 13.4517 5.61929 13.6661C5.33084 13.8779 4.81069 14.2706 4.45912 14.5379C3.9234 14.946 3.47725 15.2777 3.20501 15.4689C3.07493 15.5578 3.19982 15.7566 3.36272 15.7263C3.45731 15.7058 3.85207 15.4406 4.13266 15.2087C5.59352 13.9899 6.00166 13.6307 6.28426 13.3121C6.37634 13.2071 6.46005 13.108 6.47026 13.0899C6.50893 13.0261 6.41685 13.0623 6.28158 13.1691L6.28175 13.1691Z" fill="#041733"/>
<path fill-rule="evenodd" clip-rule="evenodd" d="M13.2598 14.352C13.2501 14.3597 13.2424 14.3932 13.2424 14.4235C13.2424 14.457 13.227 14.5258 13.2089 14.5794C13.1175 14.8395 13.1426 14.9108 13.2528 14.6966C13.339 14.526 13.3725 14.3984 13.3365 14.3624C13.3037 14.3296 13.2831 14.3269 13.2598 14.352L13.2598 14.352Z" fill="#041733"/>
<path fill-rule="evenodd" clip-rule="evenodd" d="M11.8649 14.9537C11.74 15.2338 11.6305 15.8512 11.7124 15.8003C11.7278 15.7926 11.7375 15.7591 11.7375 15.7288C11.7375 15.6978 11.7961 15.5041 11.8676 15.2949C11.9391 15.0863 11.99 14.9003 11.9828 14.8797C11.957 14.8159 11.914 14.8417 11.8649 14.9537L11.8649 14.9537Z" fill="#041733"/>
<path fill-rule="evenodd" clip-rule="evenodd" d="M10.4507 15.2367C10.3457 15.4156 10.114 15.9455 10.0167 16.2313C9.93302 16.4811 9.89703 16.7256 9.95294 16.6922C9.96835 16.6851 9.97873 16.6465 9.97873 16.6137C9.97873 16.5114 10.1622 16.0702 10.3991 15.599C10.5195 15.3614 10.6161 15.158 10.6161 15.1476C10.6161 15.1347 10.593 15.1245 10.5652 15.1245C10.5342 15.1245 10.4937 15.165 10.4505 15.2365L10.4507 15.2367Z" fill="#041733"/>
<path fill-rule="evenodd" clip-rule="evenodd" d="M9.41249 15.4638C9.08101 15.9962 8.42808 17.381 8.48217 17.4371C8.49188 17.4448 8.50209 17.4475 8.50728 17.4423C8.50979 17.4371 8.59416 17.2659 8.69327 17.0625C8.79305 16.8584 9.03262 16.407 9.22381 16.06C9.415 15.7111 9.57019 15.4104 9.57019 15.3898C9.57019 15.3158 9.47878 15.357 9.41249 15.4638L9.41249 15.4638Z" fill="#041733"/>
<path fill-rule="evenodd" clip-rule="evenodd" d="M7.59539 15.8382C7.48272 16.0242 6.97545 17.0595 6.75396 17.5591C6.44558 18.2575 6.36388 18.4894 6.4352 18.4894C6.4506 18.4894 6.46031 18.472 6.46031 18.4489C6.46031 18.4032 7.38613 16.567 7.64358 16.1009C7.7375 15.9296 7.81167 15.7694 7.80648 15.7436C7.80129 15.7185 7.77366 15.6954 7.74269 15.6902C7.70218 15.685 7.66869 15.716 7.5952 15.8382L7.59539 15.8382Z" fill="#041733"/>
<path fill-rule="evenodd" clip-rule="evenodd" d="M8.36202 15.7569C8.21972 16.035 7.50838 17.7785 7.46518 17.9601C7.44459 18.0463 7.4928 18.0567 7.52126 17.9723C7.52896 17.942 7.68416 17.6001 7.86245 17.2153C8.42329 16.0094 8.52559 15.77 8.51016 15.7268C8.48505 15.663 8.40335 15.6779 8.36217 15.7571L8.36202 15.7569Z" fill="#041733"/>
<path fill-rule="evenodd" clip-rule="evenodd" d="M17.9536 16.198C17.8796 16.2391 17.8996 16.3383 18.0019 16.4529C18.2182 16.6925 18.9985 17.2686 19.2946 17.4091C19.4446 17.4805 19.5007 17.4599 19.3964 17.3736C19.3559 17.3401 19.2432 17.241 19.1441 17.1514C18.9046 16.9403 18.0097 16.1702 18.002 16.1702C17.9995 16.1702 17.9763 16.1831 17.9538 16.1978L17.9536 16.198Z" fill="#041733"/>
<path fill-rule="evenodd" clip-rule="evenodd" d="M6.08802 16.519C6.00431 16.6085 5.77964 17.0366 5.68572 17.2839C5.60905 17.488 5.69275 17.4217 5.81313 17.1848C5.95794 16.8911 6.16721 16.5855 6.23618 16.5628C6.269 16.5524 6.28189 16.5293 6.2767 16.494C6.26381 16.4019 6.18529 16.4123 6.08802 16.5191L6.08802 16.519Z" fill="#041733"/>
<path fill-rule="evenodd" clip-rule="evenodd" d="M4.75226 16.935C4.68077 17.0341 4.59455 17.2331 4.4844 17.5517C4.28099 18.1305 4.29321 18.3088 4.49729 17.799C4.64796 17.432 4.81085 17.0825 4.87966 16.9859C4.91063 16.9454 4.92603 16.899 4.91834 16.8836C4.88736 16.8354 4.80567 16.8585 4.75226 16.9351L4.75226 16.935Z" fill="#041733"/>
<path fill-rule="evenodd" clip-rule="evenodd" d="M13.4339 17.371C12.8095 17.9033 12.6054 18.0945 11.216 19.433C10.6115 20.0144 9.72689 20.8687 9.24542 21.3303C8.71235 21.8421 8.37305 22.1866 8.37305 22.215C8.37305 22.2935 8.47031 22.2735 8.60023 22.1686C8.95431 21.8833 9.9491 20.9679 11.2489 19.7292C11.9706 19.0409 13.982 17.004 13.982 16.9602C13.982 16.9473 13.9743 16.9351 13.9614 16.9351C13.9517 16.9351 13.7141 17.1314 13.434 17.3708L13.4339 17.371Z" fill="#041733"/>
<path fill-rule="evenodd" clip-rule="evenodd" d="M19.606 17.6976C19.5777 17.7408 19.6207 17.7994 19.7508 17.8965C19.9014 18.0085 20.016 18.0825 20.0365 18.0825C20.0771 18.0825 20.0314 18.0058 19.8936 17.8501C19.7841 17.7277 19.7205 17.6743 19.6791 17.6743C19.6463 17.6743 19.6135 17.6847 19.6058 17.6974L19.606 17.6976Z" fill="#041733"/>
<path fill-rule="evenodd" clip-rule="evenodd" d="M2.11643 17.7403C2.09332 17.7989 2.13384 17.86 2.39132 18.1433C2.76415 18.5559 5.25694 21.0417 5.27237 21.0159C5.29296 20.9856 5.06578 20.6412 4.8416 20.3637C4.24476 19.6265 3.00874 18.3569 2.32236 17.7806C2.21555 17.6917 2.14139 17.6763 2.11628 17.7401L2.11643 17.7403Z" fill="#041733"/>
<path fill-rule="evenodd" clip-rule="evenodd" d="M10.6031 19.2727C9.71077 20.0349 9.2395 20.4605 9.2395 20.5068C9.2395 20.57 9.29291 20.568 9.3818 20.4991C9.64448 20.2926 10.8709 19.1426 10.8709 19.0996C10.8709 19.0532 10.8278 19.0815 10.6031 19.2727L10.6031 19.2727Z" fill="#041733"/>
<path fill-rule="evenodd" clip-rule="evenodd" d="M5.6341 21.2586C5.5807 21.312 5.58321 21.3301 5.65218 21.4061C5.71848 21.4827 6.14655 21.7531 6.19811 21.7531C6.2567 21.7531 6.16211 21.6153 5.96055 21.4061C5.77455 21.2122 5.70825 21.1821 5.63409 21.2586H5.6341Z" fill="#041733"/>
</svg>
