<svg width="194" height="82" viewBox="0 0 194 82" fill="none" xmlns="http://www.w3.org/2000/svg">
<path d="M75.5769 48.5838C74.9703 48.6167 74.3704 48.4443 73.8739 48.0943C73.6665 47.9405 73.4996 47.7385 73.3876 47.5058C73.2756 47.273 73.2221 47.0166 73.2315 46.7585V37.3055C73.2266 37.2655 73.2308 37.2249 73.2439 37.1867C73.257 37.1486 73.2786 37.114 73.3071 37.0855C73.3357 37.0569 73.3703 37.0353 73.4084 37.0222C73.4465 37.0091 73.4872 37.0049 73.5272 37.0098H75.2404C75.4341 37.0098 75.5259 37.1118 75.5259 37.3055V46.0243C75.5259 46.4118 75.6992 46.6055 76.0561 46.6055C76.2075 46.6117 76.3588 46.5946 76.5048 46.5545C76.7088 46.5545 76.8209 46.6157 76.8311 46.7993L76.9841 48.0739C76.9914 48.1111 76.9907 48.1494 76.9821 48.1863C76.9734 48.2231 76.9569 48.2578 76.9336 48.2877C76.9105 48.3176 76.8811 48.3423 76.8477 48.36C76.8141 48.3776 76.7772 48.3879 76.7394 48.39C76.3641 48.514 75.972 48.5794 75.5769 48.5838Z" fill="#7780A1"/>
<path d="M85.2128 47.4926C84.352 48.2039 83.2702 48.5929 82.1536 48.5929C81.037 48.5929 79.9552 48.2039 79.0944 47.4926C78.3378 46.7288 77.9133 45.6972 77.9133 44.6221C77.9133 43.547 78.3378 42.5153 79.0944 41.7515C79.9569 41.0439 81.038 40.6572 82.1536 40.6572C83.2692 40.6572 84.3503 41.0439 85.2128 41.7515C85.952 42.5223 86.3647 43.549 86.3647 44.617C86.3647 45.6849 85.952 46.7116 85.2128 47.4824V47.4926ZM80.7056 46.1466C81.1051 46.5085 81.6248 46.7088 82.1638 46.7088C82.7028 46.7088 83.2226 46.5085 83.622 46.1466C83.9836 45.7309 84.1827 45.1985 84.1827 44.6476C84.1827 44.0967 83.9836 43.5643 83.622 43.1485C83.2226 42.7867 82.7028 42.5863 82.1638 42.5863C81.6248 42.5863 81.1051 42.7867 80.7056 43.1485C80.3441 43.5643 80.1449 44.0967 80.1449 44.6476C80.1449 45.1985 80.3441 45.7309 80.7056 46.1466Z" fill="#7780A1"/>
<path d="M95.7977 40.9153C95.9914 40.9153 96.0832 41.0173 96.0832 41.211V48.5225C96.1011 49.0161 96.0087 49.5073 95.8129 49.9606C95.6171 50.4139 95.3228 50.818 94.9513 51.1432C94.1267 51.8464 93.0664 52.2107 91.9839 52.163C91.0061 52.1973 90.0414 51.9304 89.2204 51.3982C88.8698 51.168 88.5703 50.8681 88.3406 50.5173C88.1107 50.1664 87.9555 49.7721 87.8845 49.3587C87.8845 49.1548 87.8845 49.063 88.1599 49.063H89.873C89.9457 49.0654 90.0163 49.089 90.0759 49.1306C90.1357 49.1722 90.1821 49.2301 90.2095 49.2975C90.3207 49.6072 90.5422 49.8651 90.8316 50.0215C91.1843 50.2036 91.5769 50.2947 91.9737 50.2867C92.2131 50.2998 92.4527 50.265 92.6786 50.1845C92.9045 50.104 93.112 49.9792 93.2891 49.8176C93.451 49.6485 93.5768 49.4483 93.6592 49.2293C93.7416 49.0103 93.7787 48.7767 93.7684 48.5429V47.9005C93.155 48.3516 92.4085 48.5849 91.6474 48.5633C91.1146 48.5827 90.5836 48.4943 90.0858 48.3033C89.5882 48.1122 89.1343 47.8227 88.7513 47.4518C88.0162 46.6913 87.6052 45.6748 87.6052 44.6169C87.6052 43.5592 88.0162 42.5427 88.7513 41.7821C89.1362 41.4146 89.5907 41.1278 90.088 40.9386C90.5854 40.7495 91.1156 40.6618 91.6474 40.6808C92.4305 40.6601 93.1972 40.9085 93.8194 41.3844V41.2212C93.8147 41.1822 93.8188 41.1425 93.8313 41.1052C93.8439 41.0679 93.8646 41.0339 93.8919 41.0055C93.9192 40.9772 93.9526 40.9554 93.9894 40.9415C94.0263 40.9276 94.0658 40.9222 94.1049 40.9255L95.7977 40.9153ZM91.8411 46.7482C92.1038 46.7563 92.3652 46.7067 92.6065 46.6027C92.8479 46.4988 93.0636 46.343 93.2381 46.1465C93.5772 45.7088 93.7612 45.1707 93.7612 44.6169C93.7612 44.0632 93.5772 43.5252 93.2381 43.0873C93.0642 42.8936 92.8498 42.7401 92.6103 42.6379C92.3707 42.5358 92.1116 42.4873 91.8513 42.4959C91.5856 42.4875 91.3212 42.537 91.0765 42.6409C90.8318 42.7448 90.6125 42.9006 90.4339 43.0975C90.0583 43.5163 89.8608 44.0651 89.8832 44.6271C89.8649 45.1837 90.058 45.7266 90.4237 46.1465C90.6027 46.3429 90.8221 46.4985 91.0667 46.6023C91.3114 46.7061 91.5755 46.7558 91.8411 46.7482Z" fill="#7780A1"/>
<path d="M104.884 47.4926C104.021 48.2002 102.94 48.5869 101.825 48.5869C100.709 48.5869 99.6279 48.2002 98.7654 47.4926C98.0255 46.72 97.6125 45.6917 97.6125 44.622C97.6125 43.5524 98.0255 42.524 98.7654 41.7515C99.6287 41.0457 100.709 40.6602 101.825 40.6602C102.94 40.6602 104.02 41.0457 104.884 41.7515C105.623 42.5223 106.036 43.549 106.036 44.6169C106.036 45.6849 105.623 46.7116 104.884 47.4824V47.4926ZM100.366 46.1465C100.562 46.3325 100.792 46.4779 101.044 46.5741C101.296 46.6704 101.565 46.7158 101.835 46.7074C102.103 46.7143 102.37 46.6684 102.62 46.5722C102.87 46.4759 103.099 46.3313 103.293 46.1465C103.649 45.728 103.844 45.1968 103.844 44.6475C103.844 44.0983 103.649 43.567 103.293 43.1485C103.099 42.9638 102.87 42.8191 102.62 42.723C102.37 42.6267 102.103 42.5807 101.835 42.5877C101.565 42.5794 101.296 42.6247 101.044 42.7209C100.792 42.8172 100.562 42.9626 100.366 43.1485C100.011 43.567 99.8155 44.0983 99.8155 44.6475C99.8155 45.1968 100.011 45.728 100.366 46.1465Z" fill="#7780A1"/>
<path d="M109.717 39.1817C109.447 39.4177 109.101 39.5477 108.743 39.5477C108.385 39.5477 108.039 39.4177 107.769 39.1817C107.647 39.0664 107.55 38.9273 107.483 38.773C107.417 38.6187 107.382 38.4524 107.382 38.2843C107.382 38.1163 107.417 37.9501 107.483 37.7957C107.55 37.6414 107.647 37.5023 107.769 37.387C108.042 37.1569 108.387 37.0308 108.743 37.0308C109.1 37.0308 109.445 37.1569 109.717 37.387C109.839 37.5023 109.937 37.6414 110.003 37.7957C110.07 37.9501 110.104 38.1163 110.104 38.2843C110.104 38.4524 110.07 38.6187 110.003 38.773C109.937 38.9273 109.839 39.0664 109.717 39.1817ZM109.931 48.5837C109.325 48.6134 108.726 48.4413 108.228 48.0942C108.024 47.9382 107.86 47.7354 107.75 47.503C107.64 47.2706 107.587 47.0153 107.596 46.7583V41.211C107.591 41.171 107.595 41.1303 107.608 41.0922C107.621 41.054 107.643 41.0195 107.672 40.9909C107.7 40.9624 107.735 40.9407 107.773 40.9277C107.811 40.9145 107.852 40.9103 107.892 40.9152H109.605C109.799 40.9152 109.89 41.0172 109.89 41.211V46.0241C109.89 46.4116 110.064 46.6054 110.41 46.6054C110.565 46.611 110.72 46.5937 110.869 46.5544C111.073 46.5544 111.185 46.6156 111.196 46.7991L111.349 48.0738C111.356 48.111 111.355 48.1492 111.347 48.1862C111.338 48.223 111.321 48.2576 111.298 48.2875C111.275 48.3175 111.246 48.3422 111.212 48.3598C111.179 48.3775 111.142 48.3878 111.104 48.3899C110.725 48.5146 110.33 48.58 109.931 48.5837Z" fill="#7780A1"/>
<path d="M117.651 40.6704C118.186 40.6493 118.72 40.7359 119.221 40.9251C119.722 41.1143 120.18 41.4022 120.568 41.7718C121.289 42.5457 121.69 43.5641 121.69 44.6219C121.69 45.6797 121.289 46.6982 120.568 47.4721C120.182 47.845 119.725 48.1357 119.223 48.3267C118.722 48.5178 118.187 48.6052 117.651 48.5836C116.888 48.6006 116.139 48.3679 115.52 47.9208V51.602C115.52 51.7958 115.418 51.8875 115.224 51.8875H113.511C113.472 51.8949 113.432 51.8925 113.394 51.8808C113.356 51.869 113.321 51.8482 113.293 51.82C113.265 51.7919 113.244 51.7574 113.232 51.7194C113.22 51.6814 113.218 51.6412 113.225 51.602V43.2402C113.237 43.1584 113.23 43.075 113.204 42.9965C113.178 42.918 113.134 42.8467 113.076 42.7882C113.017 42.7298 112.946 42.6858 112.868 42.6598C112.789 42.6338 112.706 42.6266 112.624 42.6385H112.287C112.063 42.6385 111.951 42.5569 111.951 42.3938V41.1905C111.945 41.1161 111.966 41.042 112.009 40.9808C112.051 40.9196 112.114 40.8748 112.185 40.854C112.538 40.7258 112.911 40.6636 113.287 40.6704C113.661 40.6373 114.036 40.7167 114.365 40.8983C114.694 41.0801 114.961 41.3558 115.132 41.6902C115.461 41.3579 115.854 41.0962 116.287 40.9208C116.72 40.7455 117.184 40.6602 117.651 40.6704ZM116.06 46.1464C116.242 46.3365 116.461 46.4877 116.702 46.591C116.944 46.6943 117.205 46.7476 117.468 46.7476C117.731 46.7476 117.991 46.6943 118.233 46.591C118.475 46.4877 118.693 46.3365 118.875 46.1464C119.258 45.7192 119.459 45.1595 119.436 44.5862C119.462 44.0125 119.261 43.4515 118.875 43.026C118.693 42.836 118.475 42.6848 118.233 42.5815C117.991 42.4781 117.731 42.4249 117.468 42.4249C117.205 42.4249 116.944 42.4781 116.702 42.5815C116.461 42.6848 116.242 42.836 116.06 43.026C115.689 43.459 115.496 44.0165 115.52 44.5862C115.499 45.1555 115.692 45.712 116.06 46.1464Z" fill="#7780A1"/>
<path d="M126.502 48.5837C125.587 48.6214 124.679 48.4024 123.882 47.9515C123.562 47.7588 123.289 47.4964 123.084 47.1839C122.88 46.8715 122.748 46.5169 122.699 46.1466C122.699 45.9426 122.77 45.8406 122.994 45.8406H124.493C124.565 45.8435 124.634 45.8658 124.693 45.9055C124.753 45.9451 124.8 46.0002 124.83 46.065C125.044 46.6156 125.605 46.891 126.502 46.891C126.815 46.9053 127.127 46.8422 127.41 46.7074C127.508 46.6634 127.591 46.5936 127.652 46.5056C127.713 46.4176 127.749 46.3146 127.757 46.2077C127.757 45.9426 127.593 45.7591 127.267 45.6367C126.88 45.5079 126.48 45.4223 126.074 45.3818C125.593 45.3273 125.116 45.2422 124.646 45.1268C124.189 45.0234 123.774 44.7854 123.453 44.4436C123.265 44.2113 123.126 43.9426 123.045 43.6543C122.965 43.366 122.944 43.0642 122.985 42.7678C123.027 42.4712 123.128 42.1863 123.284 41.9309C123.44 41.6753 123.647 41.4547 123.892 41.2824C124.627 40.8143 125.489 40.5861 126.36 40.6298C127.202 40.6013 128.036 40.8098 128.766 41.2314C129.06 41.3982 129.314 41.6283 129.508 41.9053C129.702 42.1822 129.832 42.499 129.888 42.8324C129.888 43.0364 129.796 43.1383 129.613 43.1383H128.103C128.04 43.1421 127.977 43.1266 127.922 43.0939C127.867 43.0611 127.824 43.0126 127.797 42.9548C127.697 42.7133 127.507 42.5198 127.267 42.4143C126.997 42.273 126.695 42.2027 126.39 42.2104C126.091 42.1942 125.793 42.2538 125.523 42.3837C125.428 42.4204 125.347 42.4847 125.288 42.5683C125.23 42.6519 125.198 42.751 125.197 42.8528C125.204 42.9923 125.255 43.126 125.343 43.2343C125.431 43.3426 125.551 43.4197 125.687 43.4545C126.078 43.6021 126.485 43.7047 126.9 43.7604C127.377 43.8232 127.85 43.9117 128.317 44.0255C128.775 44.129 129.19 44.3669 129.511 44.7087C129.682 44.8971 129.814 45.1174 129.9 45.3573C129.986 45.597 130.023 45.8514 130.01 46.1058C130.019 46.4583 129.936 46.807 129.77 47.1181C129.604 47.429 129.36 47.6916 129.062 47.8801C128.3 48.3693 127.407 48.6146 126.502 48.5837Z" fill="#7780A1"/>
<path d="M140.789 48.0736C140.795 48.1098 140.793 48.1468 140.785 48.1824C140.775 48.2181 140.76 48.2515 140.738 48.281C140.716 48.3105 140.689 48.3352 140.657 48.3539C140.626 48.3726 140.591 48.3847 140.554 48.3897C140.182 48.5113 139.793 48.5766 139.402 48.5835C139.014 48.6236 138.623 48.5631 138.266 48.4077C137.908 48.2522 137.597 48.0072 137.362 47.6963C136.642 48.3156 135.71 48.6333 134.762 48.5835C134.322 48.6037 133.882 48.5316 133.471 48.3719C133.06 48.2121 132.687 47.968 132.376 47.6555C132.067 47.3281 131.827 46.9416 131.671 46.5193C131.516 46.097 131.446 45.6476 131.468 45.1979V41.2108C131.468 41.017 131.56 40.915 131.754 40.915H133.467C133.661 40.915 133.752 41.017 133.752 41.2108V44.892C133.734 45.3507 133.89 45.7992 134.191 46.1463C134.341 46.3054 134.523 46.4304 134.725 46.5131C134.927 46.5958 135.145 46.6341 135.364 46.6256C135.587 46.6353 135.81 46.6008 136.02 46.5237C136.23 46.4467 136.423 46.3288 136.587 46.1769C136.742 46.0168 136.864 45.8265 136.942 45.6178C137.022 45.409 137.056 45.1863 137.046 44.9634V41.2108C137.046 41.017 137.138 40.915 137.332 40.915H139.065C139.259 40.915 139.351 41.017 139.351 41.2108V46.0137C139.351 46.4114 139.524 46.6052 139.861 46.6052C140.019 46.6113 140.177 46.5942 140.33 46.5542C140.369 46.5434 140.409 46.5414 140.448 46.5486C140.488 46.5556 140.525 46.5715 140.557 46.5951C140.59 46.6186 140.616 46.6492 140.636 46.6845C140.654 46.7198 140.664 46.7589 140.666 46.7989L140.789 48.0736Z" fill="#7780A1"/>
<path d="M156.992 48.0738C157.001 48.1103 157.002 48.1485 156.995 48.1854C156.987 48.2222 156.972 48.2571 156.949 48.2872C156.927 48.3174 156.898 48.3423 156.864 48.3601C156.832 48.3779 156.795 48.3881 156.757 48.3899C156.378 48.5132 155.983 48.5786 155.585 48.5837C154.978 48.615 154.379 48.4428 153.882 48.0942C153.667 47.9449 153.492 47.7449 153.373 47.5119C153.254 47.2789 153.193 47.02 153.199 46.7584V44.362C153.22 43.9047 153.067 43.4563 152.77 43.1077C152.627 42.9483 152.45 42.8227 152.253 42.7398C152.055 42.657 151.842 42.6189 151.628 42.6284C151.435 42.6212 151.244 42.6578 151.066 42.7355C150.89 42.8132 150.734 42.9301 150.608 43.0771C150.339 43.4188 150.202 43.8459 150.221 44.2804V48.0432C150.221 48.237 150.129 48.3389 149.935 48.3389H148.212C148.172 48.3439 148.131 48.3397 148.094 48.3266C148.055 48.3134 148.02 48.2918 147.992 48.2633C147.963 48.2348 147.942 48.2002 147.929 48.162C147.915 48.1239 147.911 48.0833 147.916 48.0432V44.362C147.939 43.9097 147.797 43.4645 147.519 43.1077C147.394 42.9578 147.238 42.8372 147.062 42.7544C146.886 42.6716 146.694 42.6285 146.499 42.6284C146.291 42.6201 146.084 42.6556 145.89 42.733C145.696 42.8103 145.522 42.9276 145.377 43.0771C145.085 43.4079 144.936 43.8401 144.959 44.2804V48.0432C144.964 48.0833 144.96 48.1239 144.947 48.162C144.934 48.2002 144.912 48.2348 144.884 48.2633C144.855 48.2918 144.82 48.3134 144.783 48.3266C144.744 48.3397 144.703 48.3439 144.663 48.3389H143.001C142.807 48.3389 142.716 48.237 142.716 48.0432V43.2403C142.728 43.1585 142.721 43.0751 142.694 42.9965C142.669 42.9181 142.625 42.8467 142.566 42.7883C142.508 42.7299 142.436 42.6859 142.358 42.6599C142.279 42.6339 142.196 42.6267 142.114 42.6386H141.777C141.553 42.6386 141.441 42.557 141.441 42.3939V41.1906C141.436 41.1162 141.456 41.0421 141.499 40.9809C141.542 40.9197 141.604 40.8749 141.675 40.8541C142.028 40.7259 142.402 40.6637 142.777 40.6705C143.137 40.6398 143.499 40.7116 143.82 40.8776C144.141 41.0437 144.408 41.2971 144.592 41.6087C144.936 41.2827 145.343 41.031 145.789 40.8696C146.235 40.7082 146.709 40.6404 147.182 40.6705C147.642 40.6481 148.1 40.7343 148.52 40.9221C148.94 41.1099 149.309 41.394 149.599 41.7514C149.936 41.3846 150.351 41.0975 150.813 40.9105C151.275 40.7236 151.773 40.6417 152.271 40.6705C152.715 40.6497 153.16 40.7214 153.576 40.8812C153.992 41.0409 154.37 41.2851 154.687 41.5985C154.997 41.9253 155.237 42.3117 155.393 42.7342C155.549 43.1565 155.618 43.6063 155.595 44.0561V46.0241C155.595 46.4116 155.768 46.6054 156.095 46.6054C156.253 46.6127 156.411 46.5956 156.564 46.5544C156.775 46.5544 156.887 46.636 156.9 46.7991L156.992 48.0738Z" fill="#7780A1"/>
<path d="M37.4181 39.5897C38.1704 36.5658 39.9128 33.8806 42.3678 31.9616C44.8228 30.0425 47.8493 29 50.9653 29C54.0813 29 57.1078 30.0425 59.5628 31.9616C62.0178 33.8806 63.7601 36.5658 64.5125 39.5897H63.2888C61.2245 39.5593 59.2026 40.1762 57.5069 41.3538C57.409 41.4247 57.3068 41.4894 57.201 41.5475H57.0582C56.9524 41.4894 56.8502 41.4247 56.7523 41.3538C55.0416 40.2034 53.0268 39.589 50.9653 39.589C48.9038 39.589 46.889 40.2034 45.1783 41.3538C45.0804 41.4247 44.9782 41.4894 44.8724 41.5475H44.7296C44.6237 41.4894 44.5216 41.4247 44.4237 41.3538C42.728 40.1762 40.706 39.5593 38.6418 39.5897H37.4181ZM61.0862 45.9834C61.7143 45.4942 62.4929 45.2383 63.2888 45.2594H64.9306V41.986H63.2888C61.8869 41.9691 60.517 42.4054 59.3832 43.2301C58.7452 43.7005 57.9733 43.9543 57.1806 43.9543C56.3878 43.9543 55.616 43.7005 54.9779 43.2301C53.8153 42.4208 52.4328 41.9869 51.0163 41.9869C49.5998 41.9869 48.2172 42.4208 47.0546 43.2301C46.4165 43.7005 45.6447 43.9543 44.852 43.9543C44.0592 43.9543 43.2874 43.7005 42.6493 43.2301C41.5015 42.3948 40.112 41.958 38.6928 41.986H37V45.2594H38.6418C39.4377 45.2383 40.2162 45.4942 40.8444 45.9834C42.0049 46.7933 43.3859 47.2275 44.801 47.2275C46.2161 47.2275 47.5971 46.7933 48.7576 45.9834C49.3865 45.4958 50.1645 45.24 50.9602 45.2594C51.7564 45.2365 52.5355 45.4927 53.1628 45.9834C54.3254 46.7928 55.708 47.2266 57.1245 47.2266C58.541 47.2266 59.9236 46.7928 61.0862 45.9834ZM61.0862 51.8367C61.7143 51.3475 62.4929 51.0916 63.2888 51.1127H64.9306V47.8393H63.2888C61.8869 47.8224 60.517 48.2587 59.3832 49.0834C58.7452 49.5538 57.9733 49.8076 57.1806 49.8076C56.3878 49.8076 55.616 49.5538 54.9779 49.0834C53.8153 48.2741 52.4328 47.8403 51.0163 47.8403C49.5998 47.8403 48.2172 48.2741 47.0546 49.0834C46.4165 49.5538 45.6447 49.8076 44.852 49.8076C44.0592 49.8076 43.2874 49.5538 42.6493 49.0834C41.5015 48.2482 40.112 47.8113 38.6928 47.8393H37V51.1127H38.6418C39.4377 51.0916 40.2162 51.3475 40.8444 51.8367C42.0049 52.6466 43.3859 53.0808 44.801 53.0808C46.2161 53.0808 47.5971 52.6466 48.7576 51.8367C49.3865 51.349 50.1645 51.0933 50.9602 51.1127C51.7564 51.0898 52.5355 51.346 53.1628 51.8367C54.3254 52.646 55.708 53.0798 57.1245 53.0798C58.541 53.0798 59.9236 52.646 61.0862 51.8367Z" fill="#7780A1"/>
<rect x="1" y="1" width="192" height="80" rx="10" stroke="#B7BCCD" stroke-opacity="0.2" stroke-width="2"/>
</svg>
