<svg width="194" height="82" viewBox="0 0 194 82" fill="none" xmlns="http://www.w3.org/2000/svg">
<path d="M56.4597 32.4399H58.3601V45.6666H64.0613V47.567H56.4597V32.4399ZM69.981 32.4399C71.1086 32.4399 72.2108 32.7743 73.1484 33.4008C74.0859 34.0272 74.8167 34.9176 75.2482 35.9594C75.6797 37.0011 75.7926 38.1475 75.5726 39.2533C75.3526 40.3592 74.8097 41.3751 74.0123 42.1724C73.215 42.9698 72.1991 43.5127 71.0932 43.7327C69.9873 43.9527 68.841 43.8398 67.7992 43.4083C66.7574 42.9767 65.8671 42.246 65.2407 41.3085C64.6142 40.3709 64.2798 39.2687 64.2798 38.1411C64.2798 37.3924 64.4273 36.651 64.7138 35.9594C65.0003 35.2676 65.4202 34.6392 65.9497 34.1098C66.479 33.5804 67.1075 33.1604 67.7992 32.8739C68.4909 32.5874 69.2323 32.4399 69.981 32.4399ZM69.981 41.9419C70.7327 41.9419 71.4676 41.719 72.0926 41.3013C72.7176 40.8836 73.2048 40.2901 73.4924 39.5956C73.7801 38.9011 73.8554 38.1369 73.7087 37.3996C73.5621 36.6623 73.2 35.9851 72.6685 35.4536C72.137 34.922 71.4598 34.56 70.7225 34.4134C69.9852 34.2667 69.221 34.3419 68.5265 34.6297C67.832 34.9173 67.2383 35.4044 66.8207 36.0295C66.4031 36.6545 66.1802 37.3894 66.1802 38.1411C66.1852 39.1458 66.5878 40.1077 67.3001 40.8164C68.0124 41.525 68.9762 41.9229 69.981 41.9229V41.9419ZM66.1802 45.6856H73.7818V47.586H66.1802V45.6856ZM90.5052 47.586H88.6048V46.2272C87.3792 47.0851 85.9199 47.5461 84.4239 47.548C83.1483 47.5566 81.891 47.244 80.768 46.639C79.6448 46.0339 78.6921 45.156 77.9975 44.0861C77.3028 43.0162 76.8885 41.7886 76.7929 40.5165C76.6972 39.2445 76.9233 37.9687 77.4502 36.807C77.9771 35.6452 78.7879 34.6347 79.8078 33.8686C80.8278 33.1025 82.0242 32.6054 83.2867 32.4231C84.5494 32.2408 85.8375 32.3792 87.0325 32.8255C88.2276 33.2718 89.2911 34.0116 90.1251 34.977L88.7283 36.2217C88.094 35.5125 87.2923 34.9733 86.3962 34.6534C85.5001 34.3334 84.5382 34.2427 83.5982 34.3897C82.6581 34.5367 81.7698 34.9167 81.0142 35.4949C80.2586 36.0732 79.6597 36.8313 79.2722 37.7003C78.8846 38.5693 78.7207 39.5213 78.7954 40.4699C78.87 41.4185 79.1809 42.3333 79.6997 43.1309C80.2185 43.9284 80.9285 44.5836 81.7654 45.0365C82.6021 45.4893 83.539 45.7255 84.4904 45.7236C85.2801 45.7253 86.0607 45.5563 86.7791 45.2283C87.4973 44.9003 88.1363 44.421 88.6523 43.8233H83.5212V41.9229H90.5242L90.5052 47.586ZM97.4986 32.4779C98.6262 32.4779 99.7284 32.8123 100.666 33.4388C101.604 34.0652 102.334 34.9556 102.766 35.9974C103.197 37.0392 103.31 38.1855 103.09 39.2913C102.87 40.3972 102.327 41.4131 101.53 42.2104C100.733 43.0078 99.7167 43.5507 98.6108 43.7707C97.505 43.9907 96.3587 43.8778 95.3169 43.4463C94.2751 43.0147 93.3847 42.284 92.7583 41.3465C92.1318 40.4089 91.7974 39.3067 91.7974 38.1791C91.7924 37.4256 91.9368 36.6787 92.2223 35.9813C92.5077 35.284 92.9285 34.6501 93.4605 34.1165C93.9924 33.5827 94.6248 33.1598 95.3212 32.872C96.0176 32.5843 96.7641 32.4374 97.5176 32.4399L97.4986 32.4779ZM97.4986 41.9799C98.2503 41.9799 98.9852 41.757 99.6102 41.3394C100.235 40.9216 100.722 40.3281 101.01 39.6336C101.298 38.9391 101.373 38.1749 101.226 37.4376C101.08 36.7003 100.718 36.0231 100.186 35.4916C99.6546 34.96 98.9774 34.598 98.2401 34.4514C97.5028 34.3047 96.7386 34.3799 96.0441 34.6677C95.3496 34.9553 94.756 35.4424 94.3384 36.0675C93.9207 36.6925 93.6978 37.4274 93.6978 38.1791C93.7128 39.1805 94.1225 40.1356 94.8378 40.8366C95.553 41.5376 96.5161 41.928 97.5176 41.9229L97.4986 41.9799ZM93.6978 45.7236H101.299V47.624H93.6978V45.7236ZM105.224 32.4399H107.124V47.548H105.224V32.4399ZM109.756 32.4399H111.656C111.754 32.4296 111.853 32.4296 111.951 32.4399C112.747 32.3536 113.552 32.4358 114.314 32.6813C115.076 32.9268 115.778 33.33 116.374 33.8647C116.97 34.3993 117.446 35.0535 117.772 35.7846C118.099 36.5157 118.267 37.3073 118.267 38.1078C118.267 38.9084 118.099 39.7 117.772 40.4311C117.446 41.1621 116.97 41.8164 116.374 42.351C115.778 42.8857 115.076 43.2889 114.314 43.5344C113.552 43.7798 112.747 43.8621 111.951 43.7757H111.656V47.5765H109.756V32.4399ZM111.656 34.3403V41.8564H111.951C112.488 41.9278 113.034 41.8838 113.552 41.7271C114.07 41.5705 114.549 41.305 114.957 40.9483C115.364 40.5916 115.69 40.1519 115.914 39.6587C116.138 39.1656 116.254 38.6304 116.254 38.0888C116.254 37.5473 116.138 37.0121 115.914 36.5189C115.69 36.0258 115.364 35.5861 114.957 35.2294C114.549 34.8726 114.07 34.6071 113.552 34.4504C113.034 34.2939 112.488 34.2499 111.951 34.3213C111.848 34.3321 111.746 34.3544 111.647 34.3878L111.656 34.3403ZM125.349 33.5327L123.943 34.6444C123.7 34.3909 123.39 34.2119 123.049 34.1284C122.708 34.045 122.351 34.0606 122.018 34.1734C121.686 34.2861 121.393 34.4913 121.173 34.765C120.954 35.0386 120.817 35.3693 120.778 35.7181V35.8701C120.778 36.7063 121.358 37.2669 122.489 37.3429C126.841 37.609 128.836 39.6519 128.836 42.3505V42.5215C128.724 43.5895 128.307 44.6028 127.635 45.4409C126.964 46.2789 126.065 46.9064 125.048 47.2487C124.03 47.591 122.935 47.6337 121.893 47.3718C120.852 47.1099 119.907 46.5543 119.173 45.7712L120.626 44.6499C120.965 45.0126 121.378 45.2973 121.837 45.4844C122.297 45.6714 122.791 45.7563 123.287 45.7331C124.202 45.7814 125.101 45.4742 125.795 44.8757C126.489 44.2773 126.925 43.4338 127.012 42.5215V42.3885C127.012 39.8514 124.522 39.3859 122.365 39.1768C120.37 38.9868 118.935 37.742 118.935 35.9461V35.8701C119.005 34.9351 119.432 34.0629 120.127 33.4335C120.822 32.804 121.732 32.4653 122.669 32.4874C123.166 32.4728 123.66 32.5624 124.12 32.7506C124.58 32.9389 124.995 33.2215 125.339 33.5802L125.349 33.5327ZM136.276 45.6191C138.642 45.6191 140.514 43.0631 140.514 39.918V32.3164H142.414V39.918C142.414 44.0988 139.678 47.472 136.314 47.472C132.95 47.472 130.214 44.0988 130.214 39.918V32.3164H132.114V39.918C132.038 43.1106 133.91 45.6666 136.267 45.6666L136.276 45.6191ZM157 47.5195H155.099V38.1126L150.719 43.8138L146.339 38.1126V47.548H144.438V32.4399L150.709 40.6971L156.981 32.4399L157 47.5195Z" fill="#7780A1"/>
<path d="M47.3381 30.1691C47.3381 28.7981 46.7936 27.4834 45.8242 26.514C44.8548 25.5446 43.54 25 42.1691 25C40.7981 25 39.4834 25.5446 38.514 26.514C37.5446 27.4834 37 28.7981 37 30.1691V45.7998L41.2569 48.8499V56.2804H43.0812V48.8499L47.3381 45.7998V30.1691ZM45.5137 38.9108L43.0812 41.3433V39.0629L45.5137 36.6304V38.9108ZM38.8624 36.6304L41.2949 39.0629V41.3433L38.8624 38.9108V36.6304ZM45.5137 34.0458L42.1691 37.3905L38.8244 33.9698V31.6894L42.1691 35.034L45.5137 31.6894V34.0458ZM42.1691 26.8244C42.9046 26.8276 43.6189 27.0719 44.2024 27.5198C44.7859 27.9678 45.2064 28.5946 45.3997 29.3044L42.1691 32.5255L38.9384 29.3044C39.1246 28.5876 39.5421 27.9522 40.1263 27.4969C40.7104 27.0416 41.4285 26.7919 42.1691 26.7864V26.8244ZM38.8244 44.8781V41.4574L41.2569 43.8899V46.6074L38.8244 44.8781ZM43.0812 46.6169V43.8899L45.5137 41.4574V44.8686L43.0812 46.6169Z" fill="#7780A1"/>
<rect x="1" y="1" width="192" height="80" rx="10" stroke="#B7BCCD" stroke-opacity="0.2" stroke-width="2"/>
</svg>
