<svg width="194" height="82" viewBox="0 0 194 82" fill="none" xmlns="http://www.w3.org/2000/svg">
<path d="M57 50.0164H75.0164V32H57V50.0164ZM71.5487 39.2747H67.7417V35.4677H71.5487V39.2747ZM60.467 35.4677H64.2761V42.7417H71.5487V46.5487H60.467V35.4677ZM86.7486 32C84.9669 32 83.2252 32.5283 81.7438 33.5182C80.2624 34.508 79.1078 35.9149 78.426 37.5609C77.7442 39.207 77.5659 41.0182 77.9134 42.7656C78.261 44.513 79.1189 46.1181 80.3787 47.378C81.6386 48.6378 83.2437 49.4957 84.9911 49.8434C86.7386 50.1909 88.5498 50.0126 90.1958 49.3308C91.8419 48.6489 93.2487 47.4943 94.2386 46.0129C95.2284 44.5315 95.7568 42.7898 95.7568 41.0082C95.754 38.6199 94.804 36.3303 93.1152 34.6415C91.4264 32.9528 89.1368 32.0028 86.7486 32ZM86.7486 46.5487C85.6527 46.5487 84.5815 46.2238 83.6704 45.6149C82.7593 45.0062 82.0491 44.1409 81.6298 43.1285C81.2104 42.1161 81.1007 41.0021 81.3145 39.9273C81.5283 38.8526 82.056 37.8654 82.8308 37.0905C83.6057 36.3156 84.5929 35.788 85.6676 35.5742C86.7424 35.3604 87.8564 35.4701 88.8688 35.8895C89.8812 36.3088 90.7465 37.019 91.3553 37.9301C91.9641 38.8412 92.289 39.9124 92.289 41.0082C92.2868 42.477 91.7023 43.8849 90.6638 44.9235C89.6252 45.9621 88.2173 46.5465 86.7486 46.5487ZM127.992 32C126.211 31.9999 124.469 32.5281 122.988 33.5178C121.506 34.5076 120.351 35.9144 119.669 37.5604C118.988 39.2064 118.809 41.0178 119.157 42.7652C119.504 44.5127 120.362 46.1179 121.622 47.3777C122.882 48.6376 124.487 49.4957 126.234 49.8433C127.981 50.1909 129.793 50.0126 131.439 49.3308C133.085 48.649 134.492 47.4944 135.481 46.013C136.472 44.5316 137 42.7899 137 41.0082C136.997 38.6201 136.048 36.3305 134.359 34.6418C132.67 32.953 130.381 32.003 127.992 32ZM127.992 46.5487C126.897 46.5488 125.826 46.224 124.914 45.6153C124.003 45.0066 123.293 44.1413 122.873 43.129C122.454 42.1166 122.344 41.0025 122.558 39.9277C122.771 38.853 123.299 37.8657 124.074 37.0907C124.849 36.3158 125.836 35.7881 126.911 35.5742C127.985 35.3604 129.099 35.4701 130.112 35.8894C131.124 36.3087 131.99 37.0189 132.599 37.93C133.207 38.8412 133.532 39.9124 133.532 41.0082C133.53 42.4769 132.946 43.8847 131.907 44.9232C130.869 45.9618 129.461 46.5463 127.992 46.5487ZM107.37 32C105.588 32 103.847 32.5283 102.365 33.5182C100.884 34.508 99.7294 35.9149 99.0476 37.5609C98.3658 39.207 98.1875 41.0182 98.535 42.7656C98.8826 44.513 99.7405 46.1181 101 47.378C102.26 48.6378 103.865 49.4957 105.613 49.8434C107.36 50.1909 109.171 50.0126 110.817 49.3308C112.464 48.6489 113.87 47.4943 114.86 46.0129C115.85 44.5315 116.378 42.7898 116.378 41.0082C116.376 38.6199 115.426 36.3303 113.737 34.6415C112.048 32.9528 109.758 32.0028 107.37 32ZM107.37 46.5487C106.349 46.5492 105.348 46.2676 104.477 45.735C103.606 45.2024 102.899 44.4395 102.434 43.5304C101.97 42.6214 101.765 41.6016 101.843 40.5837C101.921 39.5657 102.279 38.5892 102.878 37.7618C103.476 36.9345 104.291 36.2885 105.233 35.8953C106.175 35.502 107.208 35.3767 108.217 35.5332C109.226 35.6897 110.172 36.122 110.95 36.7822C111.729 37.4424 112.31 38.305 112.63 39.2747H107.37V42.7417H112.63C112.264 43.8482 111.559 44.8115 110.615 45.4948C109.671 46.1781 108.536 46.5468 107.37 46.5487Z" fill="#7780A1"/>
<rect x="1" y="1" width="192" height="80" rx="10" stroke="#B7BCCD" stroke-opacity="0.2" stroke-width="2"/>
</svg>
