<svg width="194" height="82" viewBox="0 0 194 82" fill="none" xmlns="http://www.w3.org/2000/svg">
<path d="M64.5201 39.252C66.4989 39.252 66.9441 40.1115 66.9441 41.1835C66.9441 42.3198 66.4056 43.1339 64.5283 43.1339C62.6629 43.1339 62.1238 42.3671 62.1238 41.1835C62.1238 40.0188 62.7115 39.252 64.5201 39.252Z" fill="#7780A1"/>
<path d="M85.2003 39.252C87.1791 39.252 87.6243 40.1115 87.6243 41.1835C87.6243 42.3198 87.0851 43.1339 85.2084 43.1339C83.3438 43.1339 82.804 42.3671 82.804 41.1835C82.804 40.0188 83.3917 39.252 85.2003 39.252Z" fill="#7780A1"/>
<path fill-rule="evenodd" clip-rule="evenodd" d="M47 52.3568V30H147V52.3568H47ZM94.6598 51.0956H145.739V31.2612H94.6598V51.0956ZM64.5297 45.0374C68.0428 45.0374 69.5196 43.522 69.5196 41.1554C69.5196 38.7503 67.8561 37.3207 64.5297 37.3207C61.2543 37.3207 59.5302 38.8732 59.5302 41.1554C59.5302 43.7308 61.3388 45.0374 64.5297 45.0374ZM52.3155 37.4909V44.9239H59.406V42.9444H54.8808V37.4909H52.3155ZM77.4551 44.9239L77.3889 44.2037C76.5307 44.8162 75.4862 45.1109 74.4346 45.0374C72.8536 45.0374 71.5369 44.5638 70.7985 43.6078C70.3114 42.9098 70.0655 42.072 70.0979 41.2216C70.0702 40.389 70.3247 39.5715 70.8199 38.9016C71.5672 37.974 72.9217 37.3585 74.9384 37.3585C77.2584 37.3585 78.6218 38.0686 79.2082 39.2617C79.3341 39.5427 79.4081 39.8441 79.4264 40.1515H76.9721C76.9102 39.9647 76.7952 39.8001 76.641 39.6779C76.1521 39.3537 75.5683 39.2038 74.9838 39.2522C74.641 39.2107 74.2931 39.2423 73.9634 39.3452C73.6338 39.448 73.3296 39.6197 73.0712 39.8488C72.7777 40.2505 72.6399 40.745 72.6834 41.2405C72.6493 41.7133 72.776 42.1837 73.0428 42.5755C73.3036 42.8185 73.6136 43.0025 73.9517 43.1152C74.2899 43.2279 74.6483 43.2667 75.0027 43.2288C75.7067 43.2861 76.4056 43.0689 76.9532 42.6228C77.0708 42.4757 77.1519 42.3028 77.1897 42.1183H74.5487V40.521H79.4907V44.9239H77.4551ZM85.2097 45.0374C88.7221 45.0374 90.1996 43.522 90.1996 41.1554C90.1996 38.7503 88.5335 37.3207 85.2097 37.3207C81.9343 37.3207 80.2103 38.8732 80.2103 41.1554C80.2103 43.7308 82.0188 45.0374 85.2097 45.0374Z" fill="#7780A1"/>
<path d="M98.9807 44.8953V37.4624H100.809V44.8953H98.9807Z" fill="#7780A1"/>
<path d="M110.2 41.7899C109.737 42.396 108.939 42.6728 107.815 42.6797C107.578 42.6797 104.434 42.6703 104.434 42.6703V44.8957H102.645V37.4627H107.815C108.23 37.4189 108.649 37.4629 109.045 37.5917C109.442 37.7206 109.806 37.9315 110.116 38.2106C110.525 38.743 110.723 39.4068 110.675 40.076C110.716 40.6846 110.549 41.2893 110.2 41.7899ZM108.733 39.3665C108.544 39.0828 108.136 38.9251 107.445 38.9251H104.425V41.1877H107.426C108.164 41.1877 108.553 41.0364 108.733 40.7425C108.84 40.5355 108.886 40.3024 108.865 40.0703C108.881 39.8283 108.836 39.5862 108.733 39.3665Z" fill="#7780A1"/>
<path d="M115.948 45.0091C112.577 45.0091 111.545 43.7479 111.545 42.4999H113.458C113.458 43.1154 114.301 43.5795 116.033 43.5795C117.756 43.5795 118.211 43.2762 118.211 42.7837C118.211 42.2344 117.87 42.0641 116.27 41.8844C115.955 41.856 115.096 41.752 114.774 41.7047C112.504 41.4487 111.63 40.7765 111.63 39.5739C111.63 38.3051 112.909 37.3491 115.683 37.3491C118.694 37.3491 119.849 38.5328 119.849 39.7637H117.957C117.957 39.1388 117.247 38.7787 115.571 38.7787C113.848 38.7787 113.479 39.0152 113.479 39.4793C113.479 39.9623 113.857 40.1137 115.686 40.3312C116.103 40.3886 117.03 40.4927 117.286 40.5204C119.218 40.7191 120.089 41.4197 120.089 42.6601C120.086 44.1376 118.76 45.0091 115.948 45.0091Z" fill="#7780A1"/>
<path d="M125.474 44.9994C123.004 44.9994 121.394 44.0238 121.394 41.9725V37.4624H123.202V41.9977C123.202 42.9354 123.969 43.5597 125.55 43.5597C126.98 43.5597 127.832 42.9732 127.832 41.9977V37.4624H129.622V42.1408C129.622 44.0055 128.125 44.9994 125.474 44.9994Z" fill="#7780A1"/>
<path d="M139.421 44.8953V39.9337L137.101 44.8953H135.341L133.087 39.9337V44.8953H131.384V37.4624H133.691L136.247 43.1246L138.861 37.4624H141.131V44.8953H139.421Z" fill="#7780A1"/>
<rect x="1" y="1" width="192" height="80" rx="10" stroke="#B7BCCD" stroke-opacity="0.2" stroke-width="2"/>
</svg>
