<svg width="194" height="82" viewBox="0 0 194 82" fill="none" xmlns="http://www.w3.org/2000/svg">
<path d="M57.8016 39.6629C57.4887 39.9778 57.2491 40.3577 57.0998 40.7757C56.9505 41.1937 56.8953 41.6395 56.9379 42.0813L56.9231 42.0665C56.967 42.5866 56.8968 43.1099 56.7176 43.6001C56.5383 44.0902 56.2543 44.5353 55.8853 44.9044C55.5162 45.2734 55.0711 45.5575 54.5809 45.7367C54.0908 45.916 53.5674 45.9861 53.0473 45.9422L53.0622 45.9571C52.4401 45.8992 51.8154 46.0345 51.273 46.3447C50.7307 46.6549 50.2972 47.1248 50.0317 47.6904C49.7663 48.256 49.6816 48.8896 49.7895 49.5051C49.8974 50.1205 50.1924 50.6876 50.6344 51.1292C51.0764 51.5708 51.6438 51.8653 52.2592 51.9725C52.8748 52.0799 53.5083 51.9947 54.0737 51.7287C54.639 51.4627 55.1085 51.0289 55.4182 50.4862C55.7279 49.9436 55.8627 49.3187 55.8043 48.6967L55.82 48.7115C55.776 48.1915 55.8461 47.6681 56.0254 47.1779C56.2047 46.6878 56.4888 46.2427 56.8578 45.8736C57.2268 45.5046 57.672 45.2205 58.1621 45.0413C58.6523 44.8621 59.1756 44.7919 59.6957 44.8358L59.68 44.8209C60.1881 44.8666 60.6997 44.7833 61.1671 44.5787C61.6344 44.3741 62.0426 44.0548 62.3537 43.6505C62.6648 43.2461 62.869 42.7697 62.9469 42.2655C63.0249 41.7613 62.9744 41.2456 62.8 40.766C62.6256 40.2866 62.333 39.8589 61.9493 39.5226C61.5656 39.1863 61.1032 38.9523 60.605 38.8423C60.1068 38.7323 59.5889 38.7498 59.0992 38.8932C58.6096 39.0367 58.1642 39.3014 57.8041 39.6629H57.8016Z" fill="#7780A1"/>
<path d="M51.7106 44.0101L51.6949 43.9952C52.1369 44.0397 52.5833 43.9855 53.0018 43.8363C53.4203 43.6872 53.8004 43.447 54.1146 43.133C54.4288 42.819 54.6694 42.439 54.8188 42.0207C54.9682 41.6023 55.0228 41.156 54.9786 40.714L54.9943 40.7288C54.9504 40.2087 55.0206 39.6854 55.1998 39.1952C55.379 38.7051 55.6631 38.26 56.0321 37.8909C56.4012 37.5219 56.8463 37.2378 57.3364 37.0586C57.8267 36.8793 58.35 36.8092 58.8701 36.8531L58.8544 36.8382C59.4765 36.8967 60.1015 36.7617 60.6441 36.4519C61.1868 36.142 61.6206 35.6723 61.8865 35.1069C62.1524 34.5414 62.2373 33.9076 62.1298 33.2921C62.0223 32.6765 61.7276 32.1092 61.2857 31.6673C60.8438 31.2255 60.2764 30.9307 59.6609 30.8231C59.0454 30.7156 58.4116 30.8006 57.8461 31.0665C57.2806 31.3323 56.811 31.7662 56.5011 32.3088C56.1912 32.8515 56.0563 33.4765 56.1148 34.0986L56.0999 34.0829C56.1439 34.603 56.0739 35.1264 55.8947 35.6167C55.7156 36.1069 55.4314 36.5521 55.0624 36.9212C54.6934 37.2902 54.2482 37.5743 53.758 37.7535C53.2677 37.9327 52.7443 38.0027 52.2242 37.9587L52.239 37.9744C51.7971 37.9298 51.3506 37.9841 50.9322 38.1332C50.5137 38.2822 50.1336 38.5225 49.8193 38.8365C49.5051 39.1505 49.2645 39.5305 49.1151 39.9489C48.9657 40.3673 48.9111 40.8135 48.9553 41.2556L48.9405 41.2407C48.9842 41.7607 48.9139 42.2841 48.7347 42.7742C48.5554 43.2642 48.2713 43.7093 47.9023 44.0783C47.5333 44.4473 47.0882 44.7314 46.5981 44.9107C46.108 45.09 45.5847 45.1602 45.0647 45.1165L45.0796 45.1313C44.4574 45.0729 43.8324 45.2078 43.2898 45.5177C42.7472 45.8275 42.3133 46.2972 42.0474 46.8627C41.7815 47.4282 41.6966 48.0619 41.8041 48.6775C41.9116 49.293 42.2064 49.8604 42.6483 50.3022C43.0901 50.7441 43.6575 51.0389 44.2731 51.1464C44.8886 51.2539 45.5223 51.1689 46.0878 50.9031C46.6533 50.6372 47.123 50.2034 47.4328 49.6608C47.7427 49.118 47.8776 48.4931 47.8192 47.8709L47.8349 47.8858C47.7909 47.3657 47.8611 46.8424 48.0404 46.3522C48.2196 45.8621 48.5037 45.4169 48.8727 45.0479C49.2417 44.6789 49.6869 44.3947 50.177 44.2156C50.6672 44.0363 51.1905 43.9661 51.7106 44.0101Z" fill="#7780A1"/>
<path d="M46.1769 42.3529C46.4899 42.0382 46.7295 41.6582 46.8786 41.2402C47.0278 40.8221 47.0828 40.3763 47.0398 39.9345L47.0554 39.9494C47.0115 39.4292 47.0817 38.9057 47.261 38.4154C47.4403 37.9251 47.7246 37.4799 48.0938 37.1108C48.4631 36.7417 48.9083 36.4577 49.3987 36.2786C49.8891 36.0994 50.4127 36.0295 50.9328 36.0737L50.9171 36.0588C51.539 36.1171 52.1638 35.9821 52.7062 35.6723C53.2486 35.3624 53.6822 34.8928 53.948 34.3275C54.2137 33.7622 54.2985 33.1287 54.191 32.5134C54.0835 31.8981 53.7888 31.3309 53.3471 30.8892C52.9055 30.4475 52.3382 30.1528 51.7229 30.0453C51.1076 29.9378 50.4741 30.0227 49.9088 30.2884C49.3435 30.5541 48.8739 30.9878 48.5641 31.5301C48.2542 32.0725 48.1192 32.6973 48.1775 33.3192L48.1627 33.3043C48.2066 33.8244 48.1364 34.3478 47.9572 34.8379C47.7779 35.3281 47.4939 35.7732 47.1248 36.1423C46.7558 36.5113 46.3107 36.7954 45.8205 36.9746C45.3304 37.1538 44.807 37.224 44.2869 37.1801L44.3018 37.1949C43.7937 37.1494 43.2822 37.2328 42.8149 37.4375C42.3476 37.6422 41.9395 37.9616 41.6285 38.366C41.3174 38.7703 41.1135 39.2467 41.0356 39.7509C40.9576 40.2551 41.0082 40.7709 41.1827 41.2503C41.3571 41.7297 41.6498 42.1573 42.0335 42.4936C42.4172 42.8299 42.8796 43.0638 43.3778 43.1738C43.876 43.2837 44.3939 43.2661 44.8835 43.1226C45.3731 42.9791 45.8185 42.7144 46.1786 42.3529H46.1769Z" fill="#7780A1"/>
<path d="M71.7539 34.1177H74.2062V46.0512H71.7539V34.1177Z" fill="#7780A1"/>
<path d="M75.5951 41.9649C75.5917 41.1074 75.8429 40.268 76.3168 39.5533C76.7908 38.8386 77.4662 38.2806 78.2575 37.95C79.0488 37.6194 79.9204 37.5312 80.7619 37.6964C81.6035 37.8616 82.377 38.2728 82.9847 38.878C83.5923 39.4832 84.0066 40.2551 84.1752 41.096C84.3438 41.9368 84.259 42.8088 83.9316 43.6015C83.6042 44.394 83.049 45.0718 82.3362 45.5485C81.6233 46.0253 80.7851 46.2799 79.9274 46.2799C79.3582 46.2864 78.7934 46.1793 78.2659 45.965C77.7385 45.7506 77.2591 45.4333 76.8557 45.0316C76.4523 44.6299 76.1331 44.1517 75.9167 43.6252C75.7002 43.0986 75.5909 42.5342 75.5951 41.9649ZM81.8075 41.9649C81.7973 41.5952 81.6783 41.2368 81.4655 40.9344C81.2526 40.632 80.9554 40.399 80.6109 40.2647C80.2664 40.1302 79.8899 40.1004 79.5285 40.1788C79.1671 40.2572 78.8369 40.4404 78.579 40.7055C78.3212 40.9705 78.1472 41.3058 78.0789 41.6692C78.0105 42.0326 78.0507 42.4081 78.1947 42.7488C78.3386 43.0895 78.5797 43.3801 78.8878 43.5845C79.196 43.7888 79.5577 43.8978 79.9274 43.8978C80.1807 43.9046 80.4326 43.8588 80.6673 43.7633C80.902 43.6679 81.1143 43.5249 81.2909 43.3433C81.4676 43.1616 81.6047 42.9454 81.6935 42.7082C81.7825 42.471 81.8213 42.2179 81.8075 41.9649Z" fill="#7780A1"/>
<path d="M94.0332 37.8777V45.6391C94.0332 48.3853 91.8914 49.5462 89.7174 49.5462C88.952 49.6035 88.1855 49.4489 87.5021 49.0994C86.8187 48.7498 86.2448 48.2188 85.8433 47.5646L87.9356 46.355C88.1043 46.696 88.3733 46.9773 88.7062 47.1613C89.0393 47.3453 89.4206 47.4232 89.7991 47.3846C90.041 47.4181 90.2874 47.3968 90.52 47.3223C90.7525 47.2477 90.9654 47.1218 91.1427 46.9539C91.3201 46.786 91.4574 46.5804 91.5446 46.3522C91.6317 46.124 91.6664 45.8792 91.6462 45.6358V44.8886C91.359 45.2399 90.9935 45.5191 90.579 45.7036C90.1644 45.8881 89.7124 45.9729 89.2591 45.9512C88.1806 45.9172 87.1577 45.4649 86.4068 44.6899C85.6559 43.915 85.2361 42.8783 85.2361 41.7993C85.2361 40.7203 85.6559 39.6836 86.4068 38.9087C87.1577 38.1337 88.1806 37.6814 89.2591 37.6474C89.7124 37.6257 90.1644 37.7105 90.579 37.895C90.9935 38.0795 91.359 38.3587 91.6462 38.71V37.8761L94.0332 37.8777ZM91.647 41.8005C91.6635 41.4054 91.5613 41.0142 91.3536 40.6776C91.146 40.3409 90.8423 40.0741 90.4817 39.9115C90.1211 39.7489 89.7202 39.6979 89.3304 39.7652C88.9406 39.8324 88.5798 40.0147 88.2945 40.2887C88.0092 40.5627 87.8125 40.9157 87.7295 41.3025C87.6466 41.6892 87.6812 42.092 87.8292 42.4588C87.9771 42.8257 88.2314 43.1399 88.5594 43.3611C88.8873 43.5822 89.274 43.7001 89.6695 43.6996C89.9272 43.7176 90.1857 43.6814 90.4285 43.5934C90.6714 43.5054 90.8931 43.3674 91.0793 43.1886C91.2656 43.0097 91.4124 42.7937 91.5102 42.5546C91.6079 42.3156 91.6546 42.0587 91.647 41.8005Z" fill="#7780A1"/>
<path d="M95.422 41.9649C95.4186 41.1074 95.6697 40.268 96.1437 39.5533C96.6177 38.8386 97.2931 38.2806 98.0844 37.95C98.8757 37.6194 99.7473 37.5312 100.589 37.6964C101.43 37.8616 102.204 38.2728 102.812 38.878C103.419 39.4832 103.834 40.2551 104.002 41.096C104.171 41.9368 104.086 42.8088 103.759 43.6015C103.431 44.394 102.876 45.0718 102.163 45.5485C101.45 46.0253 100.612 46.2799 99.7543 46.2799C99.1851 46.2864 98.6202 46.1793 98.0928 45.965C97.5654 45.7506 97.086 45.4333 96.6826 45.0316C96.2792 44.6299 95.96 44.1517 95.7436 43.6252C95.5271 43.0986 95.4178 42.5342 95.422 41.9649ZM101.634 41.9649C101.624 41.5952 101.505 41.2368 101.292 40.9344C101.08 40.632 100.782 40.399 100.438 40.2647C100.093 40.1302 99.7168 40.1004 99.3554 40.1788C98.994 40.2572 98.6638 40.4404 98.4059 40.7055C98.1481 40.9705 97.9741 41.3058 97.9057 41.6692C97.8373 42.0326 97.8776 42.4081 98.0216 42.7488C98.1655 43.0895 98.4066 43.3801 98.7147 43.5845C99.0229 43.7888 99.3845 43.8978 99.7543 43.8978C100.008 43.9046 100.259 43.8588 100.494 43.7633C100.729 43.6679 100.941 43.5249 101.118 43.3433C101.294 43.1616 101.432 42.9454 101.52 42.7082C101.609 42.471 101.648 42.2179 101.634 41.9649Z" fill="#7780A1"/>
<path d="M105.23 35.6872C105.23 35.3962 105.317 35.1117 105.478 34.8697C105.64 34.6278 105.87 34.4392 106.139 34.3278C106.408 34.2165 106.703 34.1873 106.989 34.2441C107.274 34.3009 107.537 34.441 107.742 34.6468C107.948 34.8525 108.088 35.1147 108.145 35.4001C108.202 35.6855 108.173 35.9814 108.061 36.2502C107.95 36.5191 107.761 36.7489 107.519 36.9106C107.277 37.0723 106.993 37.1585 106.702 37.1585C106.313 37.1547 105.941 36.9984 105.666 36.7233C105.391 36.4482 105.234 36.0762 105.23 35.6872ZM105.478 37.8777H107.931V46.0519H105.475L105.478 37.8777Z" fill="#7780A1"/>
<path d="M118.52 41.9649C118.548 42.5051 118.47 43.0456 118.288 43.5553C118.107 44.065 117.827 44.5338 117.464 44.9349C117.101 45.3358 116.662 45.6611 116.172 45.892C115.683 46.1228 115.153 46.2546 114.613 46.2799C114.158 46.3047 113.704 46.228 113.283 46.0556C112.862 45.883 112.484 45.6189 112.178 45.2825V49.3209H109.726V37.8778H112.178V38.6457C112.484 38.3095 112.862 38.0456 113.283 37.8733C113.704 37.7009 114.158 37.6243 114.613 37.6491C115.153 37.6743 115.683 37.806 116.173 38.0369C116.662 38.2678 117.101 38.5931 117.464 38.9942C117.827 39.3953 118.108 39.8643 118.289 40.3742C118.47 40.8839 118.548 41.4246 118.52 41.9649ZM116.068 41.9649C116.058 41.5824 115.936 41.2111 115.716 40.8976C115.497 40.5842 115.19 40.3424 114.833 40.2027C114.477 40.063 114.088 40.0313 113.714 40.1119C113.339 40.1924 112.997 40.3815 112.73 40.6555C112.463 40.9295 112.283 41.2761 112.212 41.6522C112.14 42.0282 112.182 42.4168 112.331 42.7694C112.479 43.1221 112.729 43.423 113.047 43.6346C113.366 43.8461 113.74 43.959 114.123 43.9589C114.386 43.9706 114.648 43.9266 114.893 43.8299C115.137 43.7332 115.359 43.5858 115.542 43.3975C115.726 43.2092 115.867 42.9843 115.958 42.7374C116.049 42.4905 116.086 42.2272 116.068 41.9649Z" fill="#7780A1"/>
<path d="M126.087 43.5986C126.087 45.4787 124.453 46.2796 122.688 46.2796C121.975 46.3441 121.259 46.1934 120.632 45.8465C120.005 45.4997 119.497 44.9729 119.173 44.3343L121.298 43.1247C121.384 43.4198 121.568 43.6767 121.821 43.8522C122.073 44.0277 122.378 44.1113 122.685 44.0891C123.273 44.0891 123.567 43.9091 123.567 43.5829C123.567 42.6829 119.545 43.1577 119.545 40.3297C119.545 38.5471 121.05 37.6488 122.75 37.6488C123.389 37.6285 124.021 37.7801 124.582 38.0877C125.143 38.3953 125.611 38.8476 125.937 39.3975L123.845 40.5254C123.753 40.3113 123.6 40.1289 123.406 40.001C123.211 39.8731 122.983 39.8054 122.75 39.8063C122.325 39.8063 122.063 39.9714 122.063 40.2637C122.066 41.1959 126.087 40.5741 126.087 43.5986Z" fill="#7780A1"/>
<path d="M135.045 37.8779V46.0521H132.593V45.2834C132.309 45.6226 131.95 45.8899 131.544 46.0633C131.138 46.2367 130.697 46.3112 130.256 46.2809C128.605 46.2809 127.201 45.1043 127.201 42.8956V37.8779H129.653V42.5364C129.633 42.7311 129.655 42.9279 129.718 43.1131C129.781 43.2984 129.884 43.4677 130.02 43.6091C130.155 43.7506 130.32 43.8608 130.502 43.9322C130.684 44.0036 130.879 44.0345 131.075 44.0226C131.974 44.0226 132.595 43.5 132.595 42.3391V37.8804L135.045 37.8779Z" fill="#7780A1"/>
<path d="M149.106 41.0327V46.0512H146.654V41.2449C146.654 40.4275 146.261 39.9048 145.477 39.9048C144.66 39.9048 144.201 40.477 144.201 41.4414V46.0512H141.75V41.2449C141.75 40.4275 141.358 39.9048 140.573 39.9048C139.755 39.9048 139.298 40.477 139.298 41.4414V46.0512H136.845V37.877H139.298V38.6283C139.552 38.295 139.886 38.0306 140.268 37.8595C140.651 37.6882 141.07 37.6156 141.488 37.6483C141.908 37.6277 142.325 37.7163 142.701 37.9053C143.076 38.0942 143.396 38.3773 143.629 38.7266C143.901 38.3611 144.261 38.0704 144.675 37.8818C145.09 37.6933 145.546 37.6129 146 37.6483C147.877 37.6491 149.106 38.9892 149.106 41.0327Z" fill="#7780A1"/>
<path d="M151.18 37.8276C152.185 37.8276 153 37.0128 153 36.0078C153 35.0027 152.185 34.188 151.18 34.188C150.176 34.188 149.361 35.0027 149.361 36.0078C149.361 37.0128 150.176 37.8276 151.18 37.8276Z" fill="#7780A1"/>
<rect x="1" y="1" width="192" height="80" rx="10" stroke="#B7BCCD" stroke-opacity="0.2" stroke-width="2"/>
</svg>
