<svg width="194" height="82" viewBox="0 0 194 82" fill="none" xmlns="http://www.w3.org/2000/svg">
<path d="M58.8172 33.1137V30H49V51.3928H58.8172V48.2791C56.8062 48.2791 54.8774 47.4802 53.4554 46.0581C52.0334 44.6361 51.2345 42.7075 51.2345 40.6964C51.2345 38.6853 52.0334 36.7566 53.4554 35.3346C54.8774 33.9126 56.8062 33.1137 58.8172 33.1137Z" fill="#7780A1"/>
<path d="M58.8171 33.1138V48.2792C60.8282 48.2792 62.7569 47.4803 64.179 46.0582C65.601 44.6362 66.3998 42.7076 66.3998 40.6965C66.3998 38.6854 65.601 36.7567 64.179 35.3347C62.7569 33.9127 60.8282 33.1138 58.8171 33.1138Z" fill="#7780A1"/>
<path d="M71.9097 35.0186H74.1076V45.605H71.9097V35.0186Z" fill="#7780A1"/>
<path d="M75.3382 41.9785C75.3382 41.2169 75.5644 40.4724 75.988 39.8394C76.4116 39.2064 77.0136 38.7134 77.7177 38.4229C78.4219 38.1325 79.1963 38.0577 79.943 38.2078C80.6897 38.358 81.375 38.7266 81.912 39.2666C82.4491 39.8068 82.8137 40.4942 82.9596 41.2417C83.1055 41.9893 83.0262 42.7633 82.7317 43.4658C82.4372 44.1682 81.9408 44.7674 81.3054 45.1873C80.67 45.6073 79.9242 45.8292 79.1626 45.8248C78.6574 45.8288 78.1565 45.7319 77.6893 45.5396C77.2221 45.3475 76.7979 45.0639 76.4417 44.7058C76.0855 44.3475 75.8045 43.9217 75.615 43.4534C75.4255 42.9851 75.3314 42.4837 75.3382 41.9785ZM80.8476 41.9785C80.839 41.6502 80.7337 41.3316 80.545 41.0628C80.3562 40.794 80.0925 40.5867 79.7865 40.467C79.4807 40.3473 79.1463 40.3204 78.8253 40.3898C78.5041 40.4591 78.2107 40.6215 77.9814 40.8568C77.7522 41.0921 77.5974 41.3897 77.5364 41.7125C77.4755 42.0353 77.511 42.3688 77.6386 42.6715C77.7662 42.9741 77.9802 43.2325 78.254 43.4141C78.5276 43.5958 78.8487 43.6927 79.1772 43.6929C79.4009 43.6973 79.623 43.6555 79.8298 43.57C80.0365 43.4847 80.2234 43.3576 80.3788 43.1967C80.5342 43.0358 80.6547 42.8445 80.7329 42.635C80.811 42.4254 80.8451 42.2019 80.833 41.9785H80.8476Z" fill="#7780A1"/>
<path d="M91.6829 38.3521V45.2461C91.6829 47.6784 89.7781 48.7114 87.8512 48.7114C87.1716 48.7672 86.4899 48.6322 85.8829 48.3215C85.2758 48.0109 84.7675 47.5369 84.4152 46.9531L86.2688 45.8835C86.419 46.1863 86.6579 46.4362 86.9537 46.5998C87.2495 46.7634 87.5882 46.833 87.9245 46.7993C88.1388 46.8256 88.3562 46.8044 88.5613 46.737C88.7664 46.6695 88.9541 46.5576 89.1109 46.4092C89.2677 46.2608 89.3898 46.0796 89.4684 45.8785C89.547 45.6775 89.5802 45.4615 89.5656 45.2461V44.5794C89.3098 44.8895 88.9853 45.1357 88.6178 45.2985C88.2502 45.4613 87.8499 45.5361 87.4483 45.5172C86.4768 45.5172 85.5451 45.1312 84.8581 44.4442C84.1711 43.7573 83.7852 42.8256 83.7852 41.854C83.7852 40.8825 84.1711 39.9508 84.8581 39.2638C85.5451 38.5768 86.4768 38.1909 87.4483 38.1909C87.8499 38.1719 88.2502 38.2468 88.6178 38.4096C88.9853 38.5724 89.3098 38.8185 89.5656 39.1286V38.396L91.6829 38.3521ZM89.5656 41.832C89.5802 41.4815 89.4896 41.1346 89.3055 40.836C89.1214 40.5374 88.8522 40.3007 88.5324 40.1563C88.2127 40.0119 87.8572 39.9665 87.5114 40.0258C87.1657 40.0852 86.8455 40.2466 86.5922 40.4893C86.339 40.732 86.1641 41.045 86.0901 41.3879C86.0161 41.7309 86.0463 42.088 86.177 42.4136C86.3077 42.7392 86.5327 43.0182 86.8232 43.2149C87.1138 43.4115 87.4565 43.5168 87.8073 43.5171C88.0362 43.5336 88.2661 43.5018 88.4819 43.424C88.6978 43.3462 88.895 43.2239 89.0607 43.0651C89.2264 42.9063 89.3569 42.7145 89.4439 42.5021C89.5309 42.2897 89.5723 42.0614 89.5656 41.832Z" fill="#7780A1"/>
<path d="M92.9214 41.9786C92.9214 41.2176 93.1472 40.4737 93.5701 39.841C93.9931 39.2083 94.5942 38.7153 95.2975 38.4244C96.0007 38.1335 96.7744 38.0578 97.5208 38.2068C98.2671 38.3558 98.9524 38.7228 99.4901 39.2615C100.028 39.8002 100.393 40.4862 100.541 41.2328C100.689 41.9794 100.611 42.753 100.319 43.4556C100.027 44.1584 99.5327 44.7585 98.8993 45.1803C98.2658 45.6021 97.5214 45.8264 96.7604 45.8249C96.2543 45.8299 95.7522 45.7337 95.2838 45.542C94.8153 45.3503 94.3898 45.0671 94.0323 44.7089C93.6747 44.3506 93.3923 43.9246 93.2015 43.4558C93.0108 42.987 92.9155 42.4847 92.9214 41.9786ZM98.4308 41.9786C98.4221 41.65 98.3166 41.3311 98.1276 41.0621C97.9386 40.7932 97.6743 40.5859 97.368 40.4664C97.0617 40.3469 96.727 40.3205 96.4057 40.3904C96.0844 40.4603 95.791 40.6236 95.562 40.8595C95.3331 41.0955 95.1788 41.3939 95.1188 41.7171C95.0586 42.0403 95.0952 42.3741 95.2239 42.6766C95.3526 42.9792 95.5678 43.237 95.8425 43.4178C96.1171 43.5986 96.4389 43.6943 96.7677 43.693C96.9914 43.6974 97.2135 43.6556 97.4203 43.5701C97.627 43.4848 97.8139 43.3577 97.9693 43.1968C98.1247 43.0359 98.2452 42.8446 98.3234 42.6351C98.4015 42.4255 98.4356 42.202 98.4234 41.9786H98.4308Z" fill="#7780A1"/>
<path d="M101.617 36.4105C101.617 36.1526 101.694 35.9005 101.837 35.686C101.98 35.4716 102.184 35.3044 102.422 35.2057C102.661 35.107 102.923 35.0812 103.176 35.1315C103.429 35.1818 103.661 35.306 103.843 35.4884C104.026 35.6708 104.15 35.9032 104.2 36.1561C104.251 36.4091 104.225 36.6713 104.126 36.9096C104.027 37.1478 103.86 37.3515 103.646 37.4948C103.431 37.6381 103.179 37.7146 102.921 37.7146C102.577 37.7108 102.247 37.5722 102.003 37.3284C101.76 37.0847 101.621 36.7552 101.617 36.4105ZM101.83 38.352H104.028V45.605H101.83V38.352Z" fill="#7780A1"/>
<path d="M113.435 41.9785C113.459 42.4608 113.388 42.9433 113.226 43.3981C113.063 43.853 112.812 44.2711 112.487 44.6286C112.163 44.9861 111.77 45.2758 111.333 45.4811C110.896 45.6864 110.422 45.8031 109.94 45.8248C109.53 45.852 109.12 45.7864 108.74 45.633C108.359 45.4794 108.018 45.242 107.742 44.9383V48.5208H105.544V38.3519H107.742V39.0333C108.018 38.7305 108.36 38.4942 108.74 38.3419C109.121 38.1896 109.531 38.1254 109.94 38.1541C110.421 38.1758 110.892 38.2919 111.328 38.4958C111.764 38.6997 112.155 38.9874 112.479 39.3425C112.804 39.6976 113.055 40.1132 113.219 40.5655C113.383 41.0178 113.456 41.4979 113.435 41.9785ZM111.237 41.9785C111.228 41.6382 111.119 41.308 110.924 41.0294C110.728 40.7508 110.455 40.536 110.138 40.4121C109.821 40.2881 109.474 40.2606 109.142 40.3328C108.809 40.4049 108.505 40.5737 108.268 40.8179C108.031 41.0621 107.871 41.3708 107.809 41.7055C107.746 42.0401 107.784 42.3857 107.917 42.6989C108.05 43.0121 108.273 43.2791 108.557 43.4664C108.841 43.6536 109.175 43.7527 109.515 43.7514C109.748 43.7613 109.981 43.7218 110.198 43.6355C110.414 43.5492 110.611 43.4181 110.773 43.2507C110.936 43.0833 111.061 42.8833 111.141 42.6641C111.221 42.4449 111.253 42.2112 111.237 41.9785Z" fill="#7780A1"/>
<path d="M120.124 43.429C120.124 45.0994 118.658 45.81 117.105 45.81C116.472 45.867 115.836 45.7327 115.279 45.4245C114.723 45.1163 114.272 44.6483 113.984 44.081L115.874 43.0114C115.949 43.2728 116.112 43.5006 116.334 43.6566C116.557 43.8127 116.827 43.8875 117.098 43.8686C117.618 43.8686 117.882 43.7074 117.882 43.4143C117.882 42.6158 114.314 43.0407 114.314 40.5278C114.314 38.9453 115.647 38.1541 117.156 38.1541C117.73 38.1284 118.3 38.2585 118.806 38.5307C119.311 38.8029 119.734 39.2069 120.028 39.6999L118.138 40.6963C118.055 40.5073 117.918 40.3465 117.745 40.2334C117.572 40.1203 117.37 40.0597 117.164 40.0589C116.783 40.0589 116.556 40.2054 116.556 40.4618C116.556 41.297 120.124 40.7476 120.124 43.429Z" fill="#7780A1"/>
<path d="M128.087 38.3521V45.6051H125.89V44.9237C125.64 45.2254 125.322 45.464 124.964 45.6205C124.605 45.7771 124.215 45.8471 123.824 45.8249C122.358 45.8249 121.105 44.7772 121.105 42.8211V38.3521H123.303V42.4914C123.286 42.6645 123.306 42.8392 123.363 43.0036C123.421 43.1679 123.512 43.318 123.632 43.4434C123.753 43.5687 123.9 43.6665 124.062 43.7298C124.224 43.7931 124.397 43.8205 124.571 43.8101C125.362 43.8101 125.919 43.3413 125.919 42.3449V38.3521H128.087Z" fill="#7780A1"/>
<path d="M140.542 41.1504V45.6048H138.344V41.3409C138.344 40.6082 138 40.154 137.304 40.154C136.608 40.154 136.168 40.6595 136.168 41.5167V45.6048H133.97V41.3409C133.97 40.6082 133.626 40.154 132.93 40.154C132.234 40.154 131.795 40.6595 131.795 41.5167V45.6048H129.597V38.3518H131.795V39.0184C132.022 38.7239 132.319 38.4907 132.66 38.3397C133 38.1888 133.373 38.1249 133.743 38.1539C134.115 38.1345 134.486 38.2122 134.818 38.3792C135.151 38.5461 135.434 38.7967 135.641 39.1064C135.883 38.7828 136.202 38.5258 136.57 38.3593C136.937 38.1927 137.341 38.1221 137.744 38.1539C139.458 38.1539 140.542 39.3408 140.542 41.1504Z" fill="#7780A1"/>
<path d="M142.389 38.308C143.279 38.308 144 37.5864 144 36.6963C144 35.8061 143.279 35.0845 142.389 35.0845C141.498 35.0845 140.777 35.8061 140.777 36.6963C140.777 37.5864 141.498 38.308 142.389 38.308Z" fill="#7780A1"/>
<rect x="1" y="1" width="192" height="80" rx="10" stroke="#B7BCCD" stroke-opacity="0.2" stroke-width="2"/>
</svg>
