<svg width="194" height="82" viewBox="0 0 194 82" fill="none" xmlns="http://www.w3.org/2000/svg">
<path d="M75.1935 42.4091H78.7435V44.5011H72.4834V33.3755H75.1935V42.4091Z" fill="#7780A1"/>
<path d="M83.5858 44.6278C82.7194 44.6278 81.9375 44.4429 81.2402 44.073C80.5534 43.7033 80.0094 43.175 79.6078 42.4882C79.217 41.8014 79.0215 40.9985 79.0215 40.0792C79.0215 39.1707 79.2222 38.3729 79.6237 37.6862C80.0252 36.9888 80.5746 36.4552 81.2719 36.0855C81.9693 35.7157 82.7511 35.5308 83.6175 35.5308C84.4839 35.5308 85.2657 35.7157 85.9631 36.0855C86.6604 36.4552 87.2098 36.9888 87.6113 37.6862C88.0128 38.3729 88.2135 39.1707 88.2135 40.0792C88.2135 40.9879 88.0076 41.7909 87.5954 42.4882C87.194 43.175 86.6392 43.7033 85.9314 44.073C85.234 44.4429 84.4522 44.6278 83.5858 44.6278ZM83.5858 42.2822C84.1035 42.2822 84.542 42.092 84.9012 41.7116C85.271 41.3313 85.4559 40.7872 85.4559 40.0792C85.4559 39.3713 85.2763 38.8273 84.9171 38.4469C84.5684 38.0665 84.1352 37.8763 83.6175 37.8763C83.0892 37.8763 82.6507 38.0665 82.3021 38.4469C81.9534 38.8167 81.7791 39.3608 81.7791 40.0792C81.7791 40.7872 81.9481 41.3313 82.2862 41.7116C82.6349 42.092 83.0681 42.2822 83.5858 42.2822Z" fill="#7780A1"/>
<path d="M92.5362 35.5308C93.1595 35.5308 93.7037 35.6575 94.1686 35.9111C94.644 36.1647 95.0085 36.4975 95.2621 36.9096V35.6575H97.9722V44.4851C97.9722 45.2987 97.8084 46.033 97.4809 46.688C97.1639 47.3537 96.6726 47.882 96.007 48.2729C95.3519 48.6638 94.5331 48.8593 93.5505 48.8593C92.2403 48.8593 91.1785 48.5476 90.365 47.9242C89.5514 47.3114 89.0865 46.4768 88.9703 45.4202H91.6487C91.7332 45.7583 91.934 46.0224 92.2509 46.2126C92.5679 46.4133 92.9588 46.5137 93.4237 46.5137C93.9837 46.5137 94.4274 46.35 94.755 46.0224C95.093 45.7055 95.2621 45.193 95.2621 44.4851V43.2331C94.9979 43.6451 94.6335 43.9832 94.1686 44.2474C93.7037 44.5009 93.1595 44.6278 92.5362 44.6278C91.8072 44.6278 91.1468 44.4429 90.5551 44.073C89.9634 43.6927 89.4933 43.1592 89.1447 42.4724C88.8065 41.7751 88.6375 40.9721 88.6375 40.0634C88.6375 39.1548 88.8065 38.3571 89.1447 37.6703C89.4933 36.9836 89.9634 36.4552 90.5551 36.0855C91.1468 35.7157 91.8072 35.5308 92.5362 35.5308ZM95.2621 40.0792C95.2621 39.4031 95.0719 38.8695 94.6916 38.4786C94.3218 38.0876 93.8674 37.8921 93.3286 37.8921C92.7898 37.8921 92.3302 38.0876 91.9498 38.4786C91.58 38.8589 91.3951 39.3872 91.3951 40.0634C91.3951 40.7397 91.58 41.2784 91.9498 41.68C92.3302 42.0709 92.7898 42.2663 93.3286 42.2663C93.8674 42.2663 94.3218 42.0709 94.6916 41.68C95.0719 41.289 95.2621 40.7554 95.2621 40.0792Z" fill="#7780A1"/>
<path d="M103.483 44.6278C102.616 44.6278 101.835 44.4429 101.137 44.073C100.45 43.7033 99.9063 43.175 99.5049 42.4882C99.1139 41.8014 98.9185 40.9985 98.9185 40.0792C98.9185 39.1707 99.1192 38.3729 99.5207 37.6862C99.9222 36.9888 100.472 36.4552 101.169 36.0855C101.866 35.7157 102.648 35.5308 103.514 35.5308C104.381 35.5308 105.163 35.7157 105.86 36.0855C106.557 36.4552 107.107 36.9888 107.508 37.6862C107.91 38.3729 108.111 39.1707 108.111 40.0792C108.111 40.9879 107.905 41.7909 107.492 42.4882C107.091 43.175 106.536 43.7033 105.828 44.073C105.131 44.4429 104.349 44.6278 103.483 44.6278ZM103.483 42.2822C104.001 42.2822 104.439 42.092 104.798 41.7116C105.168 41.3313 105.353 40.7872 105.353 40.0792C105.353 39.3713 105.173 38.8273 104.814 38.4469C104.465 38.0665 104.032 37.8763 103.514 37.8763C102.986 37.8763 102.548 38.0665 102.199 38.4469C101.85 38.8167 101.676 39.3608 101.676 40.0792C101.676 40.7872 101.845 41.3313 102.183 41.7116C102.532 42.092 102.965 42.2822 103.483 42.2822Z" fill="#7780A1"/>
<path d="M110.436 34.7386C109.961 34.7386 109.57 34.6012 109.263 34.3265C108.968 34.0413 108.82 33.6926 108.82 33.2805C108.82 32.8579 108.968 32.5093 109.263 32.2345C109.57 31.9493 109.961 31.8066 110.436 31.8066C110.901 31.8066 111.281 31.9493 111.577 32.2345C111.884 32.5093 112.037 32.8579 112.037 33.2805C112.037 33.6926 111.884 34.0413 111.577 34.3265C111.281 34.6012 110.901 34.7386 110.436 34.7386ZM111.783 35.6578V44.5012H109.073V35.6578H111.783Z" fill="#7780A1"/>
<path d="M115.982 36.9096C116.246 36.4975 116.61 36.1647 117.075 35.9111C117.54 35.6575 118.084 35.5308 118.708 35.5308C119.437 35.5308 120.097 35.7157 120.689 36.0855C121.281 36.4552 121.745 36.9836 122.084 37.6703C122.432 38.3571 122.607 39.1548 122.607 40.0634C122.607 40.9721 122.432 41.7751 122.084 42.4724C121.745 43.1592 121.281 43.6927 120.689 44.073C120.097 44.4429 119.437 44.6278 118.708 44.6278C118.095 44.6278 117.551 44.5009 117.075 44.2474C116.61 43.9938 116.246 43.6663 115.982 43.2648V48.7167H113.272V35.6575H115.982V36.9096ZM119.849 40.0634C119.849 39.3872 119.659 38.8589 119.278 38.4786C118.909 38.0876 118.449 37.8921 117.9 37.8921C117.36 37.8921 116.901 38.0876 116.521 38.4786C116.151 38.8695 115.966 39.4031 115.966 40.0792C115.966 40.7554 116.151 41.289 116.521 41.68C116.901 42.0709 117.36 42.2663 117.9 42.2663C118.439 42.2663 118.898 42.0709 119.278 41.68C119.659 41.2784 119.849 40.7397 119.849 40.0634Z" fill="#7780A1"/>
<path d="M127.15 44.6278C126.378 44.6278 125.692 44.4957 125.09 44.2315C124.487 43.9674 124.012 43.6082 123.664 43.1539C123.315 42.689 123.119 42.1712 123.077 41.6007H125.756C125.787 41.9071 125.93 42.1554 126.184 42.3456C126.437 42.5358 126.749 42.6309 127.119 42.6309C127.457 42.6309 127.715 42.5675 127.895 42.4407C128.086 42.3034 128.181 42.129 128.181 41.9177C128.181 41.6641 128.048 41.4792 127.784 41.363C127.52 41.2362 127.092 41.0988 126.5 40.9509C125.866 40.803 125.338 40.6498 124.915 40.4913C124.493 40.3222 124.129 40.0634 123.822 39.7147C123.516 39.3555 123.362 38.8748 123.362 38.2725C123.362 37.7654 123.5 37.3058 123.774 36.8937C124.059 36.4711 124.472 36.1383 125.01 35.8953C125.56 35.6523 126.21 35.5308 126.96 35.5308C128.069 35.5308 128.941 35.8055 129.575 36.3549C130.22 36.9043 130.589 37.6333 130.684 38.542H128.181C128.138 38.2355 128 37.9925 127.768 37.8129C127.546 37.6333 127.25 37.5435 126.881 37.5435C126.564 37.5435 126.321 37.6069 126.151 37.7337C125.983 37.8499 125.898 38.0137 125.898 38.225C125.898 38.4786 126.03 38.6687 126.294 38.7955C126.569 38.9223 126.992 39.0491 127.563 39.1759C128.217 39.345 128.751 39.514 129.163 39.6831C129.575 39.8415 129.934 40.1057 130.24 40.4755C130.558 40.8347 130.721 41.3207 130.732 41.9335C130.732 42.4513 130.584 42.9162 130.288 43.3282C130.003 43.7297 129.585 44.0467 129.036 44.2791C128.497 44.5115 127.868 44.6278 127.15 44.6278Z" fill="#7780A1"/>
<path d="M140.647 35.6577V44.5011H137.937V43.2967C137.662 43.6876 137.287 44.0046 136.812 44.2476C136.347 44.48 135.829 44.5962 135.259 44.5962C134.582 44.5962 133.985 44.4484 133.467 44.1525C132.95 43.8461 132.549 43.4076 132.263 42.837C131.978 42.2665 131.835 41.5956 131.835 40.8243V35.6577H134.529V40.4598C134.529 41.0515 134.683 41.5111 134.989 41.8386C135.296 42.1662 135.707 42.3299 136.225 42.3299C136.753 42.3299 137.17 42.1662 137.477 41.8386C137.784 41.5111 137.937 41.0515 137.937 40.4598V35.6577H140.647Z" fill="#7780A1"/>
<path d="M153.401 35.5625C154.5 35.5625 155.372 35.8953 156.016 36.5609C156.672 37.2266 156.999 38.1511 156.999 39.3344V44.501H154.305V39.6989C154.305 39.1284 154.152 38.69 153.845 38.3835C153.549 38.0666 153.137 37.9081 152.609 37.9081C152.081 37.9081 151.664 38.0666 151.357 38.3835C151.062 38.69 150.914 39.1284 150.914 39.6989V44.501H148.219V39.6989C148.219 39.1284 148.066 38.69 147.759 38.3835C147.463 38.0666 147.052 37.9081 146.523 37.9081C145.995 37.9081 145.578 38.0666 145.271 38.3835C144.976 38.69 144.828 39.1284 144.828 39.6989V44.501H142.118V35.6576H144.828V36.767C145.102 36.3972 145.461 36.1066 145.905 35.8953C146.349 35.6734 146.851 35.5625 147.411 35.5625C148.076 35.5625 148.668 35.7051 149.186 35.9904C149.714 36.2757 150.126 36.6825 150.422 37.2108C150.729 36.7247 151.146 36.3285 151.674 36.0221C152.203 35.7157 152.779 35.5625 153.401 35.5625Z" fill="#7780A1"/>
<path opacity="0.5" d="M45.8536 31H57.8961L49.0425 44.1229H37L45.8536 31Z" fill="#7780A1"/>
<path d="M46.3814 45.3394L42.9521 50.4222H55.5659L64.4195 37.2993H55.1098L49.6854 45.3394H46.3814Z" fill="#7780A1"/>
<rect x="1" y="1" width="192" height="80" rx="10" stroke="#B7BCCD" stroke-opacity="0.2" stroke-width="2"/>
</svg>
