<svg width="194" height="82" viewBox="0 0 194 82" fill="none" xmlns="http://www.w3.org/2000/svg">
<path d="M74.2625 46.4703H82.1383V44.098H77.0617V35.1626H74.2625V46.4703Z" fill="#7780A1"/>
<path d="M86.8048 44.889C85.6819 44.889 85.0968 43.9085 85.0968 42.4377C85.0968 40.9669 85.6819 39.9706 86.8048 39.9706C87.9276 39.9706 88.5286 40.9669 88.5286 42.4377C88.5286 43.9085 87.9276 44.889 86.8048 44.889ZM86.8206 46.7236C89.4301 46.7236 91.1381 44.8732 91.1381 42.4377C91.1381 40.0022 89.4301 38.1519 86.8206 38.1519C84.2269 38.1519 82.4873 40.0022 82.4873 42.4377C82.4873 44.8732 84.2269 46.7236 86.8206 46.7236Z" fill="#7780A1"/>
<path d="M95.6546 49.2695C96.8565 49.2695 97.9161 49.0006 98.6278 48.368C99.2762 47.7829 99.7032 46.8972 99.7032 45.6795V38.373H97.2361V39.2428H97.2044C96.73 38.5627 96.0025 38.1357 94.9271 38.1357C92.9186 38.1357 91.5269 39.8121 91.5269 42.1844C91.5269 44.6673 93.2191 46.0274 95.0378 46.0274C96.0183 46.0274 96.6351 45.632 97.1095 45.0943H97.1728V45.9009C97.1728 46.8814 96.7142 47.4508 95.6229 47.4508C94.7689 47.4508 94.3419 47.087 94.1996 46.66H91.7008C91.9539 48.3522 93.4247 49.2695 95.6546 49.2695ZM95.6387 44.1138C94.674 44.1138 94.0414 43.323 94.0414 42.1053C94.0414 40.8717 94.674 40.081 95.6387 40.081C96.7142 40.081 97.2835 40.9982 97.2835 42.0895C97.2835 43.2282 96.7616 44.1138 95.6387 44.1138Z" fill="#7780A1"/>
<path d="M104.776 44.889C103.654 44.889 103.068 43.9085 103.068 42.4377C103.068 40.9669 103.654 39.9706 104.776 39.9706C105.899 39.9706 106.5 40.9669 106.5 42.4377C106.5 43.9085 105.899 44.889 104.776 44.889ZM104.792 46.7236C107.402 46.7236 109.109 44.8732 109.109 42.4377C109.109 40.0022 107.402 38.1519 104.792 38.1519C102.199 38.1519 100.459 40.0022 100.459 42.4377C100.459 44.8732 102.199 46.7236 104.792 46.7236Z" fill="#7780A1"/>
<path d="M109.863 46.4703H112.441V38.373H109.863V46.4703ZM109.863 37.2502H112.441V35.1626H109.863V37.2502Z" fill="#7780A1"/>
<path d="M113.559 49.143H116.136V45.632H116.168C116.674 46.3121 117.417 46.7233 118.461 46.7233C120.58 46.7233 121.988 45.0469 121.988 42.4216C121.988 39.9861 120.675 38.1357 118.524 38.1357C117.417 38.1357 116.627 38.626 116.073 39.3535H116.026V38.373H113.559V49.143ZM117.797 44.7306C116.69 44.7306 116.057 43.8291 116.057 42.5165C116.057 41.2038 116.627 40.2075 117.75 40.2075C118.857 40.2075 119.378 41.1248 119.378 42.5165C119.378 43.8924 118.778 44.7306 117.797 44.7306Z" fill="#7780A1"/>
<path d="M126.185 46.7233C128.304 46.7233 129.87 45.806 129.87 44.0347C129.87 41.963 128.193 41.5992 126.77 41.362C125.742 41.1722 124.825 41.0931 124.825 40.5238C124.825 40.0177 125.315 39.7805 125.948 39.7805C126.659 39.7805 127.15 40.0019 127.245 40.7294H129.617C129.49 39.1321 128.257 38.1357 125.964 38.1357C124.05 38.1357 122.468 39.0214 122.468 40.7294C122.468 42.6272 123.971 43.0067 125.378 43.244C126.454 43.4338 127.434 43.5128 127.434 44.2403C127.434 44.7622 126.944 45.0469 126.169 45.0469C125.315 45.0469 124.777 44.6515 124.683 43.8449H122.247C122.326 45.632 123.813 46.7233 126.185 46.7233Z" fill="#7780A1"/>
<path d="M133.371 46.7075C134.494 46.7075 135.206 46.2647 135.791 45.474H135.838V46.4703H138.306V38.373H135.728V42.8961C135.728 43.8608 135.19 44.5251 134.304 44.5251C133.482 44.5251 133.087 44.0348 133.087 43.1492V38.373H130.525V43.6869C130.525 45.4898 131.505 46.7075 133.371 46.7075Z" fill="#7780A1"/>
<path d="M139.427 46.4702H142.005V41.9313C142.005 40.9666 142.48 40.2866 143.286 40.2866C144.061 40.2866 144.425 40.7927 144.425 41.6625V46.4702H147.003V41.9313C147.003 40.9666 147.461 40.2866 148.284 40.2866C149.059 40.2866 149.422 40.7927 149.422 41.6625V46.4702H152V41.2038C152 39.3851 151.083 38.1357 149.248 38.1357C148.205 38.1357 147.335 38.5786 146.702 39.5591H146.67C146.259 38.6893 145.453 38.1357 144.393 38.1357C143.223 38.1357 142.448 38.6893 141.942 39.5275H141.894V38.373H139.427V46.4702Z" fill="#7780A1"/>
<path d="M58.5349 28.6944L55.9432 28L53.7592 36.151L51.7874 28.7922L49.1956 29.4867L51.326 37.4373L46.0197 32.131L44.1224 34.0282L49.9428 39.8487L42.6944 37.9065L42 40.4981L49.9197 42.6202C49.8291 42.2292 49.7811 41.8217 49.7811 41.403C49.7811 38.4392 52.1837 36.0367 55.1474 36.0367C58.1111 36.0367 60.5137 38.4392 60.5137 41.403C60.5137 41.819 60.4663 42.224 60.3767 42.6127L67.5743 44.5413L68.2687 41.9496L60.3175 39.8191L67.5663 37.8767L66.8719 35.2851L58.921 37.4155L64.2273 32.1092L62.33 30.2119L56.5904 35.9516L58.5349 28.6944Z" fill="#7780A1"/>
<path d="M60.3699 42.6431C60.1477 43.5825 59.6786 44.4264 59.0349 45.1026L64.2492 50.3169L66.1465 48.4197L60.3699 42.6431Z" fill="#7780A1"/>
<path d="M58.9821 45.1572C58.3307 45.8226 57.5074 46.3191 56.5842 46.575L58.4816 53.6561L61.0733 52.9616L58.9821 45.1572Z" fill="#7780A1"/>
<path d="M56.4877 46.601C56.0594 46.7112 55.6105 46.7697 55.1478 46.7697C54.6521 46.7697 54.1722 46.7025 53.7165 46.5767L51.8174 53.6643L54.4091 54.3587L56.4877 46.601Z" fill="#7780A1"/>
<path d="M53.625 46.5505C52.7159 46.2819 51.9073 45.7791 51.2692 45.1118L46.042 50.339L47.9393 52.2363L53.625 46.5505Z" fill="#7780A1"/>
<path d="M51.2252 45.0658C50.598 44.3943 50.1412 43.5616 49.9237 42.6367L42.7026 44.5716L43.3971 47.1633L51.2252 45.0658Z" fill="#7780A1"/>
<rect x="1" y="1" width="192" height="80" rx="10" stroke="#B7BCCD" stroke-opacity="0.2" stroke-width="2"/>
</svg>
