<svg width="194" height="82" viewBox="0 0 194 82" fill="none" xmlns="http://www.w3.org/2000/svg">
<path d="M71.1035 32.7969H73.6002V46.415H77.7083V48.6848H71.1035V32.7969Z" fill="#7780A1"/>
<path d="M82.4256 48.9116C81.2 48.9116 80.2619 48.5636 79.6112 47.8676C78.9606 47.1715 78.6353 46.188 78.6353 44.917V36.5645C78.6353 35.2935 78.9606 34.3099 79.6112 33.6139C80.2619 32.9178 81.2 32.5698 82.4256 32.5698C83.6513 32.5698 84.5894 32.9178 85.2401 33.6139C85.8907 34.3099 86.216 35.2935 86.216 36.5645V44.917C86.216 46.188 85.8907 47.1715 85.2401 47.8676C84.5894 48.5636 83.6513 48.9116 82.4256 48.9116ZM82.4256 46.642C83.2881 46.642 83.7194 46.1199 83.7194 45.0758V36.4056C83.7194 35.3616 83.2881 34.8395 82.4256 34.8395C81.5631 34.8395 81.1319 35.3616 81.1319 36.4056V45.0758C81.1319 46.1199 81.5631 46.642 82.4256 46.642Z" fill="#7780A1"/>
<path d="M91.4455 48.9116C90.235 48.9116 89.312 48.5712 88.6764 47.8903C88.0409 47.1943 87.7231 46.2031 87.7231 44.917V36.5645C87.7231 35.2783 88.0409 34.2948 88.6764 33.6139C89.312 32.9178 90.235 32.5698 91.4455 32.5698C92.656 32.5698 93.579 32.9178 94.2145 33.6139C94.85 34.2948 95.1678 35.2783 95.1678 36.5645V37.9263H92.8073V36.4056C92.8073 35.3616 92.376 34.8395 91.5135 34.8395C90.6511 34.8395 90.2198 35.3616 90.2198 36.4056V45.0986C90.2198 46.1275 90.6511 46.642 91.5135 46.642C92.376 46.642 92.8073 46.1275 92.8073 45.0986V41.9891H91.559V39.7194H95.1678V44.917C95.1678 46.2031 94.85 47.1943 94.2145 47.8903C93.579 48.5712 92.656 48.9116 91.4455 48.9116Z" fill="#7780A1"/>
<path d="M100.379 48.9116C99.1539 48.9116 98.2157 48.5636 97.5651 47.8676C96.9144 47.1715 96.5891 46.188 96.5891 44.917V36.5645C96.5891 35.2935 96.9144 34.3099 97.5651 33.6139C98.2157 32.9178 99.1539 32.5698 100.379 32.5698C101.605 32.5698 102.543 32.9178 103.194 33.6139C103.845 34.3099 104.17 35.2935 104.17 36.5645V44.917C104.17 46.188 103.845 47.1715 103.194 47.8676C102.543 48.5636 101.605 48.9116 100.379 48.9116ZM100.379 46.642C101.242 46.642 101.673 46.1199 101.673 45.0758V36.4056C101.673 35.3616 101.242 34.8395 100.379 34.8395C99.517 34.8395 99.0858 35.3616 99.0858 36.4056V45.0758C99.0858 46.1199 99.517 46.642 100.379 46.642Z" fill="#7780A1"/>
<path d="M105.863 32.7969H108.36V48.6848H105.863V32.7969Z" fill="#7780A1"/>
<path d="M110.229 32.7969H113.906C115.147 32.7969 116.078 33.1298 116.698 33.7955C117.319 34.4613 117.629 35.4373 117.629 36.7235V38.2895C117.629 39.5757 117.319 40.5517 116.698 41.2175C116.078 41.8832 115.147 42.2161 113.906 42.2161H112.726V48.6848H110.229V32.7969ZM113.906 39.9464C114.315 39.9464 114.618 39.8329 114.814 39.606C115.026 39.379 115.132 38.9932 115.132 38.4484V36.5646C115.132 36.0198 115.026 35.634 114.814 35.407C114.618 35.1801 114.315 35.0666 113.906 35.0666H112.726V39.9464H113.906Z" fill="#7780A1"/>
<path d="M122.318 48.9116C121.108 48.9116 120.193 48.5712 119.572 47.8903C118.952 47.1943 118.642 46.2031 118.642 44.917V44.0091H121.002V45.0986C121.002 46.1275 121.433 46.642 122.296 46.642C122.72 46.642 123.037 46.5209 123.249 46.2788C123.476 46.0216 123.59 45.613 123.59 45.0531C123.59 44.3874 123.438 43.8048 123.136 43.3055C122.833 42.791 122.273 42.1782 121.456 41.467C120.427 40.5591 119.708 39.7421 119.3 39.0158C118.892 38.2743 118.687 37.4421 118.687 36.5191C118.687 35.2632 119.005 34.2948 119.64 33.6139C120.276 32.9178 121.199 32.5698 122.41 32.5698C123.605 32.5698 124.505 32.9178 125.11 33.6139C125.731 34.2948 126.041 35.2783 126.041 36.5645V37.2227H123.68V36.4056C123.68 35.8609 123.575 35.4675 123.363 35.2254C123.151 34.9681 122.841 34.8395 122.432 34.8395C121.6 34.8395 121.184 35.3464 121.184 36.3602C121.184 36.9352 121.335 37.4724 121.638 37.9717C121.955 38.471 122.523 39.0763 123.34 39.7875C124.384 40.6953 125.103 41.52 125.497 42.2615C125.89 43.0029 126.087 43.8729 126.087 44.8716C126.087 46.1729 125.761 47.1715 125.11 47.8676C124.475 48.5636 123.544 48.9116 122.318 48.9116Z" fill="#7780A1"/>
<path d="M131.15 48.9117C129.94 48.9117 129.016 48.5713 128.381 47.8903C127.745 47.1943 127.428 46.2032 127.428 44.917V32.7969H129.925V45.0987C129.925 45.6433 130.03 46.0368 130.242 46.2789C130.469 46.521 130.787 46.642 131.195 46.642C131.604 46.642 131.914 46.521 132.126 46.2789C132.353 46.0368 132.466 45.6433 132.466 45.0987V32.7969H134.872V44.917C134.872 46.2032 134.555 47.1943 133.919 47.8903C133.283 48.5713 132.36 48.9117 131.15 48.9117Z" fill="#7780A1"/>
<path d="M136.65 32.7969H140.214L141.803 44.168H141.848L143.437 32.7969H147V48.6848H144.64V36.6554H144.595L142.778 48.6848H140.69L138.875 36.6554H138.83V48.6848H136.65V32.7969Z" fill="#7780A1"/>
<path d="M47 48.6846C50.0716 48.6846 52.5615 46.1946 52.5615 43.1231C52.5615 40.0515 50.0716 37.5615 47 37.5615V41.4546C47.9215 41.4546 48.6684 42.2016 48.6684 43.1231C48.6684 44.0445 47.9215 44.7915 47 44.7915V48.6846Z" fill="#7780A1"/>
<path d="M65.5384 39.4156C64.588 39.1146 63.5759 38.9521 62.5259 38.9521C57.0227 38.9521 52.5615 43.4134 52.5615 48.9165C52.5615 49.4689 52.6065 50.0108 52.6929 50.5387H58.8841C58.6631 50.0432 58.5402 49.4942 58.5402 48.9165C58.5402 46.7153 60.3246 44.9308 62.5259 44.9308C63.729 44.9308 64.8076 45.4638 65.5384 46.3067V39.4156Z" fill="#7780A1"/>
<path d="M47.9775 32C48.4386 36.1711 51.9749 39.4154 56.2689 39.4154C60.5628 39.4154 64.0992 36.1711 64.5602 32H58.5943C58.226 32.9233 57.3236 33.5758 56.2689 33.5758C55.2142 33.5758 54.3118 32.9233 53.9435 32H47.9775Z" fill="#7780A1"/>
<rect x="1" y="1" width="192" height="80" rx="10" stroke="#B7BCCD" stroke-opacity="0.2" stroke-width="2"/>
</svg>
